<?xml version="1.0" encoding="UTF-8" standalone="no"?>
<!-- Created with Inkscape (https://www.inkscape.org/) -->
<!-- ClipArt by Arvin61r58 (https://openclipart.org/user-detail/Arvin61r58) -->
<svg
   xmlns:dc="http://purl.org/dc/elements/1.1/"
   xmlns:cc="http://creativecommons.org/ns#"
   xmlns:rdf="http://www.w3.org/1999/02/22-rdf-syntax-ns#"
   xmlns:svg="http://www.w3.org/2000/svg"
   xmlns="http://www.w3.org/2000/svg"
   xmlns:xlink="http://www.w3.org/1999/xlink"
   id="svg9"
   version="1.1"
   viewBox="0 0 8.5 11"
   height="1056"
   width="816">
  <title
     id="title2198">Border 88 (US size)</title>
  <defs
     id="defs2" />
  <metadata
     id="metadata6">
    <rdf:RDF>
      <cc:Work
         rdf:about="">
        <dc:format>image/svg+xml</dc:format>
        <dc:type
           rdf:resource="http://purl.org/dc/dcmitype/StillImage" />
        <dc:title>Border 88 (US size)</dc:title>
        <cc:license
           rdf:resource="http://creativecommons.org/publicdomain/zero/1.0/" />
        <dc:creator>
          <cc:Agent>
            <dc:title>Arvin61r58</dc:title>
          </cc:Agent>
        </dc:creator>
        <dc:publisher>
          <cc:Agent>
            <dc:title>Openclipart.org</dc:title>
          </cc:Agent>
        </dc:publisher>
        <dc:identifier>https://openclipart.org/</dc:identifier>
        <dc:source>https://openclipart.org/user-detail/Arvin61r58</dc:source>
        <dc:subject>
          <rdf:Bag>
            <rdf:li>border</rdf:li>
            <rdf:li>DTP</rdf:li>
            <rdf:li>frame</rdf:li>
            <rdf:li>page</rdf:li>
            <rdf:li>US</rdf:li>
          </rdf:Bag>
        </dc:subject>
        <dc:description>Page frame/border sized for US (8.5x11in) paper</dc:description>
      </cc:Work>
      <cc:License
         rdf:about="http://creativecommons.org/publicdomain/zero/1.0/">
        <cc:permits
           rdf:resource="http://creativecommons.org/ns#Reproduction" />
        <cc:permits
           rdf:resource="http://creativecommons.org/ns#Distribution" />
        <cc:permits
           rdf:resource="http://creativecommons.org/ns#DerivativeWorks" />
      </cc:License>
    </rdf:RDF>
  </metadata>
  <g
     id="layer1">
    <g
       style="stroke-width:0.99993521"
       transform="matrix(1,0,0,1.0001296,-0.44680851,-1.4271066)"
       id="g1604">
      <title
         id="title2196">Border 88  --  by Arvin61r58</title>
      <use
         style="stroke-width:0.99993521"
         x="0"
         y="0"
         xlink:href="#g1577"
         id="use1579"
         transform="matrix(1,0,0,-1,-6.279e-5,13.808485)"
         width="100%"
         height="100%" />
      <path
         style="fill:#000000;stroke-width:0.03936752"
         d="m 1.0204944,1.9771529 c 0,0 -0.043615,0 -0.043615,0 -3.34e-5,0.051933 -0.011196,0.1038704 -0.033487,0.1573437 -0.045006,0.1079684 -0.092452,0.1079684 -0.1374598,0 -0.020141,-0.048314 -0.030348,-0.1029109 -0.030935,-0.1573437 0,0 -0.046167,0 -0.046167,0 3.96e-5,0.093727 0.024414,0.1874043 0.0731,0.2245988 0.012354,0.00944 0.00182,0.030014 -0.025973,0.050737 -0.05973,0.044531 -0.05973,0.1081947 0,0.1527255 0.027794,0.020722 0.038327,0.041299 0.025973,0.050737 -0.097453,0.074451 -0.097453,0.375219 0,0.4496702 0.012354,0.00944 0.00182,0.030014 -0.025973,0.050737 -0.05973,0.044531 -0.05973,0.1081948 0,0.1527256 0.027794,0.020722 0.038327,0.041299 0.025973,0.050737 -0.048767,0.037257 -0.073141,0.1311865 -0.0731,0.2250715 0,0 0.044739,0 0.044739,0 -1.181e-4,-0.00449 -2.362e-4,-0.00904 -1.181e-4,-0.013125 0.0034,-0.1083978 0.056597,-0.2290668 0.1009713,-0.2290668 0.042321,0 0.1041563,0.143644 0.1041563,0.241955 0,7.7e-5 0,1.584e-4 0,2.364e-4 0,0 0.04192,0 0.04192,0 3.94e-5,-0.093884 -0.024332,-0.1878137 -0.0731,-0.2250708 -0.012354,-0.00944 -0.0018,-0.030014 0.025993,-0.050737 0.059729,-0.044531 0.059729,-0.1081946 0,-0.1527254 -0.027795,-0.020722 -0.038347,-0.041299 -0.025993,-0.050737 0.097454,-0.074451 0.097454,-0.3752191 0,-0.4496702 -0.012354,-0.00944 -0.0018,-0.030014 0.025993,-0.050737 0.059729,-0.044531 0.059729,-0.1081948 0,-0.1527256 -0.027795,-0.020722 -0.038347,-0.041299 -0.025993,-0.050737 0.048686,-0.037194 0.073059,-0.1308713 0.0731,-0.2245987 0,0 -4.7e-6,-6e-7 -4.7e-6,-6e-7 m 0,1.4077381 c 0,0 -0.043615,0 -0.043615,0 -3.34e-5,0.051933 -0.011196,0.1038704 -0.033487,0.1573437 -0.045006,0.1079684 -0.092452,0.1079684 -0.1374598,0 -0.020141,-0.048314 -0.030348,-0.1029109 -0.030935,-0.1573437 0,0 -0.046167,0 -0.046167,0 3.96e-5,0.093727 0.024414,0.1874043 0.0731,0.2245988 0.012354,0.00944 0.00182,0.030014 -0.025973,0.050737 -0.05973,0.044531 -0.05973,0.1081947 0,0.1527255 0.027794,0.020722 0.038327,0.041299 0.025973,0.050737 -0.097453,0.074451 -0.097453,0.375219 0,0.4496702 0.012354,0.00944 0.00182,0.030014 -0.025973,0.050737 -0.05973,0.044531 -0.05973,0.1081948 0,0.1527256 0.027794,0.020722 0.038327,0.041299 0.025973,0.050737 -0.048767,0.037257 -0.073141,0.1311865 -0.0731,0.2250715 0,0 0.044739,0 0.044739,0 -1.181e-4,-0.00449 -2.362e-4,-0.00904 -1.181e-4,-0.013125 0.0034,-0.1083978 0.056597,-0.2290668 0.1009713,-0.2290668 0.042321,0 0.1041563,0.1436439 0.1041563,0.241955 0,7.7e-5 0,1.584e-4 0,2.364e-4 0,0 0.04192,0 0.04192,0 3.94e-5,-0.093884 -0.024332,-0.1878137 -0.0731,-0.2250708 -0.012354,-0.00944 -0.0018,-0.030014 0.025993,-0.050737 0.059729,-0.044531 0.059729,-0.1081946 0,-0.1527254 -0.027795,-0.020722 -0.038347,-0.041299 -0.025993,-0.050737 0.097454,-0.074451 0.097454,-0.3752191 0,-0.4496702 -0.012354,-0.00944 -0.0018,-0.030014 0.025993,-0.050737 0.059729,-0.044531 0.059729,-0.1081948 0,-0.1527256 -0.027795,-0.020722 -0.038347,-0.041299 -0.025993,-0.050737 0.048686,-0.037194 0.073059,-0.1308713 0.0731,-0.2245987 0,0 -4.7e-6,-6e-7 -4.7e-6,-6e-7 m 0,1.4077381 c 0,0 -0.043615,0 -0.043615,0 -3.34e-5,0.051933 -0.011196,0.1038704 -0.033487,0.1573437 -0.045006,0.1079684 -0.092452,0.1079684 -0.1374598,0 -0.020141,-0.048314 -0.030348,-0.1029109 -0.030935,-0.1573437 0,0 -0.046167,0 -0.046167,0 3.96e-5,0.093727 0.024414,0.1874042 0.0731,0.2245988 0.012354,0.00944 0.00182,0.030014 -0.025973,0.050737 -0.05973,0.044531 -0.05973,0.1081947 0,0.1527255 0.027794,0.020722 0.038327,0.041299 0.025973,0.050737 -0.097453,0.074451 -0.097453,0.375219 0,0.4496702 0.012354,0.00944 0.00182,0.030014 -0.025973,0.050737 -0.05973,0.044531 -0.05973,0.1081948 0,0.1527256 0.027794,0.020722 0.038327,0.041299 0.025973,0.050737 -0.048767,0.037257 -0.073141,0.1311865 -0.0731,0.2250715 0,0 0.044739,0 0.044739,0 -1.181e-4,-0.00449 -2.362e-4,-0.00904 -1.181e-4,-0.013125 0.0034,-0.1083978 0.056597,-0.2290668 0.1009713,-0.2290668 0.042321,0 0.1041563,0.1436439 0.1041563,0.241955 0,7.7e-5 0,1.584e-4 0,2.364e-4 0,0 0.04192,0 0.04192,0 3.94e-5,-0.093884 -0.024332,-0.1878137 -0.0731,-0.2250708 -0.012354,-0.00944 -0.0018,-0.030014 0.025993,-0.050737 0.059729,-0.044531 0.059729,-0.1081946 0,-0.1527254 -0.027795,-0.020722 -0.038347,-0.041299 -0.025993,-0.050737 0.097454,-0.074451 0.097454,-0.3752191 0,-0.4496702 -0.012354,-0.00944 -0.0018,-0.030014 0.025993,-0.050737 0.059729,-0.044531 0.059729,-0.1081947 0,-0.1527255 -0.027795,-0.020722 -0.038347,-0.041299 -0.025993,-0.050737 0.048686,-0.037195 0.073059,-0.1308713 0.0731,-0.2245987 0,0 -4.7e-6,-6e-7 -4.7e-6,-6e-7 m 0,1.4077381 c 0,0 -0.043615,0 -0.043615,0 -3.34e-5,0.051933 -0.011196,0.1038704 -0.033487,0.1573437 -0.045006,0.1079684 -0.092452,0.1079684 -0.1374598,0 -0.020141,-0.048314 -0.030348,-0.1029109 -0.030935,-0.1573437 0,0 -0.046167,0 -0.046167,0 3.96e-5,0.093727 0.024414,0.1874042 0.0731,0.2245987 0.012354,0.00944 0.00182,0.030014 -0.025973,0.050737 -0.05973,0.044531 -0.05973,0.1081947 0,0.1527255 0.027794,0.020722 0.038327,0.041299 0.025973,0.050737 -0.097453,0.074451 -0.097453,0.375219 0,0.4496702 0.012354,0.00944 0.00182,0.030014 -0.025973,0.050737 -0.05973,0.044531 -0.05973,0.1081948 0,0.1527256 0.027794,0.020722 0.038327,0.041299 0.025973,0.050737 -0.048767,0.037257 -0.073141,0.1311865 -0.0731,0.2250715 0,0 0.044739,0 0.044739,0 -1.181e-4,-0.00449 -2.362e-4,-0.00904 -1.181e-4,-0.013125 0.0034,-0.1083978 0.056597,-0.2290668 0.1009713,-0.2290668 0.042321,0 0.1041563,0.1436439 0.1041563,0.241955 0,7.7e-5 0,1.584e-4 0,2.364e-4 0,0 0.04192,0 0.04192,0 3.94e-5,-0.093884 -0.024332,-0.1878138 -0.0731,-0.2250708 -0.012354,-0.00944 -0.0018,-0.030014 0.025993,-0.050737 0.059729,-0.044531 0.059729,-0.1081946 0,-0.1527255 -0.027795,-0.020722 -0.038347,-0.041299 -0.025993,-0.050737 0.097454,-0.074451 0.097454,-0.3752191 0,-0.4496702 -0.012354,-0.00944 -0.0018,-0.030014 0.025993,-0.050737 0.059729,-0.044531 0.059729,-0.1081947 0,-0.1527255 -0.027795,-0.020722 -0.038347,-0.041299 -0.025993,-0.050737 0.048686,-0.037195 0.073059,-0.1308713 0.0731,-0.2245987 0,0 -4.7e-6,-6e-7 -4.7e-6,-6e-7 m 0,1.4077381 c 0,0 -0.043615,0 -0.043615,0 -3.34e-5,0.051933 -0.011196,0.1038704 -0.033487,0.1573437 -0.045006,0.1079684 -0.092452,0.1079684 -0.1374598,0 -0.020141,-0.048314 -0.030348,-0.1029109 -0.030935,-0.1573437 0,0 -0.046167,0 -0.046167,0 3.96e-5,0.093727 0.024414,0.1874042 0.0731,0.2245987 0.012354,0.00944 0.00182,0.030014 -0.025973,0.050737 -0.05973,0.044531 -0.05973,0.1081947 0,0.1527255 0.027794,0.020722 0.038327,0.041299 0.025973,0.050737 -0.097453,0.074451 -0.097453,0.3752191 0,0.4496703 0.012354,0.00944 0.00182,0.030014 -0.025973,0.050737 -0.05973,0.044531 -0.05973,0.1081947 0,0.1527256 0.027794,0.020722 0.038327,0.041299 0.025973,0.050737 -0.048767,0.037257 -0.073141,0.1311865 -0.0731,0.2250715 0,0 0.044739,0 0.044739,0 -1.181e-4,-0.00449 -2.362e-4,-0.00904 -1.181e-4,-0.013125 0.0034,-0.1083978 0.056597,-0.2290668 0.1009713,-0.2290668 0.042321,0 0.1041563,0.1436439 0.1041563,0.241955 0,7.69e-5 0,1.583e-4 0,2.364e-4 0,0 0.04192,0 0.04192,0 3.94e-5,-0.093884 -0.024332,-0.1878138 -0.0731,-0.2250708 -0.012354,-0.00944 -0.0018,-0.030014 0.025993,-0.050737 0.059729,-0.044531 0.059729,-0.1081946 0,-0.1527255 -0.027795,-0.020722 -0.038347,-0.041299 -0.025993,-0.050737 0.097454,-0.074451 0.097454,-0.3752191 0,-0.4496702 -0.012354,-0.00944 -0.0018,-0.030014 0.025993,-0.050737 0.059729,-0.044531 0.059729,-0.1081947 0,-0.1527255 -0.027795,-0.020722 -0.038347,-0.041299 -0.025993,-0.050737 0.048686,-0.037194 0.073059,-0.1308713 0.0731,-0.2245987 0,0 -4.7e-6,-6e-7 -4.7e-6,-6e-7 m 0,1.4077381 c 0,0 -0.043615,0 -0.043615,0 -3.34e-5,0.051933 -0.011196,0.1038704 -0.033487,0.1573437 -0.045006,0.1079684 -0.092452,0.1079684 -0.1374598,0 -0.020141,-0.048314 -0.030348,-0.1029109 -0.030935,-0.1573437 0,0 -0.046167,0 -0.046167,0 3.96e-5,0.093727 0.024414,0.1874042 0.0731,0.2245987 0.012354,0.00944 0.00182,0.030014 -0.025973,0.050737 -0.05973,0.044531 -0.05973,0.1081947 0,0.1527255 0.027794,0.020722 0.038327,0.041299 0.025973,0.050737 -0.097453,0.074451 -0.097453,0.3752191 0,0.4496703 0.012354,0.00944 0.00182,0.030014 -0.025973,0.050737 -0.05973,0.04453 -0.05973,0.1081956 0,0.1527256 0.027794,0.02072 0.038327,0.0413 0.025973,0.05074 -0.048767,0.03726 -0.073141,0.131186 -0.0731,0.225071 0,0 0.044739,0 0.044739,0 -1.181e-4,-0.0045 -2.362e-4,-0.009 -1.181e-4,-0.01312 0.0034,-0.108398 0.056597,-0.229067 0.1009713,-0.229067 0.042321,0 0.1041563,0.143644 0.1041563,0.241955 0,7.7e-5 0,1.58e-4 0,2.36e-4 0,0 0.04192,0 0.04192,0 3.94e-5,-0.09388 -0.024332,-0.187813 -0.0731,-0.22507 -0.012354,-0.0094 -0.0018,-0.03002 0.025993,-0.05074 0.059729,-0.04453 0.059729,-0.108195 0,-0.152726 -0.027795,-0.020722 -0.038347,-0.041299 -0.025993,-0.050737 0.097454,-0.074451 0.097454,-0.3752191 0,-0.4496702 -0.012354,-0.00944 -0.0018,-0.030014 0.025993,-0.050737 0.059729,-0.044531 0.059729,-0.1081947 0,-0.1527255 -0.027795,-0.020722 -0.038347,-0.041299 -0.025993,-0.050737 0.048686,-0.037194 0.073059,-0.1308713 0.0731,-0.2245987 0,0 -4.7e-6,-6e-7 -4.7e-6,-6e-7 m 0,1.407738 c 0,0 -0.043615,0 -0.043615,0 -3.34e-5,0.05193 -0.011196,0.103871 -0.033487,0.157344 -0.045006,0.107969 -0.092452,0.107969 -0.1374598,0 -0.020141,-0.04831 -0.030348,-0.102911 -0.030935,-0.157344 0,0 -0.046167,0 -0.046167,0 3.96e-5,0.09373 0.024414,0.187405 0.0731,0.224599 0.012354,0.0094 0.00182,0.03002 -0.025973,0.05074 -0.05973,0.04453 -0.05973,0.108195 0,0.152725 0.027794,0.02072 0.038327,0.0413 0.025973,0.05074 -0.097453,0.07445 -0.097453,0.375219 0,0.44967 0.012354,0.0094 0.00182,0.03002 -0.025973,0.05074 -0.05973,0.04453 -0.05973,0.108195 0,0.152725 0.027794,0.02072 0.038327,0.0413 0.025973,0.05074 -0.048767,0.03726 -0.073141,0.131187 -0.0731,0.225072 0,0 0.044739,0 0.044739,0 -1.181e-4,-0.0045 -2.362e-4,-0.009 -1.181e-4,-0.01313 0.0034,-0.108398 0.056597,-0.229067 0.1009713,-0.229067 0.042321,0 0.1041563,0.143644 0.1041563,0.241955 0,7.7e-5 0,1.58e-4 0,2.36e-4 0,0 0.04192,0 0.04192,0 3.94e-5,-0.09388 -0.024332,-0.187813 -0.0731,-0.22507 -0.012354,-0.0094 -0.0018,-0.03002 0.025993,-0.05074 0.059729,-0.04453 0.059729,-0.108195 0,-0.152725 -0.027795,-0.02072 -0.038347,-0.0413 -0.025993,-0.05074 0.097454,-0.07445 0.097454,-0.375219 0,-0.44967 -0.012354,-0.0094 -0.0018,-0.03002 0.025993,-0.05074 0.059729,-0.04453 0.059729,-0.108195 0,-0.152726 -0.027795,-0.02072 -0.038347,-0.0413 -0.025993,-0.05074 0.048686,-0.03719 0.073059,-0.130872 0.0731,-0.224599 0,0 -4.7e-6,-10e-7 -4.7e-6,-10e-7 m -0.04192,-7.7427959 c 0,0.097951 -0.061845,0.241955 -0.1039114,0.241955 -0.018953,0 -0.048869,-0.03673 -0.06873,-0.084375 C 0.786589,2.7919561 0.771961,2.7152455 0.773447,2.6678948 0.776847,2.5594975 0.830043,2.438828 0.8744183,2.438828 c 0.042321,0 0.1041563,0.1436436 0.1041562,0.2419549 0,0 -1e-7,-3e-7 -1e-7,-3e-7 m 0,1.4077381 c 0,0.097951 -0.061845,0.241955 -0.1039114,0.241955 -0.018953,0 -0.048869,-0.03673 -0.06873,-0.084375 C 0.786589,4.1996937 0.771961,4.1229831 0.773447,4.0756324 0.776847,3.9672351 0.830043,3.8465656 0.8744183,3.8465656 c 0.042321,0 0.1041563,0.1436436 0.1041562,0.2419549 0,0 -1e-7,-3e-7 -1e-7,-3e-7 m 0,1.4077381 c 0,0.097951 -0.061845,0.241955 -0.1039114,0.241955 -0.018953,0 -0.048869,-0.03673 -0.06873,-0.084375 C 0.786589,5.6074313 0.771961,5.5307207 0.773447,5.48337 0.776847,5.3749727 0.830043,5.2543032 0.8744183,5.2543032 c 0.042321,0 0.1041563,0.1436436 0.1041562,0.2419549 0,0 -1e-7,-3e-7 -1e-7,-3e-7 m 0,1.4077381 c 0,0.097951 -0.061845,0.241955 -0.1039114,0.241955 -0.018953,0 -0.048869,-0.03673 -0.06873,-0.084375 C 0.786589,7.0151689 0.771961,6.9384583 0.773447,6.8911076 0.776847,6.7827103 0.830043,6.6620408 0.8744183,6.6620408 c 0.042321,0 0.1041563,0.1436436 0.1041562,0.2419549 0,0 -1e-7,-3e-7 -1e-7,-3e-7 m 0,1.4077381 c 0,0.097951 -0.061845,0.241955 -0.1039114,0.241955 -0.018953,0 -0.048869,-0.03673 -0.06873,-0.084374 C 0.786589,8.4229075 0.771961,8.3461969 0.773447,8.2988462 0.776847,8.1904489 0.830043,8.0697794 0.8744183,8.0697794 c 0.042321,0 0.1041563,0.1436436 0.1041562,0.2419549 0,0 -1e-7,-3e-7 -1e-7,-3e-7 m 0,1.4077381 c 0,0.097951 -0.061845,0.241955 -0.1039114,0.241955 -0.018953,0 -0.048869,-0.03673 -0.06873,-0.084374 C 0.786589,9.8306461 0.771961,9.7539355 0.773447,9.7065848 0.776847,9.5981875 0.830043,9.477518 0.8744183,9.477518 c 0.042321,0 0.1041563,0.1436436 0.1041562,0.2419549 0,0 -1e-7,-3e-7 -1e-7,-3e-7 m 0,1.4077384 c 0,0.09795 -0.061845,0.241955 -0.1039114,0.241955 -0.018953,0 -0.048869,-0.03673 -0.06873,-0.08437 -0.019344,-0.04641 -0.033972,-0.123118 -0.032486,-0.170469 0.0034,-0.108397 0.056596,-0.229067 0.1009713,-0.229067 0.042321,0 0.1041563,0.143644 0.1041562,0.241955 0,0 -1e-7,0 -1e-7,0 M 0.9782201,2.3288516 c 0,0.021944 -0.017179,0.043897 -0.051578,0.053035 -0.028575,0.00759 -0.075337,0.00759 -0.1039114,0 -0.03112,-0.00827 -0.051966,-0.029541 -0.051966,-0.053035 0,-0.04611 0.079768,-0.073231 0.1558772,-0.053014 0.034399,0.00914 0.051578,0.03107 0.051578,0.053014 0,0 2e-7,0 2e-7,0 m 0,1.4077381 c 0,0.021944 -0.017179,0.043897 -0.051578,0.053035 -0.028575,0.00759 -0.075337,0.00759 -0.1039114,0 -0.03112,-0.00827 -0.051966,-0.029541 -0.051966,-0.053035 0,-0.04611 0.079768,-0.073231 0.1558772,-0.053014 0.034399,0.00914 0.051578,0.03107 0.051578,0.053014 0,0 2e-7,0 2e-7,0 m 0,1.4077381 c 0,0.021944 -0.017179,0.043897 -0.051578,0.053035 -0.028575,0.00759 -0.075337,0.00759 -0.1039114,0 -0.03112,-0.00827 -0.051966,-0.029541 -0.051966,-0.053035 0,-0.04611 0.079768,-0.073231 0.1558772,-0.053014 0.034399,0.00914 0.051578,0.03107 0.051578,0.053014 0,0 2e-7,0 2e-7,0 m 0,1.4077381 c 0,0.021944 -0.017179,0.043897 -0.051578,0.053035 -0.028575,0.00759 -0.075337,0.00759 -0.1039114,0 -0.03112,-0.00827 -0.051966,-0.029541 -0.051966,-0.053035 0,-0.04611 0.079768,-0.073231 0.1558772,-0.053014 0.034399,0.00914 0.051578,0.03107 0.051578,0.053014 0,0 2e-7,0 2e-7,0 m 0,1.4077381 c 0,0.021944 -0.017179,0.043897 -0.051578,0.053035 -0.028575,0.00759 -0.075337,0.00759 -0.1039114,0 -0.03112,-0.00827 -0.051966,-0.029541 -0.051966,-0.053035 0,-0.04611 0.079768,-0.073231 0.1558772,-0.053014 0.034399,0.00914 0.051578,0.03107 0.051578,0.053014 0,0 2e-7,0 2e-7,0 m 0,1.4077381 c 0,0.021944 -0.017179,0.043897 -0.051578,0.053035 -0.028575,0.00759 -0.075337,0.00759 -0.1039114,0 -0.03112,-0.00827 -0.051966,-0.029541 -0.051966,-0.053035 0,-0.04611 0.079768,-0.073231 0.1558772,-0.053014 0.034399,0.00914 0.051578,0.03107 0.051578,0.053014 0,0 2e-7,0 2e-7,0 m 0,1.4077389 c 0,0.02194 -0.017179,0.0439 -0.051578,0.05303 -0.028575,0.0076 -0.075337,0.0076 -0.1039114,0 -0.03112,-0.0083 -0.051966,-0.02954 -0.051966,-0.05303 0,-0.04611 0.079768,-0.07323 0.1558772,-0.05301 0.034399,0.0091 0.051578,0.03107 0.051578,0.05301 0,0 2e-7,0 2e-7,0 m 0,-7.7425603 c 0,0.021944 -0.017179,0.043897 -0.051578,0.053035 -0.028575,0.00759 -0.075337,0.00759 -0.1039114,0 -0.03112,-0.00827 -0.051966,-0.029541 -0.051966,-0.053035 0,-0.04611 0.079768,-0.073232 0.1558772,-0.053014 0.034399,0.00914 0.051578,0.03107 0.051578,0.053014 0,0 2e-7,0 2e-7,0 m 0,1.4077381 c 0,0.021944 -0.017179,0.043897 -0.051578,0.053035 -0.028575,0.00759 -0.075337,0.00759 -0.1039114,0 -0.03112,-0.00827 -0.051966,-0.029541 -0.051966,-0.053035 0,-0.04611 0.079768,-0.073232 0.1558772,-0.053014 0.034399,0.00914 0.051578,0.03107 0.051578,0.053014 0,0 2e-7,0 2e-7,0 m 0,1.4077381 c 0,0.021944 -0.017179,0.043897 -0.051578,0.053035 -0.028575,0.00759 -0.075337,0.00759 -0.1039114,0 -0.03112,-0.00827 -0.051966,-0.029541 -0.051966,-0.053035 0,-0.04611 0.079768,-0.073232 0.1558772,-0.053014 0.034399,0.00914 0.051578,0.03107 0.051578,0.053014 0,0 2e-7,0 2e-7,0 m 0,1.4077381 c 0,0.021944 -0.017179,0.043897 -0.051578,0.053035 -0.028575,0.00759 -0.075337,0.00759 -0.1039114,0 -0.03112,-0.00827 -0.051966,-0.029541 -0.051966,-0.053035 0,-0.04611 0.079768,-0.073232 0.1558772,-0.053014 0.034399,0.00914 0.051578,0.03107 0.051578,0.053014 0,0 2e-7,0 2e-7,0 m 0,1.4077381 c 0,0.021944 -0.017179,0.043897 -0.051578,0.053035 -0.028575,0.00759 -0.075337,0.00759 -0.1039114,0 -0.03112,-0.00827 -0.051966,-0.029541 -0.051966,-0.053035 0,-0.04611 0.079768,-0.073232 0.1558772,-0.053014 0.034399,0.00914 0.051578,0.03107 0.051578,0.053014 0,0 2e-7,0 2e-7,0 m 0,1.4077389 c 0,0.02194 -0.017179,0.0439 -0.051578,0.05304 -0.028575,0.0076 -0.075337,0.0076 -0.1039114,0 -0.03112,-0.0083 -0.051966,-0.02954 -0.051966,-0.05304 0,-0.04611 0.079768,-0.073232 0.1558772,-0.05301 0.034399,0.0091 0.051578,0.03107 0.051578,0.05301 0,0 2e-7,0 2e-7,0 m 0,1.407738 c 0,0.02194 -0.017179,0.0439 -0.051578,0.05304 -0.028575,0.0076 -0.075337,0.0076 -0.1039114,0 -0.03112,-0.0083 -0.051966,-0.02954 -0.051966,-0.05304 0,-0.04611 0.079768,-0.07323 0.1558772,-0.05301 0.034399,0.0091 0.051578,0.03107 0.051578,0.05301 0,0 2e-7,0 2e-7,0"
         id="path2506" />
      <g
         style="stroke-width:0.99993521"
         id="g1577"
         transform="translate(0.74468085,-1.5957447)">
        <path
           id="path3617"
           d="m 0.27588104,3.2812361 c 0,0 0,0.043615 0,0.043615 0.0452174,3.34e-5 0.0904382,0.011196 0.13699662,0.033487 0.0940063,0.045006 0.0940063,0.092452 0,0.1374598 -0.0420659,0.020141 -0.0896029,0.030348 -0.13699662,0.030935 0,0 0,0.046167 0,0.046167 0.0816069,-3.96e-5 0.16316981,-0.024414 0.19555446,-0.0731 0.008217,-0.012354 0.0261329,-0.00182 0.0441756,0.025973 0.0387723,0.05973 0.0942033,0.05973 0.1329756,0 0.0180425,-0.027794 0.0359582,-0.038327 0.0441756,-0.025973 0.0648233,0.097453 0.3266971,0.097453 0.3915205,0 0.00822,-0.012354 0.026133,-0.00182 0.044176,0.025973 0.038772,0.05973 0.094203,0.05973 0.1329756,0 0.018042,-0.027794 0.035958,-0.038327 0.044176,-0.025973 0.032439,0.048767 0.1142219,0.073141 0.195966,0.0731 0,0 0,-0.044739 0,-0.044739 -0.00391,1.181e-4 -0.00787,2.362e-4 -0.011427,1.181e-4 -0.09438,-0.0034 -0.1994447,-0.056597 -0.1994447,-0.1009713 0,-0.042321 0.1250685,-0.1041563 0.2106663,-0.1041563 6.7e-5,0 1.379e-4,0 2.058e-4,0 0,0 0,-0.04192 0,-0.04192 -0.081743,-3.94e-5 -0.1635263,0.024332 -0.1959655,0.0731 -0.00822,0.012354 -0.026133,0.0018 -0.044176,-0.025993 -0.038772,-0.059729 -0.094203,-0.059729 -0.1329756,0 -0.018042,0.027795 -0.035958,0.038347 -0.044175,0.025993 -0.064823,-0.097454 -0.32669715,-0.097454 -0.39152055,0 -0.008218,0.012354 -0.026133,0.0018 -0.0441756,-0.025993 -0.0387721,-0.059729 -0.0942034,-0.059729 -0.13297565,0 -0.0180426,0.027795 -0.0359585,0.038347 -0.0441756,0.025993 -0.0323846,-0.048686 -0.11394753,-0.073059 -0.19555445,-0.0731 0,0 -5.1e-7,4.7e-6 -5.1e-7,4.7e-6 m 1.22569446,0 c 0,0 0,0.043615 0,0.043615 0.045217,3.34e-5 0.090438,0.011196 0.1369966,0.033487 0.094006,0.045006 0.094006,0.092452 0,0.1374598 -0.042066,0.020141 -0.089603,0.030348 -0.1369966,0.030935 0,0 0,0.046167 0,0.046167 0.081607,-3.96e-5 0.1631698,-0.024414 0.1955544,-0.0731 0.00822,-0.012354 0.026133,-0.00182 0.044176,0.025973 0.038772,0.05973 0.094203,0.05973 0.1329756,0 0.018043,-0.027794 0.035958,-0.038327 0.044176,-0.025973 0.064823,0.097453 0.3266971,0.097453 0.3915205,0 0.00822,-0.012354 0.026133,-0.00182 0.044176,0.025973 0.038772,0.05973 0.094203,0.05973 0.1329757,0 0.018042,-0.027794 0.035958,-0.038327 0.044176,-0.025973 0.032439,0.048767 0.1142219,0.073141 0.195966,0.0731 0,0 0,-0.044739 0,-0.044739 -0.00391,1.181e-4 -0.00787,2.362e-4 -0.011427,1.181e-4 -0.09438,-0.0034 -0.1994447,-0.056597 -0.1994447,-0.1009713 0,-0.042321 0.1250684,-0.1041563 0.2106662,-0.1041563 6.7e-5,0 1.379e-4,0 2.059e-4,0 0,0 0,-0.04192 0,-0.04192 -0.081743,-3.94e-5 -0.1635264,0.024332 -0.1959655,0.0731 -0.00822,0.012354 -0.026133,0.0018 -0.044176,-0.025993 -0.038772,-0.059729 -0.094203,-0.059729 -0.1329755,0 -0.018043,0.027795 -0.035958,0.038347 -0.044176,0.025993 -0.064823,-0.097454 -0.3266971,-0.097454 -0.3915205,0 -0.00822,0.012354 -0.026133,0.0018 -0.044175,-0.025993 -0.038772,-0.059729 -0.094203,-0.059729 -0.1329757,0 -0.018043,0.027795 -0.035959,0.038347 -0.044175,0.025993 -0.032385,-0.048686 -0.1139476,-0.073059 -0.1955545,-0.0731 0,0 -5e-7,4.7e-6 -5e-7,4.7e-6 m 1.2256944,0 c 0,0 0,0.043615 0,0.043615 0.045217,3.34e-5 0.090438,0.011196 0.1369967,0.033487 0.094006,0.045006 0.094006,0.092452 0,0.1374598 -0.042066,0.020141 -0.089603,0.030348 -0.1369967,0.030935 0,0 0,0.046167 0,0.046167 0.081607,-3.96e-5 0.1631699,-0.024414 0.1955545,-0.0731 0.00822,-0.012354 0.026133,-0.00182 0.044176,0.025973 0.038772,0.05973 0.094203,0.05973 0.1329756,0 0.018042,-0.027794 0.035958,-0.038327 0.044176,-0.025973 0.064823,0.097453 0.3266971,0.097453 0.3915205,0 0.00822,-0.012354 0.026133,-0.00182 0.044176,0.025973 0.038772,0.05973 0.094203,0.05973 0.1329756,0 0.018042,-0.027794 0.035958,-0.038327 0.044176,-0.025973 0.032439,0.048767 0.1142219,0.073141 0.195966,0.0731 0,0 0,-0.044739 0,-0.044739 -0.00391,1.181e-4 -0.00787,2.362e-4 -0.011427,1.181e-4 -0.09438,-0.0034 -0.1994447,-0.056597 -0.1994447,-0.1009713 0,-0.042321 0.1250685,-0.1041563 0.2106663,-0.1041563 6.7e-5,0 1.379e-4,0 2.058e-4,0 0,0 0,-0.04192 0,-0.04192 -0.081743,-3.94e-5 -0.1635263,0.024332 -0.1959655,0.0731 -0.00822,0.012354 -0.026133,0.0018 -0.044175,-0.025993 -0.038772,-0.059729 -0.094203,-0.059729 -0.1329756,0 -0.018043,0.027795 -0.035958,0.038347 -0.044176,0.025993 -0.064823,-0.097454 -0.3266971,-0.097454 -0.3915205,0 -0.00822,0.012354 -0.026133,0.0018 -0.044176,-0.025993 -0.038772,-0.059729 -0.094203,-0.059729 -0.1329756,0 -0.018043,0.027795 -0.035959,0.038347 -0.044176,0.025993 -0.032385,-0.048686 -0.1139475,-0.073059 -0.1955545,-0.0731 0,0 -5e-7,4.7e-6 -5e-7,4.7e-6 m 1.2256945,0 c 0,0 0,0.043615 0,0.043615 0.045217,3.34e-5 0.090438,0.011196 0.1369966,0.033487 0.094006,0.045006 0.094006,0.092452 0,0.1374598 -0.042066,0.020141 -0.089603,0.030348 -0.1369966,0.030935 0,0 0,0.046167 0,0.046167 0.081607,-3.96e-5 0.1631698,-0.024414 0.1955544,-0.0731 0.00822,-0.012354 0.026133,-0.00182 0.044176,0.025973 0.038772,0.05973 0.094203,0.05973 0.1329756,0 0.018042,-0.027794 0.035958,-0.038327 0.044176,-0.025973 0.064823,0.097453 0.3266971,0.097453 0.3915205,0 0.00822,-0.012354 0.026133,-0.00182 0.044175,0.025973 0.038772,0.05973 0.094203,0.05973 0.1329757,0 0.018042,-0.027794 0.035958,-0.038327 0.044175,-0.025973 0.032439,0.048767 0.1142219,0.073141 0.195966,0.0731 0,0 0,-0.044739 0,-0.044739 -0.00391,1.181e-4 -0.00787,2.362e-4 -0.011427,1.181e-4 -0.09438,-0.0034 -0.1994447,-0.056597 -0.1994447,-0.1009713 0,-0.042321 0.1250684,-0.1041563 0.2106662,-0.1041563 6.7e-5,0 1.379e-4,0 2.059e-4,0 0,0 0,-0.04192 0,-0.04192 -0.081743,-3.94e-5 -0.1635264,0.024332 -0.1959655,0.0731 -0.00822,0.012354 -0.026133,0.0018 -0.044176,-0.025993 -0.038772,-0.059729 -0.094203,-0.059729 -0.1329755,0 -0.018043,0.027795 -0.035958,0.038347 -0.044176,0.025993 -0.064823,-0.097454 -0.3266971,-0.097454 -0.3915205,0 -0.00822,0.012354 -0.026133,0.0018 -0.044176,-0.025993 -0.038772,-0.059729 -0.094203,-0.059729 -0.1329757,0 -0.018043,0.027795 -0.035959,0.038347 -0.044176,0.025993 -0.032385,-0.048686 -0.1139476,-0.073059 -0.1955545,-0.0731 0,0 -5e-7,4.7e-6 -5e-7,4.7e-6 m 1.2256944,0 c 0,0 0,0.043615 0,0.043615 0.045217,3.34e-5 0.090438,0.011196 0.1369967,0.033487 0.094006,0.045006 0.094006,0.092452 0,0.1374598 -0.042066,0.020141 -0.089603,0.030348 -0.1369967,0.030935 0,0 0,0.046167 0,0.046167 0.081607,-3.96e-5 0.1631699,-0.024414 0.1955545,-0.0731 0.00822,-0.012354 0.026133,-0.00182 0.044176,0.025973 0.038772,0.05973 0.094203,0.05973 0.1329756,0 0.018042,-0.027794 0.035958,-0.038327 0.044175,-0.025973 0.064823,0.097453 0.3266971,0.097453 0.3915205,0 0.00822,-0.012354 0.026133,-0.00182 0.044176,0.025973 0.038772,0.05973 0.094203,0.05973 0.1329756,0 0.018042,-0.027794 0.035958,-0.038327 0.044176,-0.025973 0.032439,0.048767 0.1142219,0.073141 0.195966,0.0731 0,0 0,-0.044739 0,-0.044739 -0.00391,1.181e-4 -0.00787,2.362e-4 -0.011427,1.181e-4 -0.09438,-0.0034 -0.1994447,-0.056597 -0.1994447,-0.1009713 0,-0.042321 0.1250685,-0.1041563 0.2106663,-0.1041563 6.7e-5,0 1.379e-4,0 2.058e-4,0 0,0 0,-0.04192 0,-0.04192 -0.081743,-3.94e-5 -0.1635263,0.024332 -0.1959655,0.0731 -0.00822,0.012354 -0.026133,0.0018 -0.044176,-0.025993 -0.038772,-0.059729 -0.094203,-0.059729 -0.1329756,0 -0.018042,0.027795 -0.035958,0.038347 -0.044175,0.025993 -0.064823,-0.097454 -0.3266971,-0.097454 -0.3915205,0 -0.00822,0.012354 -0.026133,0.0018 -0.044176,-0.025993 -0.038772,-0.059729 -0.094203,-0.059729 -0.1329756,0 -0.018043,0.027795 -0.035958,0.038347 -0.044176,0.025993 -0.032385,-0.048686 -0.1139475,-0.073059 -0.1955545,-0.0731 0,0 -5e-7,4.7e-6 -5e-7,4.7e-6 m 1.2256945,0 c 0,0 0,0.043615 0,0.043615 0.045217,3.34e-5 0.090438,0.011196 0.1369966,0.033487 0.094006,0.045006 0.094006,0.092452 0,0.1374598 -0.042066,0.020141 -0.089603,0.030348 -0.1369966,0.030935 0,0 0,0.046167 0,0.046167 0.081607,-3.96e-5 0.1631698,-0.024414 0.1955544,-0.0731 0.00822,-0.012354 0.026133,-0.00182 0.044176,0.025973 0.038772,0.05973 0.094203,0.05973 0.1329756,0 0.018042,-0.027794 0.035958,-0.038327 0.044176,-0.025973 0.064823,0.097453 0.3266971,0.097453 0.3915205,0 0.00822,-0.012354 0.026133,-0.00182 0.044176,0.025973 0.038772,0.05973 0.094203,0.05973 0.1329757,0 0.018042,-0.027794 0.035958,-0.038327 0.044175,-0.025973 0.032439,0.048767 0.1142219,0.073141 0.195966,0.0731 0,0 0,-0.044739 0,-0.044739 -0.00391,1.181e-4 -0.00787,2.362e-4 -0.011427,1.181e-4 -0.09438,-0.0034 -0.1994447,-0.056597 -0.1994447,-0.1009713 0,-0.042321 0.1250684,-0.1041563 0.2106662,-0.1041563 6.7e-5,0 1.379e-4,0 2.059e-4,0 0,0 0,-0.04192 0,-0.04192 -0.081744,-3.94e-5 -0.1635264,0.024332 -0.1959655,0.0731 -0.00822,0.012354 -0.026133,0.0018 -0.044176,-0.025993 -0.038772,-0.059729 -0.094203,-0.059729 -0.1329755,0 -0.018043,0.027795 -0.035958,0.038347 -0.044176,0.025993 -0.064823,-0.097454 -0.3266971,-0.097454 -0.3915205,0 -0.00822,0.012354 -0.026133,0.0018 -0.044175,-0.025993 -0.038772,-0.059729 -0.094203,-0.059729 -0.1329757,0 -0.018043,0.027795 -0.035958,0.038347 -0.044175,0.025993 -0.032385,-0.048686 -0.1139476,-0.073059 -0.1955545,-0.0731 0,0 -5e-7,4.7e-6 -5e-7,4.7e-6 m -5.51583088,0.04192 c 0.0852844,0 0.21066628,0.061845 0.21066628,0.1039114 0,0.018953 -0.03198,0.048869 -0.073464,0.06873 -0.0404057,0.019344 -0.1071965,0.033972 -0.14842396,0.032486 -0.0943798,-0.0034 -0.19944472,-0.056596 -0.19944472,-0.1009713 0,-0.042321 0.12506808,-0.1041563 0.21066617,-0.1041562 0,0 -2.7e-7,10e-8 -2.7e-7,10e-8 m 1.22569448,0 c 0.085284,0 0.2106662,0.061845 0.2106662,0.1039114 0,0.018953 -0.03198,0.048869 -0.073463,0.06873 -0.040406,0.019344 -0.1071964,0.033972 -0.1484239,0.032486 -0.09438,-0.0034 -0.1994447,-0.056596 -0.1994447,-0.1009713 0,-0.042321 0.1250681,-0.1041563 0.2106661,-0.1041562 0,0 -2e-7,10e-8 -2e-7,10e-8 m 1.2256944,0 c 0.085284,0 0.2106663,0.061845 0.2106663,0.1039114 0,0.018953 -0.03198,0.048869 -0.073463,0.06873 -0.040406,0.019344 -0.1071965,0.033972 -0.148424,0.032486 -0.09438,-0.0034 -0.1994447,-0.056596 -0.1994447,-0.1009713 0,-0.042321 0.1250681,-0.1041563 0.2106662,-0.1041562 0,0 -3e-7,10e-8 -3e-7,10e-8 m 1.2256945,0 c 0.085284,0 0.2106662,0.061845 0.2106662,0.1039114 0,0.018953 -0.03198,0.048869 -0.073463,0.06873 -0.040406,0.019344 -0.1071964,0.033972 -0.1484239,0.032486 -0.09438,-0.0034 -0.1994447,-0.056596 -0.1994447,-0.1009713 0,-0.042321 0.1250681,-0.1041563 0.2106661,-0.1041562 0,0 -2e-7,10e-8 -2e-7,10e-8 m 1.2256944,0 c 0.085284,0 0.2106663,0.061845 0.2106663,0.1039114 0,0.018953 -0.031981,0.048869 -0.073463,0.06873 -0.040406,0.019344 -0.1071965,0.033972 -0.148424,0.032486 -0.09438,-0.0034 -0.1994447,-0.056596 -0.1994447,-0.1009713 0,-0.042321 0.1250681,-0.1041563 0.2106662,-0.1041562 0,0 -3e-7,10e-8 -3e-7,10e-8 m 1.2256945,0 c 0.085284,0 0.2106662,0.061845 0.2106662,0.1039114 0,0.018953 -0.031981,0.048869 -0.073463,0.06873 -0.040406,0.019344 -0.1071964,0.033972 -0.1484239,0.032486 -0.09438,-0.0034 -0.1994447,-0.056596 -0.1994447,-0.1009713 0,-0.042321 0.1250681,-0.1041563 0.2106661,-0.1041562 0,0 -2e-7,10e-8 -2e-7,10e-8 m -6.43489586,3.543e-4 c 0.0191061,0 0.0382205,0.017179 0.0461768,0.051578 0.00661,0.028575 0.00661,0.075337 0,0.1039114 -0.007198,0.03112 -0.0257212,0.051966 -0.0461768,0.051966 -0.0401475,0 -0.0637613,-0.079768 -0.0461581,-0.1558772 0.007956,-0.034399 0.0270523,-0.051578 0.0461581,-0.051578 0,0 0,-2e-7 0,-2e-7 m 1.22569446,0 c 0.019106,0 0.03822,0.017179 0.046177,0.051578 0.00661,0.028575 0.00661,0.075337 0,0.1039114 -0.0072,0.03112 -0.025721,0.051966 -0.046177,0.051966 -0.040148,0 -0.063761,-0.079768 -0.046158,-0.1558772 0.00796,-0.034399 0.027052,-0.051578 0.046158,-0.051578 0,0 0,-2e-7 0,-2e-7 m 1.2256944,0 c 0.019106,0 0.038221,0.017179 0.046177,0.051578 0.00661,0.028575 0.00661,0.075337 0,0.1039114 -0.0072,0.03112 -0.025721,0.051966 -0.046177,0.051966 -0.040147,0 -0.063761,-0.079768 -0.046158,-0.1558772 0.00796,-0.034399 0.027052,-0.051578 0.046158,-0.051578 0,0 0,-2e-7 0,-2e-7 m 1.2256945,0 c 0.019106,0 0.038221,0.017179 0.046177,0.051578 0.00661,0.028575 0.00661,0.075337 0,0.1039114 -0.0072,0.03112 -0.025721,0.051966 -0.046177,0.051966 -0.040147,0 -0.063761,-0.079768 -0.046158,-0.1558772 0.00796,-0.034399 0.027052,-0.051578 0.046158,-0.051578 0,0 0,-2e-7 0,-2e-7 m 1.2256944,0 c 0.019106,0 0.038221,0.017179 0.046177,0.051578 0.00661,0.028575 0.00661,0.075337 0,0.1039114 -0.0072,0.03112 -0.025721,0.051966 -0.046177,0.051966 -0.040147,0 -0.063761,-0.079768 -0.046158,-0.1558772 0.00796,-0.034399 0.027052,-0.051578 0.046158,-0.051578 0,0 0,-2e-7 0,-2e-7 m 1.2256945,0 c 0.019106,0 0.03822,0.017179 0.046177,0.051578 0.00661,0.028575 0.00661,0.075337 0,0.1039114 -0.0072,0.03112 -0.025721,0.051966 -0.046177,0.051966 -0.040147,0 -0.063761,-0.079768 -0.046158,-0.1558772 0.00796,-0.034399 0.027052,-0.051578 0.046158,-0.051578 0,0 0,-2e-7 0,-2e-7 m -5.515625,0 c 0.019106,0 0.03822,0.017179 0.046177,0.051578 0.00661,0.028575 0.00661,0.075337 0,0.1039114 -0.0072,0.03112 -0.025721,0.051966 -0.046177,0.051966 -0.040147,0 -0.063762,-0.079768 -0.046158,-0.1558772 0.00796,-0.034399 0.027052,-0.051578 0.046158,-0.051578 0,0 0,-2e-7 0,-2e-7 m 1.2256944,0 c 0.019106,0 0.038221,0.017179 0.046177,0.051578 0.00661,0.028575 0.00661,0.075337 0,0.1039114 -0.0072,0.03112 -0.025721,0.051966 -0.046177,0.051966 -0.040147,0 -0.063762,-0.079768 -0.046158,-0.1558772 0.00796,-0.034399 0.027052,-0.051578 0.046158,-0.051578 0,0 0,-2e-7 0,-2e-7 m 1.2256945,0 c 0.019106,0 0.03822,0.017179 0.046177,0.051578 0.00661,0.028575 0.00661,0.075337 0,0.1039114 -0.0072,0.03112 -0.025721,0.051966 -0.046177,0.051966 -0.040147,0 -0.063762,-0.079768 -0.046158,-0.1558772 0.00796,-0.034399 0.027052,-0.051578 0.046158,-0.051578 0,0 0,-2e-7 0,-2e-7 m 1.2256944,0 c 0.019106,0 0.038221,0.017179 0.046177,0.051578 0.00661,0.028575 0.00661,0.075337 0,0.1039114 -0.0072,0.03112 -0.025721,0.051966 -0.046177,0.051966 -0.040147,0 -0.063762,-0.079768 -0.046158,-0.1558772 0.00796,-0.034399 0.027052,-0.051578 0.046158,-0.051578 0,0 0,-2e-7 0,-2e-7 m 1.2256945,0 c 0.019106,0 0.03822,0.017179 0.046177,0.051578 0.00661,0.028575 0.00661,0.075337 0,0.1039114 -0.0072,0.03112 -0.025721,0.051966 -0.046177,0.051966 -0.040147,0 -0.063762,-0.079768 -0.046158,-0.1558772 0.00796,-0.034399 0.027052,-0.051578 0.046158,-0.051578 0,0 0,-2e-7 0,-2e-7 m 1.2256944,0 c 0.019106,0 0.038221,0.017179 0.046177,0.051578 0.00661,0.028575 0.00661,0.075337 0,0.1039114 -0.0072,0.03112 -0.025721,0.051966 -0.046177,0.051966 -0.040147,0 -0.063762,-0.079768 -0.046158,-0.1558772 0.00796,-0.034399 0.027052,-0.051578 0.046158,-0.051578 0,0 0,-2e-7 0,-2e-7"
           style="fill:#000000;stroke-width:0.03936752" />
        <path
           style="color:#000000;font-style:normal;font-variant:normal;font-weight:normal;font-stretch:normal;font-size:medium;line-height:normal;font-family:sans-serif;font-variant-ligatures:normal;font-variant-position:normal;font-variant-caps:normal;font-variant-numeric:normal;font-variant-alternates:normal;font-feature-settings:normal;text-indent:0;text-align:start;text-decoration:none;text-decoration-line:none;text-decoration-style:solid;text-decoration-color:#000000;letter-spacing:normal;word-spacing:normal;text-transform:none;writing-mode:lr-tb;direction:ltr;text-orientation:mixed;dominant-baseline:auto;baseline-shift:baseline;text-anchor:start;white-space:normal;shape-padding:0;clip-rule:nonzero;display:inline;overflow:visible;visibility:visible;opacity:1;isolation:auto;mix-blend-mode:normal;color-interpolation:sRGB;color-interpolation-filters:linearRGB;solid-color:#000000;solid-opacity:1;vector-effect:none;fill:#000000;fill-opacity:1;fill-rule:nonzero;stroke:none;stroke-width:0.04458045;stroke-linecap:butt;stroke-linejoin:miter;stroke-miterlimit:4;stroke-dasharray:none;stroke-dashoffset:0;stroke-opacity:1;paint-order:normal;color-rendering:auto;image-rendering:auto;shape-rendering:auto;text-rendering:auto;enable-background:accumulate"
           d="m -0.01585416,3.2812204 c -0.068746,0.068746 -0.00155,0.2907204 -0.00155,0.2907204 h 0.046167 c 1.49e-5,-0.084233 -0.057144,-0.1940417 -1.85e-5,-0.2461212 0.057126,-0.05208 0.1678304,3.149e-4 0.2471367,-9.685e-4 l -6.67e-5,-0.04363 c 0,0 -0.2229202,-0.068746 -0.2916667,0 z m 0.2470704,0.2468259 v 2.363e-4 h 2.08e-5 c 1.46e-5,-7.92e-5 6.1e-6,-1.575e-4 2.08e-5,-2.363e-4 z m 2.08e-5,2.757e-4 c -0.010507,0.010507 -5.945e-4,0.043619 -5.945e-4,0.043619 l 0.045171,9.566e-4 6.67e-5,-0.046165 c 0,0 -0.034136,-0.00892 -0.044642,0.00159 z"
           id="rect1493" />
        <path
           id="path1572"
           d="m 7.9217868,3.2826487 c 0.068746,0.068746 0.00155,0.2907204 0.00155,0.2907204 h -0.046167 c -1.49e-5,-0.084233 0.057144,-0.1940417 1.85e-5,-0.2461212 -0.057126,-0.05208 -0.1678304,3.149e-4 -0.2471367,-9.685e-4 l 6.67e-5,-0.04363 c 0,0 0.2229202,-0.068746 0.2916667,0 z M 7.6747164,3.5294746 v 2.363e-4 h -2.08e-5 c -1.46e-5,-7.92e-5 -6.1e-6,-1.575e-4 -2.08e-5,-2.363e-4 z m -2.08e-5,2.757e-4 c 0.010507,0.010507 5.945e-4,0.043619 5.945e-4,0.043619 l -0.045171,9.566e-4 -6.67e-5,-0.046165 c 0,0 0.034136,-0.00892 0.044642,0.00159 z"
           style="color:#000000;font-style:normal;font-variant:normal;font-weight:normal;font-stretch:normal;font-size:medium;line-height:normal;font-family:sans-serif;font-variant-ligatures:normal;font-variant-position:normal;font-variant-caps:normal;font-variant-numeric:normal;font-variant-alternates:normal;font-feature-settings:normal;text-indent:0;text-align:start;text-decoration:none;text-decoration-line:none;text-decoration-style:solid;text-decoration-color:#000000;letter-spacing:normal;word-spacing:normal;text-transform:none;writing-mode:lr-tb;direction:ltr;text-orientation:mixed;dominant-baseline:auto;baseline-shift:baseline;text-anchor:start;white-space:normal;shape-padding:0;clip-rule:nonzero;display:inline;overflow:visible;visibility:visible;opacity:1;isolation:auto;mix-blend-mode:normal;color-interpolation:sRGB;color-interpolation-filters:linearRGB;solid-color:#000000;solid-opacity:1;vector-effect:none;fill:#000000;fill-opacity:1;fill-rule:nonzero;stroke:none;stroke-width:0.04458045;stroke-linecap:butt;stroke-linejoin:miter;stroke-miterlimit:4;stroke-dasharray:none;stroke-dashoffset:0;stroke-opacity:1;paint-order:normal;color-rendering:auto;image-rendering:auto;shape-rendering:auto;text-rendering:auto;enable-background:accumulate" />
      </g>
      <use
         style="stroke-width:0.99993521"
         x="0"
         y="0"
         xlink:href="#path2506"
         id="use1581"
         transform="translate(7.6475232,4.715e-4)"
         width="100%"
         height="100%" />
    </g>
  </g>
</svg>
