<?xml version="1.0" encoding="UTF-8" standalone="no"?>
<!-- Created with Inkscape (https://www.inkscape.org/) -->
<!-- ClipArt by Arvin61r58 (https://openclipart.org/user-detail/Arvin61r58) -->
<svg
   xmlns:dc="http://purl.org/dc/elements/1.1/"
   xmlns:cc="http://creativecommons.org/ns#"
   xmlns:rdf="http://www.w3.org/1999/02/22-rdf-syntax-ns#"
   xmlns:svg="http://www.w3.org/2000/svg"
   xmlns="http://www.w3.org/2000/svg"
   id="svg976"
   version="1.1"
   viewBox="0 0 210.00001 297"
   height="297mm"
   width="210mm">
  <title
     id="title933">Border 93 (A4 size)</title>
  <defs
     id="defs970" />
  <metadata
     id="metadata973">
    <rdf:RDF>
      <cc:Work
         rdf:about="">
        <dc:format>image/svg+xml</dc:format>
        <dc:type
           rdf:resource="http://purl.org/dc/dcmitype/StillImage" />
        <dc:title>Border 93 (A4 size)</dc:title>
        <cc:license
           rdf:resource="http://creativecommons.org/publicdomain/zero/1.0/" />
        <dc:creator>
          <cc:Agent>
            <dc:title>Arvin61r58</dc:title>
          </cc:Agent>
        </dc:creator>
        <dc:publisher>
          <cc:Agent>
            <dc:title>Openclipart.org</dc:title>
          </cc:Agent>
        </dc:publisher>
        <dc:identifier>https://openclipart.org/</dc:identifier>
        <dc:source>https://openclipart.org/user-detail/Arvin61r58</dc:source>
        <dc:subject>
          <rdf:Bag>
            <rdf:li>A4</rdf:li>
            <rdf:li>border</rdf:li>
            <rdf:li>DTP</rdf:li>
            <rdf:li>frame</rdf:li>
            <rdf:li>page</rdf:li>
          </rdf:Bag>
        </dc:subject>
        <dc:description>Page frame/border sized for A4 (210x297mm) paper</dc:description>
      </cc:Work>
      <cc:License
         rdf:about="http://creativecommons.org/publicdomain/zero/1.0/">
        <cc:permits
           rdf:resource="http://creativecommons.org/ns#Reproduction" />
        <cc:permits
           rdf:resource="http://creativecommons.org/ns#Distribution" />
        <cc:permits
           rdf:resource="http://creativecommons.org/ns#DerivativeWorks" />
      </cc:License>
    </rdf:RDF>
  </metadata>
  <g
     transform="translate(0,4e-6)"
     id="layer1">
    <g
       transform="translate(0,-10.583532)"
       id="g1672" />
    <g
       style="stroke-width:0.99908918"
       transform="matrix(1.0011936,0,0,1.0006298,6.2323064,-6.447041)"
       id="g929">
      <title
         id="title931">Border 92  --  by Arvin61r58</title>
      <g
         style="stroke-width:0.99908918"
         id="g2115">
        <path
           id="path905-1"
           transform="matrix(0.26458333,0,0,0.26458333,0,12.700069)"
           d="m 14.855469,40.007812 c -0.33264,-0.0075 -0.66771,-0.0061 -1.001953,0.0059 -3.208738,0.115086 -6.4618396,1.140011 -9.1777348,3.283203 C -0.68825798,48.001 -0.18737718,59.807554 0.25390625,70.185547 h -0.25 V 86.972656 H 0.10351562 V 116.00391 H 0 V 958.2168 h 0.10351562 v 29.32617 H 0.00390625 v 16.78713 h 0.25 c -0.44128343,10.378 -0.94216423,22.1845 4.42187495,26.8887 2.7158952,2.1431 5.9689968,3.1679 9.1777348,3.2832 5.347897,0.1917 10.574293,-2.1444 13,-6.0489 3.665647,-6.4449 -1.810406,-17.2246 -8.75,-17.2246 -6.121731,0 -10.5905551,8.5501 -6.570313,12.5703 2.049959,2.05 5.889867,1.7612 7.570313,-0.5703 1.955203,-2.7127 3,-2.5148 3,0.5703 0,3.6804 -2.244521,5.4297 -6.972657,5.4297 -7.9077729,-0.3868 -8.8440627,-7.7626 -9.0273434,-15.8418 -0.1832693,-8.0791 0,-16.84926 0,-22.61326 L 6.0527343,957.22852 C 6.3188645,666.06675 5.662747,374.90377 6.1035156,83.742188 c 0,-5.764007 -0.1832693,-14.534126 0,-22.613282 0.1832807,-8.079156 1.1195705,-15.455 9.0273434,-15.841797 4.728136,0 6.972657,1.749297 6.972657,5.429688 0,3.085115 -1.044797,3.282996 -3,0.570312 -1.680446,-2.331515 -5.520354,-2.62029 -7.570313,-0.570312 -4.0202421,4.020246 0.448582,12.570312 6.570313,12.570312 6.939594,0 12.415647,-10.779645 8.75,-17.224609 -2.274101,-3.660502 -7.008444,-5.941773 -11.998047,-6.054688 z"
           style="fill:#000000;stroke-width:0.99908912" />
        <path
           id="path903"
           transform="matrix(0.26458333,0,0,0.26458333,0,12.700069)"
           d="m 19.970703,68.867188 c -0.240382,-0.01661 -0.486114,-0.01546 -0.736328,0.0078 -0.92387,0.08591 -1.916043,0.463527 -2.976563,1.279297 -2.085579,1.80881 -2.152343,2.576019 -2.152343,24.5 0,4.074349 0.0359,7.507105 0.0918,10.544925 v 9.66016 h -0.002 V 959.6582 h 0.002 v 9.65821 c -0.0559,3.03783 -0.0918,6.47059 -0.0918,10.54492 0,21.92397 0.06676,22.69117 2.152343,24.49997 1.06052,0.8158 2.052693,1.1935 2.976563,1.2793 4.00343,0.3723 6.742871,-4.7327 8.394531,-3.3926 1.97921,1.6427 3.138704,0.4832 1.496094,-1.496 -0.78645,-0.94765 -2.946841,-1.52348 -5.712891,-1.52348 -6.01228,0 -7.06307,-0.34201 -7.138671,-6.73633 l -0.07617,-35.0918 h -0.002 V 117.11523 h 0.002 l 0.07617,-35.093746 c 0.0756,-6.394329 1.126391,-6.734375 7.138671,-6.734375 2.76605,0 4.926441,-0.575838 5.712891,-1.523437 1.64261,-1.979229 0.483116,-3.138714 -1.496094,-1.496094 -1.548431,1.256343 -4.052466,-3.151243 -7.658203,-3.40039 z"
           style="fill:#000000;stroke-width:0.99908912" />
      </g>
      <g
         style="stroke-width:0.99908918"
         id="g887">
        <path
           id="path942"
           transform="matrix(0.26458333,0,0,0.26458333,0,12.700069)"
           d="M 108.85352,-0.00390625 V 0.10351562 H 86.478516 V 0.00390625 H 69.691406 V 0.234375 C 59.436679,-0.20031224 47.92695,-0.6015882 43.298828,4.6757812 37.583652,11.918169 39.817196,22.972383 46.064453,26.853516 c 6.444964,3.665646 17.224609,-1.810406 17.224609,-8.75 0,-6.121731 -8.55007,-10.5905548 -12.570312,-6.570313 -2.049978,2.049959 -1.761202,5.889867 0.570312,7.570313 2.712681,1.955202 2.514803,3 -0.570312,3 -3.680394,0 -5.429688,-2.244521 -5.429688,-6.972657 0.386797,-7.9077729 7.762641,-8.8440627 15.841797,-9.0273434 8.079156,-0.1832693 16.849275,0 22.613282,0 h 33.544919 c 170.14148,-0.209469 340.79512,-0.1054687 511.12305,-0.1054687 10.9361,0.2180699 22.41878,0.1054687 33.54492,0.1054687 5.76401,0 14.53413,-0.1832693 22.61328,0 8.07916,0.1832807 15.455,1.1195705 15.8418,9.0273434 0,4.728136 -1.7493,6.972657 -5.42969,6.972657 -3.08511,0 -3.28299,-1.044798 -0.57031,-3 2.33151,-1.680446 2.62029,-5.520354 0.57031,-7.570313 -4.02024,-4.0202418 -12.57031,0.448582 -12.57031,6.570313 0,6.939594 10.77964,12.415646 17.22461,8.75 6.24726,-3.881133 8.4808,-14.935347 2.76562,-22.1777348 C 697.7742,-0.6015882 686.26449,-0.20031224 676.00977,0.234375 V 0.00390625 h -16.78711 v 0.09960937 h -22.37305 v -0.10742187 z"
           style="fill:#000000;stroke-width:0.99908912" />
        <path
           transform="matrix(0.26458333,0,0,0.26458333,0,12.700069)"
           id="path944"
           d="m 94.65625,14.103516 c -21.923977,0 -22.69119,0.06676 -24.5,2.152343 -0.815769,1.060521 -1.193388,2.052691 -1.279297,2.976563 -0.37234,4.00343 4.732678,6.74287 3.392578,8.394531 -1.642616,1.97921 -0.483135,3.138703 1.496094,1.496094 0.947603,-0.786448 1.523437,-2.94684 1.523437,-5.712891 0,-6.012279 0.340046,-7.063081 6.734376,-7.138672 l 35.093752,-0.07617 c 0,-8.67e-4 0,-0.0011 0,-0.002 h 511.46679 c 0,0 0,0.002 0,0.002 l 35.09375,0.07617 c 6.39436,0.07559 6.73438,1.126393 6.73438,7.138672 0,2.766051 0.57583,4.926443 1.52344,5.712891 1.97922,1.642609 3.13871,0.483116 1.49609,-1.496094 -1.34007,-1.651661 3.76494,-4.391101 3.39258,-8.394531 -0.0858,-0.923872 -0.46352,-1.916042 -1.2793,-2.976563 -1.8088,-2.085581 -2.57602,-2.152343 -24.5,-2.152343 -4.07433,0 -7.50709,0.0359 -10.54492,0.0918 h -3.65039 v -0.0039 H 108.85352 v 0.0039 h -3.65235 c -3.03782,-0.0559 -6.47057,-0.0918 -10.54492,-0.0918 z"
           style="fill:#000000;stroke-width:0.999089" />
      </g>
      <g
         style="stroke-width:0.99908918"
         id="g876">
        <g
           style="stroke-width:0.99907893"
           transform="matrix(0.99941031,0,0,1.0006105,-25.665272,-140.64636)"
           id="g927">
          <path
             style="fill:#000000;stroke-width:0.26433963"
             d="m 25.995312,161.30497 c -0.519926,-0.59053 -0.390642,-1.32423 0.366809,-2.08169 0.765841,-0.76584 1.851573,-0.90814 2.798727,-0.3668 0.963091,0.55044 1.914149,1.4908 1.712105,1.69284 -0.104559,0.10456 -0.330997,0.0492 -0.503197,-0.12298 -0.585831,-0.58583 -1.803466,-0.35973 -2.588507,0.48066 -0.811626,0.86885 -1.27956,0.97312 -1.785937,0.39797 z"
             id="path899" />
          <path
             style="fill:#000000;stroke-width:0.26433963"
             d="m 32.543749,160.82422 c 0,-0.37456 -1.342663,-1.7693 -1.703234,-1.7693 -0.12049,0 -0.411631,-0.2104 -0.646981,-0.46756 -0.23535,-0.25716 -1.023222,-0.75696 -1.750826,-1.11067 -1.810255,-0.88002 -2.248958,-1.29472 -2.248958,-2.12593 0,-0.87003 0.73825,-1.5875 1.633472,-1.5875 0.785276,0 1.209832,0.45905 2.079957,2.24896 0.353709,0.7276 0.853511,1.51547 1.110672,1.75082 0.257161,0.23535 0.467565,0.5405 0.467565,0.6781 0,0.35347 1.419824,1.67212 1.800415,1.67212 0.173938,0 0.316252,0.23812 0.316252,0.52916 0,0.35278 -0.176389,0.52917 -0.529167,0.52917 -0.291042,0 -0.529167,-0.15632 -0.529167,-0.34737 z"
             id="path895" />
          <path
             style="fill:#000000;stroke-width:0.26433963"
             d="m 32.128442,157.91072 c -1.396512,-1.68171 -1.543107,-2.91064 -0.474655,-3.97909 0.775857,-0.77586 1.528615,-0.89044 2.099486,-0.31956 0.554925,0.55492 0.469635,0.91159 -0.415774,1.73869 -0.803991,0.75104 -1.100682,2.16032 -0.529166,2.51354 0.318491,0.19684 0.352006,0.66146 0.04771,0.66146 -0.119278,0 -0.4467,-0.27677 -0.727604,-0.61504 z"
             id="path852" />
        </g>
        <path
           style="opacity:1;fill:#000000;fill-opacity:1;stroke:#ffffff;stroke-width:0.19825676;stroke-linecap:round;stroke-linejoin:round;stroke-miterlimit:4;stroke-dasharray:none;stroke-opacity:1"
           d="m 11.906977,23.837987 c 0.178901,-0.48878 0.528742,-0.63664 1.021081,-0.61179 0.23642,0.0119 0.468161,0.17062 0.60697,0.37059 0.13881,0.19997 0.134311,0.62007 0.0484,0.85479 -0.0859,0.23472 -0.43077,0.6017 -0.670679,0.64299 -0.239911,0.0413 -0.51258,-0.0117 -0.68777,-0.17094 -0.175191,-0.15922 -0.294981,-0.34325 -0.323201,-0.58505 -0.0282,-0.24179 -0.0807,-0.26587 0.005,-0.50059 0,0 0,0 0,0 m -0.7676,0.76769 c 0.48878,-0.17889 0.72079,-0.0136 1.085611,0.31795 0.17519,0.15923 0.21224,0.44788 0.17095,0.68778 -0.0413,0.23991 -0.408251,0.58481 -0.642971,0.67072 -0.23472,0.0859 -0.65481,0.0904 -0.85478,-0.0484 -0.19997,-0.13881 -0.35865,-0.37053 -0.37059,-0.60696 -0.0119,-0.23643 0.0307,-0.44876 0.18014,-0.6409 0.14946,-0.19215 0.19692,-0.29431 0.43164,-0.38022 0,0 0,0 0,0 m -1.2295801,-0.002 c 0.4900101,0.1755 0.5929401,0.53073 0.6178001,1.02306 0.0119,0.23643 -0.16896,0.46737 -0.36847,0.60686 -0.1995101,0.13948 -0.6159501,0.13504 -0.8512598,0.0508 -0.23532,-0.0843 -0.6040297,-0.43144 -0.6464797,-0.67114 -0.0425,-0.2397 -0.007,-0.53074 0.16856,-0.68965 0.1754697,-0.15892 0.3408897,-0.29554 0.5825397,-0.32492 0.2416497,-0.0294 0.2619997,-0.0793 0.4973097,0.005 0,0 0,0 0,0 m -0.7598997,-0.75997 c 0.17549,0.49001 0.0454,0.74895 -0.3199497,1.07987 -0.17547,0.15891 -0.4499397,0.21099 -0.6896397,0.16855 -0.2397,-0.0424 -0.5868197,-0.41118 -0.6710997,-0.6465 -0.0843,-0.23531 -0.0887,-0.65175 0.0508,-0.85127 0.13948,-0.19951 0.3704597,-0.38041 0.6068897,-0.36847 0.23642,0.0119 0.4499797,0.0321 0.6416297,0.18217 0.1916397,0.15011 0.2970997,0.20033 0.3813797,0.43565 0,0 0,0 0,0 m -0.002,-1.22958 c -0.1789,0.48877 -0.5288197,0.63662 -1.0211494,0.61176 -0.23643,-0.0119 -0.4681397,-0.17061 -0.6069497,-0.37059 -0.13882,-0.19996 -0.13426,-0.62004 -0.0483,-0.854759 0.0859,-0.23473 0.4308297,-0.60167 0.6707397,-0.64296 0.23991,-0.0413 0.5285797,-0.005 0.6878097,0.17097 0.1592197,0.17519 0.2949397,0.34322 0.3231597,0.58502 0.0282,0.241789 0.0807,0.265839 -0.005,0.500559 0,0 0,0 0,0 m 0.7677597,-0.767539 c -0.4887797,0.17889 -0.7540897,0.0468 -1.0856694,-0.31804 -0.15922,-0.1752 -0.21222,-0.44786 -0.17093,-0.68777 0.0413,-0.2399 0.4082897,-0.58474 0.6430097,-0.67064 0.2347197,-0.0859 0.6548197,-0.0904 0.8547898,0.0485 0.19997,0.13882 0.38253,0.37057 0.37059,0.607 -0.0119,0.23643 -0.0307,0.44873 -0.18014,0.64087 -0.14946,0.19214 -0.19693,0.29426 -0.4316501,0.38016 0,0 0,0 0,0 m 1.2235701,8e-5 c -0.48878,-0.17889 -0.63664,-0.52878 -0.61178,-1.02111 0.0119,-0.23643 0.17062,-0.46815 0.37059,-0.60696 0.19997,-0.13881 0.62006,-0.13428 0.85478,-0.0484 0.23472,0.0859 0.601681,0.4308 0.642981,0.67071 0.0413,0.23991 0.004,0.52856 -0.17096,0.68778 -0.175191,0.15923 -0.343241,0.29497 -0.585041,0.32319 -0.24179,0.0282 -0.26585,0.0807 -0.50057,-0.005 0,0 0,0 0,0 m 0.76761,0.767679 c -0.17889,-0.488779 -0.0468,-0.754069 0.318001,-1.085639 0.1752,-0.15922 0.44786,-0.21223 0.68777,-0.17094 0.23991,0.0413 0.58477,0.40827 0.67068,0.64299 0.0859,0.234719 0.0904,0.654819 -0.0484,0.854789 -0.13881,0.19997 -0.37054,0.35865 -0.60697,0.37059 -0.23643,0.0119 -0.44875,-0.0307 -0.64089,-0.18015 -0.192151,-0.14946 -0.294281,-0.19692 -0.380191,-0.43164 0,0 0,0 0,0"
           id="path9043" />
      </g>
      <g
         style="stroke-width:0.99908918"
         id="g883">
        <g
           id="g1866"
           transform="matrix(-0.99941031,0,0,1.0006105,222.96536,-140.64636)"
           style="stroke-width:0.99907893">
          <path
             id="path1860"
             d="m 25.995312,161.30497 c -0.519926,-0.59053 -0.390642,-1.32423 0.366809,-2.08169 0.765841,-0.76584 1.851573,-0.90814 2.798727,-0.3668 0.963091,0.55044 1.914149,1.4908 1.712105,1.69284 -0.104559,0.10456 -0.330997,0.0492 -0.503197,-0.12298 -0.585831,-0.58583 -1.803466,-0.35973 -2.588507,0.48066 -0.811626,0.86885 -1.27956,0.97312 -1.785937,0.39797 z"
             style="fill:#000000;stroke-width:0.26433963" />
          <path
             id="path1862"
             d="m 32.543749,160.82422 c 0,-0.37456 -1.342663,-1.7693 -1.703234,-1.7693 -0.12049,0 -0.411631,-0.2104 -0.646981,-0.46756 -0.23535,-0.25716 -1.023222,-0.75696 -1.750826,-1.11067 -1.810255,-0.88002 -2.248958,-1.29472 -2.248958,-2.12593 0,-0.87003 0.73825,-1.5875 1.633472,-1.5875 0.785276,0 1.209832,0.45905 2.079957,2.24896 0.353709,0.7276 0.853511,1.51547 1.110672,1.75082 0.257161,0.23535 0.467565,0.5405 0.467565,0.6781 0,0.35347 1.419824,1.67212 1.800415,1.67212 0.173938,0 0.316252,0.23812 0.316252,0.52916 0,0.35278 -0.176389,0.52917 -0.529167,0.52917 -0.291042,0 -0.529167,-0.15632 -0.529167,-0.34737 z"
             style="fill:#000000;stroke-width:0.26433963" />
          <path
             id="path1864"
             d="m 32.128442,157.91072 c -1.396512,-1.68171 -1.543107,-2.91064 -0.474655,-3.97909 0.775857,-0.77586 1.528615,-0.89044 2.099486,-0.31956 0.554925,0.55492 0.469635,0.91159 -0.415774,1.73869 -0.803991,0.75104 -1.100682,2.16032 -0.529166,2.51354 0.318491,0.19684 0.352006,0.66146 0.04771,0.66146 -0.119278,0 -0.4467,-0.27677 -0.727604,-0.61504 z"
             style="fill:#000000;stroke-width:0.26433963" />
        </g>
        <path
           id="path1882"
           d="m 185.39311,23.837987 c -0.1789,-0.48878 -0.52874,-0.63664 -1.02108,-0.61179 -0.23642,0.0119 -0.46816,0.17062 -0.60697,0.37059 -0.13881,0.19997 -0.13431,0.62007 -0.0484,0.85479 0.0859,0.23472 0.43077,0.6017 0.67068,0.64299 0.23991,0.0413 0.51258,-0.0117 0.68777,-0.17094 0.17519,-0.15922 0.29498,-0.34325 0.3232,-0.58505 0.0282,-0.24179 0.0807,-0.26587 -0.005,-0.50059 0,0 0,0 0,0 m 0.7676,0.76769 c -0.48878,-0.17889 -0.72079,-0.0136 -1.08561,0.31795 -0.17519,0.15923 -0.21224,0.44788 -0.17095,0.68778 0.0413,0.23991 0.40825,0.58481 0.64297,0.67072 0.23472,0.0859 0.65481,0.0904 0.85478,-0.0484 0.19997,-0.13881 0.35865,-0.37053 0.37059,-0.60696 0.0119,-0.23643 -0.0307,-0.44876 -0.18014,-0.6409 -0.14946,-0.19215 -0.19692,-0.29431 -0.43164,-0.38022 0,0 0,0 0,0 m 1.22958,-0.002 c -0.49001,0.1755 -0.59294,0.53073 -0.6178,1.02306 -0.0119,0.23643 0.16896,0.46737 0.36847,0.60686 0.19951,0.13948 0.61595,0.13504 0.85126,0.0508 0.23532,-0.0843 0.60403,-0.43144 0.64648,-0.67114 0.0425,-0.2397 0.007,-0.53074 -0.16856,-0.68965 -0.17547,-0.15892 -0.34089,-0.29554 -0.58254,-0.32492 -0.24165,-0.0294 -0.262,-0.0793 -0.49731,0.005 0,0 0,0 0,0 m 0.7599,-0.75997 c -0.17549,0.49001 -0.0454,0.74895 0.31995,1.07987 0.17547,0.15891 0.44994,0.21099 0.68964,0.16855 0.2397,-0.0424 0.58682,-0.41118 0.6711,-0.6465 0.0843,-0.23531 0.0887,-0.65175 -0.0508,-0.85127 -0.13948,-0.19951 -0.37046,-0.38041 -0.60689,-0.36847 -0.23642,0.0119 -0.44998,0.0321 -0.64163,0.18217 -0.19164,0.15011 -0.2971,0.20033 -0.38138,0.43565 0,0 0,0 0,0 m 0.002,-1.22958 c 0.1789,0.48877 0.52882,0.63662 1.02115,0.61176 0.23643,-0.0119 0.46814,-0.17061 0.60695,-0.37059 0.13882,-0.19996 0.13426,-0.62004 0.0483,-0.854759 -0.0859,-0.23473 -0.43083,-0.60167 -0.67074,-0.64296 -0.23991,-0.0413 -0.52858,-0.005 -0.68781,0.17097 -0.15922,0.17519 -0.29494,0.34322 -0.32316,0.58502 -0.0282,0.241789 -0.0807,0.265839 0.005,0.500559 0,0 0,0 0,0 m -0.76776,-0.767539 c 0.48878,0.17889 0.75409,0.0468 1.08567,-0.31804 0.15922,-0.1752 0.21222,-0.44786 0.17093,-0.68777 -0.0413,-0.2399 -0.40829,-0.58474 -0.64301,-0.67064 -0.23472,-0.0859 -0.65482,-0.0904 -0.85479,0.0485 -0.19997,0.13882 -0.38253,0.37057 -0.37059,0.607 0.0119,0.23643 0.0307,0.44873 0.18014,0.64087 0.14946,0.19214 0.19693,0.29426 0.43165,0.38016 0,0 0,0 0,0 m -1.22357,8e-5 c 0.48878,-0.17889 0.63664,-0.52878 0.61178,-1.02111 -0.0119,-0.23643 -0.17062,-0.46815 -0.37059,-0.60696 -0.19997,-0.13881 -0.62006,-0.13428 -0.85478,-0.0484 -0.23472,0.0859 -0.60168,0.4308 -0.64298,0.67071 -0.0413,0.23991 -0.004,0.52856 0.17096,0.68778 0.17519,0.15923 0.34324,0.29497 0.58504,0.32319 0.24179,0.0282 0.26585,0.0807 0.50057,-0.005 0,0 0,0 0,0 m -0.76761,0.767679 c 0.17889,-0.488779 0.0468,-0.754069 -0.318,-1.085639 -0.1752,-0.15922 -0.44786,-0.21223 -0.68777,-0.17094 -0.23991,0.0413 -0.58477,0.40827 -0.67068,0.64299 -0.0859,0.234719 -0.0904,0.654819 0.0484,0.854789 0.13881,0.19997 0.37054,0.35865 0.60697,0.37059 0.23643,0.0119 0.44875,-0.0307 0.64089,-0.18015 0.19215,-0.14946 0.29428,-0.19692 0.38019,-0.43164 0,0 0,0 0,0"
           style="opacity:1;fill:#000000;fill-opacity:1;stroke:#ffffff;stroke-width:0.19825676;stroke-linecap:round;stroke-linejoin:round;stroke-miterlimit:4;stroke-dasharray:none;stroke-opacity:1" />
      </g>
      <g
         style="stroke-width:0.99908918"
         id="g891">
        <path
           style="fill:#000000;stroke-width:0.26434234"
           d="m 28.800827,296.99999 v -0.0284 h -5.920053 v 0.0264 h -4.44159 v -0.061 c -2.71323,0.11501 -5.758512,0.22118 -6.983036,-1.17512 -1.5121402,-1.91622 -0.921182,-4.84098 0.731738,-5.86786 1.70523,-0.96987 4.557345,0.479 4.557345,2.3151 0,1.61971 -2.262206,2.80208 -3.325895,1.7384 -0.54239,-0.54239 -0.465985,-1.55836 0.150895,-2.00298 0.71773,-0.51732 0.665375,-0.79375 -0.150895,-0.79375 -0.973771,0 -1.436605,0.59386 -1.436605,1.84485 0.10234,2.09226 2.053865,2.33999 4.191475,2.38848 2.13761,0.0485 4.458038,0 5.983098,0 h 8.875426 c 45.016599,0.0554 90.16871,0.0279 135.23464,0.0279 2.89351,-0.0577 5.93163,-0.0279 8.87543,-0.0279 1.52506,0 3.84548,0.0485 5.98309,0 2.13761,-0.0485 4.08914,-0.29622 4.19148,-2.38848 0,-1.25099 -0.46284,-1.84485 -1.43661,-1.84485 -0.81627,0 -0.86862,0.27643 -0.15089,0.79375 0.61688,0.44462 0.69328,1.46059 0.15089,2.00298 -1.06369,1.06368 -3.32589,-0.11869 -3.32589,-1.7384 0,-1.8361 2.85211,-3.28497 4.55734,-2.3151 1.65292,1.02688 2.24388,3.95164 0.73174,5.86786 -1.22453,1.3963 -4.26981,1.29013 -6.98303,1.17512 v 0.061 h -4.44159 v -0.0264 h -5.91954 v 0.0284 z"
           id="path2071" />
        <path
           style="fill:#000000;stroke-width:0.26434231"
           d="m 25.044466,293.2674 c -5.800719,0 -6.003711,-0.0177 -6.482292,-0.56948 -0.215839,-0.28059 -0.31575,-0.5431 -0.33848,-0.78754 -0.09851,-1.05924 1.252187,-1.78406 0.897619,-2.22106 -0.434609,-0.52366 -0.127829,-0.83045 0.395842,-0.39584 0.25072,0.20808 0.403076,0.77969 0.403076,1.51154 0,1.59075 0.08997,1.86877 1.781803,1.88877 l 9.285222,0.0202 c 0,2.3e-4 0,2.9e-4 0,5.2e-4 H 166.31284 c 0,0 0,-5.2e-4 0,-5.2e-4 l 9.28522,-0.0202 c 1.69184,-0.02 1.78181,-0.29802 1.78181,-1.88877 0,-0.73185 0.15235,-1.30346 0.40308,-1.51154 0.52366,-0.43461 0.83045,-0.12782 0.39584,0.39584 -0.35456,0.437 0.99614,1.16182 0.89762,2.22106 -0.0227,0.24444 -0.12264,0.50695 -0.33849,0.78754 -0.47857,0.55181 -0.68157,0.56948 -6.48229,0.56948 -1.078,0 -1.98625,-0.01 -2.79001,-0.0243 h -0.96583 v 10e-4 H 28.800827 v -10e-4 h -0.966351 c -0.803757,0.0148 -1.712005,0.0243 -2.79001,0.0243 z"
           id="path2073" />
      </g>
      <g
         style="stroke-width:0.99908918"
         id="g869">
        <g
           id="g2063"
           transform="matrix(0.99941031,0,0,-1.0006105,-25.665272,450.34538)"
           style="stroke-width:0.99907893">
          <path
             id="path2057"
             d="m 25.995312,161.30497 c -0.519926,-0.59053 -0.390642,-1.32423 0.366809,-2.08169 0.765841,-0.76584 1.851573,-0.90814 2.798727,-0.3668 0.963091,0.55044 1.914149,1.4908 1.712105,1.69284 -0.104559,0.10456 -0.330997,0.0492 -0.503197,-0.12298 -0.585831,-0.58583 -1.803466,-0.35973 -2.588507,0.48066 -0.811626,0.86885 -1.27956,0.97312 -1.785937,0.39797 z"
             style="fill:#000000;stroke-width:0.26433963" />
          <path
             id="path2059"
             d="m 32.543749,160.82422 c 0,-0.37456 -1.342663,-1.7693 -1.703234,-1.7693 -0.12049,0 -0.411631,-0.2104 -0.646981,-0.46756 -0.23535,-0.25716 -1.023222,-0.75696 -1.750826,-1.11067 -1.810255,-0.88002 -2.248958,-1.29472 -2.248958,-2.12593 0,-0.87003 0.73825,-1.5875 1.633472,-1.5875 0.785276,0 1.209832,0.45905 2.079957,2.24896 0.353709,0.7276 0.853511,1.51547 1.110672,1.75082 0.257161,0.23535 0.467565,0.5405 0.467565,0.6781 0,0.35347 1.419824,1.67212 1.800415,1.67212 0.173938,0 0.316252,0.23812 0.316252,0.52916 0,0.35278 -0.176389,0.52917 -0.529167,0.52917 -0.291042,0 -0.529167,-0.15632 -0.529167,-0.34737 z"
             style="fill:#000000;stroke-width:0.26433963" />
          <path
             id="path2061"
             d="m 32.128442,157.91072 c -1.396512,-1.68171 -1.543107,-2.91064 -0.474655,-3.97909 0.775857,-0.77586 1.528615,-0.89044 2.099486,-0.31956 0.554925,0.55492 0.469635,0.91159 -0.415774,1.73869 -0.803991,0.75104 -1.100682,2.16032 -0.529166,2.51354 0.318491,0.19684 0.352006,0.66146 0.04771,0.66146 -0.119278,0 -0.4467,-0.27677 -0.727604,-0.61504 z"
             style="fill:#000000;stroke-width:0.26433963" />
        </g>
        <path
           id="path2075"
           d="m 11.906977,285.86104 c 0.178901,0.48878 0.528742,0.63664 1.021081,0.61179 0.23642,-0.0119 0.468161,-0.17062 0.60697,-0.37059 0.13881,-0.19997 0.134311,-0.62007 0.0484,-0.85479 -0.0859,-0.23472 -0.43077,-0.6017 -0.670679,-0.64299 -0.239911,-0.0413 -0.51258,0.0117 -0.68777,0.17094 -0.175191,0.15922 -0.294981,0.34325 -0.323201,0.58505 -0.0282,0.24179 -0.0807,0.26587 0.005,0.50059 0,0 0,0 0,0 m -0.7676,-0.76769 c 0.48878,0.17889 0.72079,0.0136 1.085611,-0.31795 0.17519,-0.15923 0.21224,-0.44788 0.17095,-0.68778 -0.0413,-0.23991 -0.408251,-0.58481 -0.642971,-0.67072 -0.23472,-0.0859 -0.65481,-0.0904 -0.85478,0.0484 -0.19997,0.13881 -0.35865,0.37053 -0.37059,0.60696 -0.0119,0.23643 0.0307,0.44876 0.18014,0.6409 0.14946,0.19215 0.19692,0.29431 0.43164,0.38022 0,0 0,0 0,0 m -1.2295801,0.002 c 0.4900101,-0.1755 0.5929401,-0.53073 0.6178001,-1.02306 0.0119,-0.23643 -0.16896,-0.46737 -0.36847,-0.60686 -0.1995101,-0.13948 -0.6159501,-0.13504 -0.8512598,-0.0508 -0.23532,0.0843 -0.6040297,0.43144 -0.6464797,0.67114 -0.0425,0.2397 -0.007,0.53074 0.16856,0.68965 0.1754697,0.15892 0.3408897,0.29554 0.5825397,0.32492 0.2416497,0.0294 0.2619997,0.0793 0.4973097,-0.005 0,0 0,0 0,0 m -0.7598997,0.75997 c 0.17549,-0.49001 0.0454,-0.74895 -0.3199497,-1.07987 -0.17547,-0.15891 -0.4499397,-0.21099 -0.6896397,-0.16855 -0.2397,0.0424 -0.5868197,0.41118 -0.6710997,0.6465 -0.0843,0.23531 -0.0887,0.65175 0.0508,0.85127 0.13948,0.19951 0.3704597,0.38041 0.6068897,0.36847 0.23642,-0.0119 0.4499797,-0.0321 0.6416297,-0.18217 0.1916397,-0.15011 0.2970997,-0.20033 0.3813797,-0.43565 0,0 0,0 0,0 m -0.002,1.22958 c -0.1789,-0.48877 -0.5288197,-0.63662 -1.0211494,-0.61176 -0.23643,0.0119 -0.4681397,0.17061 -0.6069497,0.37059 -0.13882,0.19996 -0.13426,0.62004 -0.0483,0.85476 0.0859,0.23473 0.4308297,0.60167 0.6707397,0.64296 0.23991,0.0413 0.5285797,0.005 0.6878097,-0.17097 0.1592197,-0.17519 0.2949397,-0.34322 0.3231597,-0.58502 0.0282,-0.24179 0.0807,-0.26584 -0.005,-0.50056 0,0 0,0 0,0 m 0.7677597,0.76754 c -0.4887797,-0.17889 -0.7540897,-0.0468 -1.0856694,0.31804 -0.15922,0.1752 -0.21222,0.44786 -0.17093,0.68777 0.0413,0.2399 0.4082897,0.58474 0.6430097,0.67064 0.2347197,0.0859 0.6548197,0.0904 0.8547898,-0.0485 0.19997,-0.13882 0.38253,-0.37057 0.37059,-0.607 -0.0119,-0.23643 -0.0307,-0.44873 -0.18014,-0.64087 -0.14946,-0.19214 -0.19693,-0.29426 -0.4316501,-0.38016 0,0 0,0 0,0 m 1.2235701,-8e-5 c -0.48878,0.17889 -0.63664,0.52878 -0.61178,1.02111 0.0119,0.23643 0.17062,0.46815 0.37059,0.60696 0.19997,0.13881 0.62006,0.13428 0.85478,0.0484 0.23472,-0.0859 0.601681,-0.4308 0.642981,-0.67071 0.0413,-0.23991 0.004,-0.52856 -0.17096,-0.68778 -0.175191,-0.15923 -0.343241,-0.29497 -0.585041,-0.32319 -0.24179,-0.0282 -0.26585,-0.0807 -0.50057,0.005 0,0 0,0 0,0 m 0.76761,-0.76768 c -0.17889,0.48878 -0.0468,0.75407 0.318001,1.08564 0.1752,0.15922 0.44786,0.21223 0.68777,0.17094 0.23991,-0.0413 0.58477,-0.40827 0.67068,-0.64299 0.0859,-0.23472 0.0904,-0.65482 -0.0484,-0.85479 -0.13881,-0.19997 -0.37054,-0.35865 -0.60697,-0.37059 -0.23643,-0.0119 -0.44875,0.0307 -0.64089,0.18015 -0.192151,0.14946 -0.294281,0.19692 -0.380191,0.43164 0,0 0,0 0,0"
           style="opacity:1;fill:#000000;fill-opacity:1;stroke:#ffffff;stroke-width:0.19825676;stroke-linecap:round;stroke-linejoin:round;stroke-miterlimit:4;stroke-dasharray:none;stroke-opacity:1" />
      </g>
      <g
         style="stroke-width:0.99908918"
         id="g862">
        <g
           style="stroke-width:0.99907893"
           transform="matrix(-0.99941031,0,0,-1.0006105,222.96536,450.34538)"
           id="g2083">
          <path
             style="fill:#000000;stroke-width:0.26433963"
             d="m 25.995312,161.30497 c -0.519926,-0.59053 -0.390642,-1.32423 0.366809,-2.08169 0.765841,-0.76584 1.851573,-0.90814 2.798727,-0.3668 0.963091,0.55044 1.914149,1.4908 1.712105,1.69284 -0.104559,0.10456 -0.330997,0.0492 -0.503197,-0.12298 -0.585831,-0.58583 -1.803466,-0.35973 -2.588507,0.48066 -0.811626,0.86885 -1.27956,0.97312 -1.785937,0.39797 z"
             id="path2077" />
          <path
             style="fill:#000000;stroke-width:0.26433963"
             d="m 32.543749,160.82422 c 0,-0.37456 -1.342663,-1.7693 -1.703234,-1.7693 -0.12049,0 -0.411631,-0.2104 -0.646981,-0.46756 -0.23535,-0.25716 -1.023222,-0.75696 -1.750826,-1.11067 -1.810255,-0.88002 -2.248958,-1.29472 -2.248958,-2.12593 0,-0.87003 0.73825,-1.5875 1.633472,-1.5875 0.785276,0 1.209832,0.45905 2.079957,2.24896 0.353709,0.7276 0.853511,1.51547 1.110672,1.75082 0.257161,0.23535 0.467565,0.5405 0.467565,0.6781 0,0.35347 1.419824,1.67212 1.800415,1.67212 0.173938,0 0.316252,0.23812 0.316252,0.52916 0,0.35278 -0.176389,0.52917 -0.529167,0.52917 -0.291042,0 -0.529167,-0.15632 -0.529167,-0.34737 z"
             id="path2079" />
          <path
             style="fill:#000000;stroke-width:0.26433963"
             d="m 32.128442,157.91072 c -1.396512,-1.68171 -1.543107,-2.91064 -0.474655,-3.97909 0.775857,-0.77586 1.528615,-0.89044 2.099486,-0.31956 0.554925,0.55492 0.469635,0.91159 -0.415774,1.73869 -0.803991,0.75104 -1.100682,2.16032 -0.529166,2.51354 0.318491,0.19684 0.352006,0.66146 0.04771,0.66146 -0.119278,0 -0.4467,-0.27677 -0.727604,-0.61504 z"
             id="path2081" />
        </g>
        <path
           style="opacity:1;fill:#000000;fill-opacity:1;stroke:#ffffff;stroke-width:0.19825676;stroke-linecap:round;stroke-linejoin:round;stroke-miterlimit:4;stroke-dasharray:none;stroke-opacity:1"
           d="m 185.39311,285.86104 c -0.1789,0.48878 -0.52874,0.63664 -1.02108,0.61179 -0.23642,-0.0119 -0.46816,-0.17062 -0.60697,-0.37059 -0.13881,-0.19997 -0.13431,-0.62007 -0.0484,-0.85479 0.0859,-0.23472 0.43077,-0.6017 0.67068,-0.64299 0.23991,-0.0413 0.51258,0.0117 0.68777,0.17094 0.17519,0.15922 0.29498,0.34325 0.3232,0.58505 0.0282,0.24179 0.0807,0.26587 -0.005,0.50059 0,0 0,0 0,0 m 0.7676,-0.76769 c -0.48878,0.17889 -0.72079,0.0136 -1.08561,-0.31795 -0.17519,-0.15923 -0.21224,-0.44788 -0.17095,-0.68778 0.0413,-0.23991 0.40825,-0.58481 0.64297,-0.67072 0.23472,-0.0859 0.65481,-0.0904 0.85478,0.0484 0.19997,0.13881 0.35865,0.37053 0.37059,0.60696 0.0119,0.23643 -0.0307,0.44876 -0.18014,0.6409 -0.14946,0.19215 -0.19692,0.29431 -0.43164,0.38022 0,0 0,0 0,0 m 1.22958,0.002 c -0.49001,-0.1755 -0.59294,-0.53073 -0.6178,-1.02306 -0.0119,-0.23643 0.16896,-0.46737 0.36847,-0.60686 0.19951,-0.13948 0.61595,-0.13504 0.85126,-0.0508 0.23532,0.0843 0.60403,0.43144 0.64648,0.67114 0.0425,0.2397 0.007,0.53074 -0.16856,0.68965 -0.17547,0.15892 -0.34089,0.29554 -0.58254,0.32492 -0.24165,0.0294 -0.262,0.0793 -0.49731,-0.005 0,0 0,0 0,0 m 0.7599,0.75997 c -0.17549,-0.49001 -0.0454,-0.74895 0.31995,-1.07987 0.17547,-0.15891 0.44994,-0.21099 0.68964,-0.16855 0.2397,0.0424 0.58682,0.41118 0.6711,0.6465 0.0843,0.23531 0.0887,0.65175 -0.0508,0.85127 -0.13948,0.19951 -0.37046,0.38041 -0.60689,0.36847 -0.23642,-0.0119 -0.44998,-0.0321 -0.64163,-0.18217 -0.19164,-0.15011 -0.2971,-0.20033 -0.38138,-0.43565 0,0 0,0 0,0 m 0.002,1.22958 c 0.1789,-0.48877 0.52882,-0.63662 1.02115,-0.61176 0.23643,0.0119 0.46814,0.17061 0.60695,0.37059 0.13882,0.19996 0.13426,0.62004 0.0483,0.85476 -0.0859,0.23473 -0.43083,0.60167 -0.67074,0.64296 -0.23991,0.0413 -0.52858,0.005 -0.68781,-0.17097 -0.15922,-0.17519 -0.29494,-0.34322 -0.32316,-0.58502 -0.0282,-0.24179 -0.0807,-0.26584 0.005,-0.50056 0,0 0,0 0,0 m -0.76776,0.76754 c 0.48878,-0.17889 0.75409,-0.0468 1.08567,0.31804 0.15922,0.1752 0.21222,0.44786 0.17093,0.68777 -0.0413,0.2399 -0.40829,0.58474 -0.64301,0.67064 -0.23472,0.0859 -0.65482,0.0904 -0.85479,-0.0485 -0.19997,-0.13882 -0.38253,-0.37057 -0.37059,-0.607 0.0119,-0.23643 0.0307,-0.44873 0.18014,-0.64087 0.14946,-0.19214 0.19693,-0.29426 0.43165,-0.38016 0,0 0,0 0,0 m -1.22357,-8e-5 c 0.48878,0.17889 0.63664,0.52878 0.61178,1.02111 -0.0119,0.23643 -0.17062,0.46815 -0.37059,0.60696 -0.19997,0.13881 -0.62006,0.13428 -0.85478,0.0484 -0.23472,-0.0859 -0.60168,-0.4308 -0.64298,-0.67071 -0.0413,-0.23991 -0.004,-0.52856 0.17096,-0.68778 0.17519,-0.15923 0.34324,-0.29497 0.58504,-0.32319 0.24179,-0.0282 0.26585,-0.0807 0.50057,0.005 0,0 0,0 0,0 m -0.76761,-0.76768 c 0.17889,0.48878 0.0468,0.75407 -0.318,1.08564 -0.1752,0.15922 -0.44786,0.21223 -0.68777,0.17094 -0.23991,-0.0413 -0.58477,-0.40827 -0.67068,-0.64299 -0.0859,-0.23472 -0.0904,-0.65482 0.0484,-0.85479 0.13881,-0.19997 0.37054,-0.35865 0.60697,-0.37059 0.23643,-0.0119 0.44875,0.0307 0.64089,0.18015 0.19215,0.14946 0.29428,0.19692 0.38019,0.43164 0,0 0,0 0,0"
           id="path2091" />
      </g>
      <g
         style="stroke-width:0.99908918"
         id="g2121"
         transform="matrix(-1,0,0,1,197.29989,0)">
        <path
           style="fill:#000000;stroke-width:0.99908912"
           d="m 14.855469,40.007812 c -0.33264,-0.0075 -0.66771,-0.0061 -1.001953,0.0059 -3.208738,0.115086 -6.4618396,1.140011 -9.1777348,3.283203 C -0.68825798,48.001 -0.18737718,59.807554 0.25390625,70.185547 h -0.25 V 86.972656 H 0.10351562 V 116.00391 H 0 V 958.2168 h 0.10351562 v 29.32617 H 0.00390625 v 16.78713 h 0.25 c -0.44128343,10.378 -0.94216423,22.1845 4.42187495,26.8887 2.7158952,2.1431 5.9689968,3.1679 9.1777348,3.2832 5.347897,0.1917 10.574293,-2.1444 13,-6.0489 3.665647,-6.4449 -1.810406,-17.2246 -8.75,-17.2246 -6.121731,0 -10.5905551,8.5501 -6.570313,12.5703 2.049959,2.05 5.889867,1.7612 7.570313,-0.5703 1.955203,-2.7127 3,-2.5148 3,0.5703 0,3.6804 -2.244521,5.4297 -6.972657,5.4297 -7.9077729,-0.3868 -8.8440627,-7.7626 -9.0273434,-15.8418 -0.1832693,-8.0791 0,-16.84926 0,-22.61326 L 6.0527343,957.22852 C 6.3188645,666.06675 5.662747,374.90377 6.1035156,83.742188 c 0,-5.764007 -0.1832693,-14.534126 0,-22.613282 0.1832807,-8.079156 1.1195705,-15.455 9.0273434,-15.841797 4.728136,0 6.972657,1.749297 6.972657,5.429688 0,3.085115 -1.044797,3.282996 -3,0.570312 -1.680446,-2.331515 -5.520354,-2.62029 -7.570313,-0.570312 -4.0202421,4.020246 0.448582,12.570312 6.570313,12.570312 6.939594,0 12.415647,-10.779645 8.75,-17.224609 -2.274101,-3.660502 -7.008444,-5.941773 -11.998047,-6.054688 z"
           transform="matrix(0.26458333,0,0,0.26458333,0,12.700069)"
           id="path2117" />
        <path
           style="fill:#000000;stroke-width:0.99908912"
           d="m 19.970703,68.867188 c -0.240382,-0.01661 -0.486114,-0.01546 -0.736328,0.0078 -0.92387,0.08591 -1.916043,0.463527 -2.976563,1.279297 -2.085579,1.80881 -2.152343,2.576019 -2.152343,24.5 0,4.074349 0.0359,7.507105 0.0918,10.544925 v 9.66016 h -0.002 V 959.6582 h 0.002 v 9.65821 c -0.0559,3.03783 -0.0918,6.47059 -0.0918,10.54492 0,21.92397 0.06676,22.69117 2.152343,24.49997 1.06052,0.8158 2.052693,1.1935 2.976563,1.2793 4.00343,0.3723 6.742871,-4.7327 8.394531,-3.3926 1.97921,1.6427 3.138704,0.4832 1.496094,-1.496 -0.78645,-0.94765 -2.946841,-1.52348 -5.712891,-1.52348 -6.01228,0 -7.06307,-0.34201 -7.138671,-6.73633 l -0.07617,-35.0918 h -0.002 V 117.11523 h 0.002 l 0.07617,-35.093746 c 0.0756,-6.394329 1.126391,-6.734375 7.138671,-6.734375 2.76605,0 4.926441,-0.575838 5.712891,-1.523437 1.64261,-1.979229 0.483116,-3.138714 -1.496094,-1.496094 -1.548431,1.256343 -4.052466,-3.151243 -7.658203,-3.40039 z"
           transform="matrix(0.26458333,0,0,0.26458333,0,12.700069)"
           id="path2119" />
      </g>
    </g>
  </g>
</svg>
