<?xml version="1.0" encoding="UTF-8" standalone="no"?>
<!-- Created with Inkscape (https://www.inkscape.org/) -->
<!-- ClipArt by Arvin61r58 (https://openclipart.org/user-detail/Arvin61r58) -->
<svg
   xmlns:dc="http://purl.org/dc/elements/1.1/"
   xmlns:cc="http://creativecommons.org/ns#"
   xmlns:rdf="http://www.w3.org/1999/02/22-rdf-syntax-ns#"
   xmlns:svg="http://www.w3.org/2000/svg"
   xmlns="http://www.w3.org/2000/svg"
   width="793.70081"
   height="1122.5197"
   viewBox="0 0 210 297"
   version="1.1"
   id="svg5021">
  <title
     id="title818">Border 100 (A4 size)</title>
  <defs
     id="defs5015" />
  <metadata
     id="metadata5018">
    <rdf:RDF>
      <cc:Work
         rdf:about="">
        <dc:format>image/svg+xml</dc:format>
        <dc:type
           rdf:resource="http://purl.org/dc/dcmitype/StillImage" />
        <dc:title>Border 100 (A4 size)</dc:title>
        <cc:license
           rdf:resource="http://creativecommons.org/publicdomain/zero/1.0/" />
        <dc:subject>
          <rdf:Bag>
            <rdf:li>A4</rdf:li>
            <rdf:li>Abstract</rdf:li>
            <rdf:li>border</rdf:li>
            <rdf:li>DTP</rdf:li>
            <rdf:li>frame</rdf:li>
            <rdf:li>page</rdf:li>
            <rdf:li>zigzag</rdf:li>
          </rdf:Bag>
        </dc:subject>
        <dc:creator>
          <cc:Agent>
            <dc:title>Arvin61r58</dc:title>
          </cc:Agent>
        </dc:creator>
        <dc:publisher>
          <cc:Agent>
            <dc:title>Openclipart.org</dc:title>
          </cc:Agent>
        </dc:publisher>
        <dc:identifier>https://openclipart.org/</dc:identifier>
        <dc:source>https://openclipart.org/user-detail/Arvin61r58</dc:source>
        <dc:description>Abstract zigzag page frame/border sized for A4 (210x297mm) paper</dc:description>
      </cc:Work>
      <cc:License
         rdf:about="http://creativecommons.org/publicdomain/zero/1.0/">
        <cc:permits
           rdf:resource="http://creativecommons.org/ns#Reproduction" />
        <cc:permits
           rdf:resource="http://creativecommons.org/ns#Distribution" />
        <cc:permits
           rdf:resource="http://creativecommons.org/ns#DerivativeWorks" />
      </cc:License>
    </rdf:RDF>
  </metadata>
  <g
     transform="translate(-0.29487749,0.2077788)"
     id="layer1">
    <title
       id="title1413">Border 100  --  by Arvin61r58</title>
    <path
       style="fill:#000000;stroke-width:3.77952719"
       d="m 82.244141,22.876953 -0.910157,2.753906 -0.908203,2.753907 -5.878906,19.529296 -5.880859,19.527344 -0.826172,0.953125 -0.824219,0.951172 v 0.458985 l -3.300781,2.970703 -7.953125,7.615234 v 0.771484 0.769532 l 8.583984,8.013671 8.583985,8.011719 -14.09961,13.025389 -14.101562,13.02539 v 1.83203 1.83204 l 2.267578,1.38671 2.267578,1.38672 7.882812,7.19141 7.88086,7.19336 -0.369141,0.18945 -0.371094,0.1875 -8.52539,3.85352 -8.525391,3.85156 -3.259766,1.17773 -3.259765,1.17578 v 0.70899 0.70898 l 2.757812,0.98047 2.759766,0.98047 4.011719,1.07031 4.011718,1.07032 2.00586,0.81836 2.005859,0.82031 14.931641,4.72851 14.929687,4.72657 6.382813,1.03906 6.382808,1.03711 v 0.61133 0.61132 l -3.259761,1.25391 -3.259766,1.25195 -16.046875,7.34961 -16.048828,7.34766 -4.017578,1.07031 -4.019531,1.06836 -1.84961,1.26172 -1.847656,1.26172 0.636719,0.96289 0.636718,0.96289 3.726563,0.53125 3.726563,0.5332 3.509765,0.97071 3.509766,0.96875 2.005859,0.79687 2.00586,0.79688 6.269531,1.20703 6.269531,1.20703 v 0.52734 0.52735 l -8.777344,2.22461 -8.77539,2.22265 -1.75586,0.83399 -1.755859,0.83398 v 0.92383 0.92383 l 2.257812,0.83398 2.25586,0.83399 8.777343,1.16992 8.775391,1.16797 v 0.66406 0.66211 l -4.763672,1.13672 -4.763672,1.13672 -2.257812,0.83789 -2.255859,0.83789 v 0.97656 0.97656 l 2.255859,0.82813 2.257812,0.82812 7.521485,1.96289 7.523437,1.96289 1.753907,-0.002 1.755859,-0.004 v 0.77149 0.77344 l -20.064453,9.15429 -20.066406,9.15625 -0.636719,0.96289 -0.636719,0.96289 1.896484,1.04688 1.894532,1.04687 4.513672,0.76953 4.513671,0.76954 7.021485,0.47265 7.021484,0.47461 0.953125,0.86328 0.951172,0.86328 H 77.71875 75.203125 l -1.910156,1.30274 -1.908203,1.30273 1.248046,1.4043 1.248047,1.4043 2.726563,0.51172 2.724609,0.51367 4.011719,0.83398 4.013672,0.83594 3.208984,1.5625 3.208985,1.5625 h 2.5 2.498047 l 0.61914,0.9375 0.619142,0.93555 h -4.205079 -4.205079 l -3.626953,0.85547 -3.626953,0.85546 -5.015625,0.92578 -5.013672,0.92774 -6.019531,1.12695 -6.017578,1.12696 -2.757812,0.94921 -2.757813,0.94922 v 0.66602 0.66601 l 6.769531,1.64844 6.769532,1.64844 2.748046,0.48437 2.748047,0.48633 -0.548828,0.83203 -0.550781,0.83008 -4.705078,0.008 -4.705078,0.008 -3.511719,0.83984 -3.509766,0.83984 -2.757812,0.57618 -2.757813,0.57812 v 1.2793 1.27929 l 3.509766,1.55469 3.509766,1.55469 v 1.85938 1.85742 l 1.505859,0.53906 1.503906,0.53906 -0.02148,1.07031 -0.02344,1.07032 -1.960937,2.33984 -1.960938,2.33984 -0.02344,1.5 -0.02148,1.5 -2.86914,2.71289 -2.869141,2.71485 -3.148437,2.49023 -3.150391,2.49024 v 1.35156 1.34961 l 6.771484,4.13086 6.769532,4.13086 3.009765,1.35937 3.007813,1.35938 0.445312,0.28906 0.44336,0.28906 -5.896485,5.5625 -5.894531,5.56055 1.689453,1.74414 1.691406,1.74414 v 0.67578 0.67578 l 5.767578,10.73047 5.765626,10.73047 1.673828,3.08789 1.673828,3.08789 1.585937,1.22852 1.585938,1.22851 v 0.74805 0.74609 l -2.939453,0.60352 -2.939454,0.60156 -1.195312,1.34571 -1.195312,1.34375 1.048828,1.17773 1.046875,1.17969 4.84375,1.24414 4.841797,1.24414 2.908203,0.85351 2.90625,0.85352 h 2.359375 2.357422 v 0.83203 0.83008 l -6.769532,0.55859 -6.771484,0.5586 -4.22461,0.57812 -4.224609,0.57813 -1.226562,1.38086 -1.228516,1.38086 1.441406,0.87304 1.439453,0.87305 2.507813,0.55664 2.507812,0.55664 2.757813,1.06836 2.757812,1.06836 v 0.70703 0.70703 h -2.851562 -2.851563 l -5.925781,1.87305 -5.923828,1.87305 -2.255859,1.09375 -2.257813,1.09375 v 0.60742 0.60547 l 19.056641,8.79492 19.058593,8.79492 v 0.52539 0.52734 l -6.49414,1.14844 -6.492188,1.15039 h -4.867187 -4.867188 l -2.43164,2.46875 -2.431641,2.46875 1.003906,0.35547 1.001954,0.35547 1.382812,0.81641 1.382812,0.8164 -0.679687,1.02735 -0.681641,1.02734 -19.505859,9.14062 -19.505859,9.14258 -0.002,0.59961 -0.002,0.59766 4.476563,1.96484 4.478516,1.96485 6.554687,1.16015 6.556641,1.16211 v 0.69531 0.69727 l -5.767578,1.53516 -5.767579,1.5332 -0.910156,0.79297 -0.910156,0.79297 1.199219,1.34961 1.199218,1.34961 4.22461,0.61328 4.224609,0.61523 6.267578,0.49609 6.269531,0.4961 v 0.66406 0.66211 l -6.269531,1.21289 -6.267578,1.21094 -5.265625,1.89844 -5.265625,1.90039 v 0.71289 0.71484 l 2.757813,0.94141 2.757812,0.9414 4.513672,1.1543 4.513672,1.1543 5.96289,1.76367 5.960938,1.76172 h 3.148438 3.148437 l 0.707031,0.66015 0.707032,0.66016 -4.802735,1.48047 -4.802734,1.48047 -17.552735,8.09961 -17.550781,8.09961 -3.259765,1.10742 -3.259766,1.10937 v 0.70899 0.70898 l 2.757812,0.90625 2.757813,0.90821 19.558594,5.87109 19.558593,5.87109 0.953125,0.82422 0.953125,0.82031 h 0.457032 l -7.951172,7.61524 -7.953125,7.61523 v 0.76953 0.77149 l 8.583984,8.01172 8.583985,8.01172 -14.09961,13.02539 -14.101562,13.02539 v 1.83398 1.83203 l 2.267578,1.38672 2.267578,1.38672 7.882812,7.19141 7.88086,7.1914 -0.369141,0.18946 -0.371094,0.18945 -8.52539,3.85156 -8.525391,3.85352 -3.259766,1.17578 -3.259765,1.17773 v 0.70899 0.70703 l 2.757812,0.98047 2.759766,0.98242 4.011719,1.07031 4.011718,1.07031 2.00586,0.81836 2.005859,0.81836 14.931641,4.72852 14.929687,4.72851 6.382813,1.03711 6.382807,1.03711 v 0.61133 0.61328 l -3.25976,1.25196 -3.259766,1.2539 -16.046875,7.34766 -16.048828,7.34961 -4.017578,1.06836 -4.019531,1.06836 -1.847657,1.26367 -1.849609,1.26172 0.636719,0.96289 0.636718,0.96093 3.726563,0.53321 3.726563,0.53125 3.509765,0.9707 3.509766,0.9707 2.005859,0.79688 2.00586,0.79492 6.269531,1.20703 6.269531,1.20899 v 0.52734 0.52734 l -8.777344,2.22266 -8.77539,2.22461 -1.75586,0.83398 -1.755859,0.83399 v 0.92187 0.92383 l 2.257812,0.83399 2.25586,0.83593 8.777343,1.16797 8.775391,1.16797 v 0.66406 0.66407 l -4.763672,1.13671 -4.763672,1.13672 -2.257812,0.83594 -2.255859,0.83789 v 0.97656 0.97657 l 2.255859,0.82812 2.257812,0.83008 7.521485,1.96289 7.523437,1.96289 1.753907,-0.004 1.755859,-0.002 v 0.77149 0.77148 l -20.064453,9.15625 -20.066406,9.15625 -0.636719,0.96289 -0.636719,0.96094 1.896484,1.04687 1.894532,1.04688 4.513672,0.76953 4.513671,0.76953 7.021485,0.47461 7.021484,0.47266 0.953125,0.86328 0.951172,0.86523 H 77.71875 75.203125 l -1.910156,1.30274 -1.908203,1.30273 1.248046,1.4043 1.248047,1.40234 2.726563,0.51367 2.724609,0.51172 4.011719,0.83594 4.013672,0.83594 3.208984,1.5625 3.210938,1.5625 h 2.498047 2.498047 l 0.61914,0.93554 0.619142,0.9375 h -4.205079 -4.205079 l -3.626953,0.85352 -3.626953,0.85547 -5.015625,0.92773 -5.013672,0.92774 -6.019531,1.12695 -6.017578,1.125 -2.757812,0.94922 -2.757813,0.95117 v 0.66602 0.66601 l 6.769531,1.64844 6.769532,1.64648 2.748046,0.48633 2.748047,0.48633 -0.548828,0.83008 -0.550781,0.83203 -4.705078,0.008 -4.705078,0.008 -3.511719,0.83984 -3.509766,0.83984 -2.757812,0.57617 -2.757813,0.57813 v 1.2793 1.27929 l 3.509766,1.55469 3.509766,1.55469 v 1.85937 1.85742 l 1.505859,0.53907 1.503906,0.53906 -0.02148,1.07031 -0.02344,1.07032 -1.960937,2.33984 -1.960938,2.33984 -0.02344,1.5 -0.02148,1.5 -2.86914,2.71289 -2.869141,2.71485 -3.148437,2.49023 -3.150391,2.49024 v 1.34961 1.35156 l 6.771484,4.13086 6.769532,4.13086 3.009765,1.35937 3.007813,1.35938 0.445312,0.28906 0.44336,0.28906 -5.896485,5.5625 -5.894531,5.56055 1.689453,1.74414 1.691406,1.74414 v 0.67578 0.67578 l 5.767578,10.73047 5.765626,10.73047 1.673828,3.08789 1.673828,3.08789 1.585937,1.22852 1.585938,1.22851 v 0.74805 0.74609 l -2.939453,0.60352 -2.939454,0.60156 -1.195312,1.3457 -1.195312,1.34375 1.048828,1.17774 1.046875,1.17969 4.84375,1.24414 4.841797,1.24414 2.908203,0.85351 2.908203,0.85352 h 2.357422 2.357422 v 0.83203 0.83008 l -6.769532,0.55859 -6.771484,0.5586 -4.22461,0.57812 -4.222656,0.57812 -1.228515,1.38086 -1.228516,1.38086 1.441406,0.87305 1.439453,0.87305 2.507813,0.55664 2.507812,0.55664 2.757813,1.06836 2.757812,1.06836 v 0.70703 0.70703 h -2.851562 -2.851563 l -5.925781,1.87305 -5.923828,1.87304 -2.255859,1.09375 -2.257813,1.09375 v 0.60743 0.60546 l 19.056641,8.79493 19.058593,8.79492 v 0.52539 0.52734 l -6.49414,1.14844 -6.492188,1.15039 h -4.867187 -4.867188 l -2.43164,2.46875 -2.431641,2.46875 1.003906,0.35547 1.003907,0.35547 1.380859,0.8164 1.382812,0.81641 -0.679687,1.02734 -0.679687,1.02735 -19.507813,9.14062 -19.505859,9.14258 -0.002,0.59961 -0.002,0.59961 4.476563,1.96289 4.478516,1.96484 6.554687,1.16211 6.556641,1.16016 v 0.69727 0.69531 l -5.767578,1.53515 -5.767579,1.53321 -0.910156,0.79297 -0.910156,0.79296 1.199219,1.34961 1.199218,1.34961 4.22461,0.61524 4.224609,0.61328 6.267578,0.49609 6.269531,0.4961 v 0.66406 0.66406 l -6.269531,1.21094 -6.267578,1.21094 -5.265625,1.90039 -5.265625,1.89844 v 0.71289 0.71484 l 2.757813,0.94141 2.757812,0.9414 4.513672,1.1543 4.513672,1.15625 5.96289,1.76172 5.960938,1.76172 h 3.148438 3.148437 l 0.707031,0.66015 0.707032,0.66016 -4.802735,1.48047 -4.802734,1.48047 -17.550781,8.09961 -17.552735,8.10156 -3.259765,1.10742 -3.259766,1.10742 v 0.70899 0.70898 l 2.757812,0.90625 2.757813,0.9082 19.558594,5.87115 19.558593,5.8711 c 0.64259,0.628 1.468363,1.1828 2.131836,1.6445 -5.144773,5.157 -10.412529,10.1865 -15.672851,15.2246 v 0.7715 0.7695 c 5.72207,5.3417 11.444039,10.6836 17.166015,16.0254 l -14.099609,13.0254 20.138672,23.3437 h 1.835937 1.833985 l 1.390625,-2.2637 1.388672,-2.2636 7.203125,-7.8692 7.201171,-7.8691 0.191407,0.3691 0.18945,0.3692 3.85742,8.5117 3.85743,8.5137 1.17968,3.2539 1.17774,3.2539 h 0.71094 0.70898 l 0.98242,-2.7539 0.98242,-2.7539 1.07227,-4.0059 1.07226,-4.0059 0.82032,-2.0019 0.82031,-2.0039 4.73437,-14.9082 4.73633,-14.9063 1.03906,-6.373 1.03907,-6.3731 h 0.61133 0.61328 l 1.2539,3.254 1.25586,3.2558 7.35938,16.0234 7.36133,16.0215 1.07031,4.0137 1.07031,4.0117 1.26367,1.8457 1.26367,1.8477 0.96485,-0.6367 0.96289,-0.6368 0.5332,-3.7207 0.53321,-3.7187 0.97265,-3.5059 0.9707,-3.5058 0.79883,-2.002 0.79688,-2.0039 1.20898,-6.2578 1.20899,-6.2598 h 0.52929 0.52735 l 2.22656,8.7637 2.22851,8.7617 0.83399,1.7539 0.83594,1.752 h 0.92383 0.92578 l 0.83593,-2.2539 0.83594,-2.2539 1.16992,-8.7617 1.16993,-8.7637 h 0.66601 0.66406 l 1.13672,4.7578 1.13867,4.7559 0.83985,2.2539 0.83789,2.2539 h 0.97851 0.97852 l 0.82812,-2.2539 0.83008,-2.2539 1.9668,-7.5098 1.9668,-7.5117 -0.004,-1.752 -0.002,-1.7519 h 0.77148 0.77344 l 9.16992,20.0332 9.16992,20.0351 0.96485,0.6367 0.96289,0.6348 1.04883,-1.8926 1.04882,-1.8926 0.77149,-4.5078 0.76953,-4.5058 0.47461,-7.0098 0.47461,-7.0098 0.86523,-0.9531 0.86524,-0.9511 v 2.5136 2.5117 l 1.30468,1.9063 1.30469,1.9062 1.40625,-1.2461 1.40625,-1.246 0.51172,-2.7227 0.51367,-2.7207 0.83789,-4.0059 0.83594,-4.0058 1.56641,-3.2051 1.56445,-3.2051 v -2.4941 -2.4942 l 0.9375,-0.6191 0.9375,-0.6191 v 4.1992 4.1992 l 0.85547,3.6211 0.85742,3.6211 0.92773,5.0078 0.92969,5.0059 1.12891,6.0097 1.12695,6.0078 0.95117,2.7539 0.95118,2.7559 h 0.66796 0.66602 l 1.65039,-6.7598 1.65039,-6.7617 0.48633,-2.7422 0.48633,-2.7441 0.83398,0.5488 0.83203,0.5508 0.008,4.6973 0.006,4.6972 0.8418,3.5059 0.8418,3.5039 0.57812,2.7539 0.57813,2.7539 h 1.28125 1.28125 l 1.55664,-3.5039 1.55859,-3.5059 h 1.86133 1.85938 l 0.54101,-1.5019 0.53906,-1.502 1.07227,0.023 1.07031,0.022 2.3457,1.9589 2.34376,1.959 1.50195,0.021 1.50195,0.023 2.7168,2.8633 2.71875,2.8653 2.49414,3.1445 2.49414,3.1445 h 1.35351 1.35352 l 4.13672,-6.7597 4.13672,-6.7598 1.36133,-3.0039 1.36132,-3.0059 0.28907,-0.4433 0.29101,-0.4434 5.57031,5.8867 5.56836,5.8867 1.74805,-1.6875 1.74609,-1.6875 h 0.67579 0.67773 l 10.74609,-5.7578 10.74805,-5.7597 3.0918,-1.67 3.0918,-1.6699 1.23046,-1.5859 1.23243,-1.584 h 0.74804 0.74805 l 0.60352,2.9355 0.60351,2.9356 1.3457,1.1934 1.34766,1.1933 1.17969,-1.0469 1.17968,-1.0449 1.24805,-4.8359 1.2461,-4.834 0.85546,-2.9043 0.85352,-2.9023 v -2.3555 -2.3535 h 0.83203 0.83203 l 0.5586,6.7597 0.56054,6.7598 0.57813,4.2188 0.58008,4.2167 1.38281,1.2266 1.38281,1.2246 0.875,-1.4375 0.875,-1.4375 0.55664,-2.5039 0.55664,-2.5039 1.07032,-2.7539 1.07031,-2.7539 h 0.70898 0.70899 v 2.8477 2.8476 l 1.875,5.916 1.87695,5.9141 1.0957,2.2539 1.09375,2.2539 h 0.60742 0.60743 L 378.25,1046 l 8.80859,-19.0273 h 0.52735 0.52539 l 1.15234,6.4843 1.15039,6.4825 v 4.8593 4.8594 l 2.47266,2.4277 2.47461,2.4278 0.35547,-1.002 0.35547,-1.0019 0.8164,-1.3789 0.81836,-1.3809 1.0293,0.6797 1.02734,0.6777 9.15625,19.4766 9.15625,19.4765 h 0.60156 0.59961 l 1.9668,-4.4707 1.9668,-4.4688 1.16406,-6.5469 1.16211,-6.5449 h 0.69727 0.69726 l 1.53711,5.7578 1.53711,5.7578 0.79297,0.9102 0.79492,0.9082 1.35156,-1.1973 1.35157,-1.1972 0.61523,-4.2188 0.61523,-4.2168 0.49805,-6.2598 0.49609,-6.2597 h 0.66407 0.66406 l 1.21484,6.2597 1.21289,6.2598 1.90235,5.2578 1.90039,5.2578 h 0.71484 0.7168 l 0.9414,-2.7558 0.94336,-2.7539 1.15625,-4.5059 1.15821,-4.5059 1.76367,-5.9531 1.76562,-5.9531 v -3.1445 -3.1426 l 0.66016,-0.707 0.66211,-0.7051 1.48242,4.7949 1.48242,4.7949 8.11328,17.5254 8.11133,17.5254 1.10938,3.2559 1.11133,3.2539 h 0.70898 0.71094 l 0.9082,-2.7539 0.9082,-2.7539 5.88086,-19.5274 5.87891,-19.5293 0.82617,-0.9492 h 0.002 l 0.82031,-0.9492 v -0.457 l 7.62695,7.9395 7.62695,7.9414 h 0.77149 0.77148 l 8.02539,-8.5704 8.02344,-8.5703 13.04688,14.0782 13.04492,14.0781 h 1.83593 1.83399 l 1.38867,-2.2637 1.38867,-2.2637 7.20313,-7.8711 7.20312,-7.8691 0.18946,0.3711 0.18945,0.3691 3.85937,8.5118 3.85743,8.5117 1.17773,3.2558 1.17969,3.2539 h 0.70898 0.70899 l 0.98242,-2.7539 0.98242,-2.7539 1.07227,-4.0058 1.07226,-4.0059 0.82031,-2.0019 0.82032,-2.004 4.73632,-14.9082 4.73438,-14.9082 1.03906,-6.373 1.03906,-6.373 h 0.61329 0.61132 l 1.25586,3.2558 1.25391,3.2539 7.36133,16.0235 7.35937,16.0234 1.07032,4.0117 1.07226,4.0137 1.26367,1.8457 1.26367,1.8457 0.96485,-0.6348 0.96289,-0.6367 0.5332,-3.7207 0.53321,-3.7207 0.9707,-3.5039 0.97265,-3.5059 0.79688,-2.0019 0.79688,-2.0039 1.21093,-6.2598 1.20899,-6.2578 h 0.52734 0.52734 l 2.22852,8.7617 2.22656,8.7637 0.83594,1.7519 0.83398,1.752 h 0.92579 0.92382 l 0.83594,-2.252 0.83789,-2.2539 1.16992,-8.7617 1.16993,-8.7637 h 0.66406 0.66406 l 1.13867,4.7579 1.13867,4.7558 0.83789,2.2539 0.83985,2.252 h 0.97851 0.97657 l 0.83007,-2.252 0.83008,-2.2539 1.9668,-7.5098 1.96484,-7.5117 -0.002,-1.7519 -0.004,-1.7539 h 0.77344 0.77344 l 9.16992,20.0351 9.16992,20.0332 0.96289,0.6367 0.96485,0.6368 1.04883,-1.8926 1.04882,-1.8945 0.76953,-4.5059 0.77149,-4.5059 0.47461,-7.0117 0.47461,-7.0097 0.86328,-0.9512 0.86523,-0.9512 v 2.5117 2.5137 l 1.30469,1.9062 1.30664,1.9063 1.4043,-1.2461 1.40625,-1.2461 0.51367,-2.7226 0.51367,-2.7227 0.83594,-4.0059 0.83789,-4.0058 1.56445,-3.2031 1.56446,-3.2051 v -2.4961 -2.4942 l 0.9375,-0.6171 0.9375,-0.6192 v 4.1992 4.1973 l 0.85742,3.623 0.85547,3.6211 0.92969,5.0059 0.92968,5.0078 1.12696,6.0098 1.1289,6.0078 0.95117,2.7539 0.95118,2.7539 h 0.66601 0.66797 l 1.65039,-6.7598 1.65039,-6.7597 0.48633,-2.7442 0.48633,-2.7441 0.83203,0.5508 0.83398,0.5488 0.006,4.6992 0.008,4.6973 0.84179,3.5039 0.8418,3.5058 0.57812,2.754 0.57813,2.7539 h 1.28125 1.28125 l 1.55859,-3.5039 1.55664,-3.5059 h 1.86133 1.85938 l 0.54101,-1.502 4.56836,-5.9335 0.0234,-1.0684 0.0234,-1.0703 1.96093,-2.3418 1.96094,-2.3399 0.0234,-1.5 0.0215,-1.5 2.86914,-2.7129 2.86914,-2.7128 3.14844,-2.4903 3.15039,-2.4902 v -1.3516 -1.3515 l -6.77148,-4.1309 -6.76953,-4.1309 -3.00977,-1.3593 -3.00781,-1.3594 -0.44531,-0.2891 -0.44336,-0.289 5.89648,-5.5625 5.89453,-5.5606 -1.68945,-1.7441 -1.69141,-1.7442 v -0.6757 -0.6758 l -5.76758,-10.73049 -5.76562,-10.73047 -1.67383,-3.08789 -1.67383,-3.08594 -1.58593,-1.23047 -1.58594,-1.22851 v -0.7461 -0.74804 l 2.93945,-0.60352 2.93946,-0.60156 1.19531,-1.34375 1.19531,-1.3457 -1.04883,-1.17774 -1.04687,-1.17773 -4.8418,-1.2461 -4.84375,-1.24414 -2.9082,-0.85351 -2.90625,-0.85352 h -2.35938 -2.35742 v -0.83008 -0.83203 l 6.77148,-0.55664 6.76954,-0.55859 4.2246,-0.57813 4.22461,-0.58007 1.22657,-1.38086 1.22851,-1.38086 -1.4414,-0.87305 -1.43946,-0.87305 -2.50781,-0.55664 -2.50781,-0.55664 -2.75781,-1.0664 -2.75782,-1.06836 V 950.70703 950 h 2.85157 2.85156 l 5.92578,-1.87305 5.92383,-1.87304 2.25586,-1.09375 2.25781,-1.09375 v -0.60547 -0.60742 l -19.05664,-8.79493 -19.05664,-8.79492 v -0.52539 -0.52539 l 6.49219,-1.15039 6.49218,-1.15039 h 4.86719 4.86719 l 2.43164,-2.46875 2.43164,-2.46875 -1.00391,-0.35547 -1.00195,-0.35547 -1.38281,-0.81445 -1.38281,-0.81641 0.67968,-1.02734 0.68164,-1.02735 19.50586,-9.14257 19.50586,-9.14258 0.002,-0.59961 0.002,-0.59766 -4.47656,-1.96484 -4.47852,-1.96484 -6.55469,-1.16016 -6.55664,-1.16211 v -0.69531 -0.69727 l 5.76758,-1.5332 5.76758,-1.53516 0.91015,-0.79297 0.91016,-0.79296 -1.19922,-1.34961 -1.19922,-1.34766 -4.22461,-0.61523 -4.22461,-0.61524 -6.26757,-0.49609 -6.26954,-0.4961 v -0.66406 -0.66211 l 6.26954,-1.21289 6.26757,-1.21094 5.26563,-1.89843 5.26562,-1.89844 v -0.71485 -0.71289 l -2.75781,-0.9414 -2.75781,-0.94141 -4.51367,-1.15625 -4.51367,-1.1543 -5.96094,-1.76171 -5.96289,-1.76368 h -3.14844 -3.14844 l -0.70703,-0.66015 -0.70703,-0.66016 4.80273,-1.47851 4.80274,-1.48047 17.55273,-8.10157 17.55078,-8.09961 3.25977,-1.10742 3.25977,-1.10742 v -0.70898 -0.70899 l -2.75782,-0.9082 -2.75781,-0.9082 -19.55859,-5.86914 -19.5586,-5.8711 -0.95312,-0.82617 v -0.004 l -0.95313,-0.82031 h -0.45508 l 7.94532,-7.60937 7.95312,-7.61524 v -0.77148 -0.76953 l -8.58398,-8.01368 -8.58203,-8.01171 14.09961,-13.02539 14.09961,-13.0254 v -1.83203 -1.83203 l -2.26758,-1.38672 -2.26758,-1.38672 -7.88086,-7.1914 -7.88281,-7.19336 0.37109,-0.18945 0.36914,-0.18946 8.52539,-3.85156 8.52539,-3.85156 3.25977,-1.17774 3.25976,-1.17578 v -0.70898 -0.70899 l -2.75781,-0.98047 -2.75781,-0.98046 -4.01172,-1.07032 -4.01172,-1.07031 -2.00586,-0.82031 -2.00586,-0.81836 -14.93164,-4.72852 -14.93164,-4.72656 -6.38281,-1.03906 -6.38281,-1.03711 v -0.61133 -0.61133 l 3.25976,-1.2539 3.25977,-1.25196 16.04883,-7.34961 16.04687,-7.34765 4.01953,-1.07032 4.01758,-1.06835 1.84961,-1.26172 1.84961,-1.26172 -0.63672,-0.96289 -0.63867,-0.96289 -3.72461,-0.53125 -3.72656,-0.53321 -3.50977,-0.9707 -3.51172,-0.96875 -2.00586,-0.79687 -2.00586,-0.79688 -6.26757,-1.20703 -6.26954,-1.20703 v -0.52735 -0.52734 l 8.7754,-2.22461 8.77734,-2.22461 1.7539,-0.83203 1.75586,-0.83398 v -0.92383 -0.92383 l -2.25586,-0.83398 -2.25781,-0.83399 -8.77539,-1.16992 -8.77734,-1.16797 v -0.66406 -0.66406 l 4.76562,-1.13477 4.76368,-1.13672 2.25585,-0.83789 2.25782,-0.83789 v -0.97656 -0.97656 l -2.25782,-0.82813 -2.25585,-0.82813 -7.52344,-1.96289 -7.52149,-1.96289 -1.75586,0.002 -1.7539,0.004 v -0.77148 -0.77344 l 20.06445,-9.1543 20.06445,-9.15625 0.63672,-0.96289 0.63867,-0.96289 -1.89648,-1.04687 -1.89648,-1.04688 -4.51368,-0.76953 -4.51367,-0.76953 -7.01953,-0.47266 -7.02148,-0.4746 -0.95313,-0.86329 -0.95312,-0.86328 h 2.51757 2.51563 l 1.9082,-1.30273 1.91016,-1.30274 -1.24805,-1.40429 -1.24804,-1.4043 -2.72657,-0.51172 -2.72656,-0.51367 -4.01172,-0.83594 -4.01172,-0.83398 -3.20898,-1.5625 -3.21094,-1.5625 h -2.49805 -2.49804 l -0.61914,-0.9375 -0.6211,-0.93555 h 4.20703 4.20508 l 3.62695,-0.85547 3.62696,-0.85547 5.01367,-0.92578 5.01563,-0.92773 6.01757,-1.12696 6.01758,-1.12695 2.75977,-0.94922 2.75781,-0.94922 v -0.66601 -0.66602 l -6.77149,-1.64844 -6.76953,-1.64843 -2.74804,-0.48438 -2.74805,-0.48633 0.55078,-0.83203 0.55078,-0.83007 4.70508,-0.008 4.70508,-0.008 3.50976,-0.83984 3.51172,-0.83985 2.75782,-0.57812 2.75781,-0.57617 v -1.2793 -1.28125 l -3.50977,-1.55469 -3.51172,-1.55469 v -1.85742 -1.85742 l -1.5039,-0.53906 -1.50391,-0.53906 0.0215,-1.07032 0.0234,-1.07031 1.96094,-2.33984 1.96094,-2.3418 0.0234,-1.5 0.0234,-1.49805 2.86719,-2.71484 2.86914,-2.71289 3.15039,-2.49024 3.14844,-2.49023 v -1.35156 -1.35157 l -6.76953,-4.13085 -6.77149,-4.13086 -3.00781,-1.35938 -3.00976,-1.35742 -0.44336,-0.29102 -0.44532,-0.28906 5.89649,-5.56055 5.89648,-5.5625 -1.6914,-1.74414 -1.68946,-1.74218 v -0.67579 -0.67773 l -5.76758,-10.73047 -5.76757,-10.73047 -1.67383,-3.08593 -1.67383,-3.0879 -1.58594,-1.22851 -1.58593,-1.23047 v -0.74609 -0.74805 l 2.93945,-0.60156 2.93945,-0.60352 1.19531,-1.34375 1.19532,-1.34375 -1.04883,-1.17969 -1.04688,-1.17773 -4.84179,-1.24414 -4.8418,-1.2461 -2.9082,-0.85351 -2.90821,-0.85352 h -2.35742 -2.35937 v -0.83007 -0.83008 l 6.77148,-0.5586 6.76953,-0.55859 4.22461,-0.57813 4.22461,-0.57812 1.22656,-1.38086 1.22852,-1.38086 -1.43945,-0.87305 -1.44141,-0.87304 -2.50586,-0.55664 -2.50781,-0.55664 -2.75781,-1.06836 -2.75977,-1.06836 v -0.70703 -0.70899 h 2.85352 2.85156 l 5.92383,-1.87305 5.92382,-1.87304 2.25782,-1.09375 2.25586,-1.09375 v -0.60547 -0.60547 L 719.10364,462.1989 700.047,453.40398 v -0.52735 -0.52539 l 6.49218,-1.15039 6.49414,-1.14844 h 4.86524 4.86718 l 2.43165,-2.4707 2.43164,-2.46875 -1.00391,-0.35547 -1.00195,-0.35351 -1.38282,-0.81641 -1.38281,-0.81641 0.68164,-1.02734 0.67969,-1.02734 19.50586,-9.14258 19.50586,-9.14258 0.002,-0.59766 0.002,-0.5996 -4.47657,-1.96485 -4.47656,-1.96484 -6.55664,-1.16016 -6.55469,-1.16015 v -0.69727 -0.69727 l 5.76563,-1.5332 5.76757,-1.53516 0.91016,-0.79296 0.91211,-0.79297 -1.20117,-1.34766 -1.19922,-1.34961 -4.22461,-0.61523 -4.22266,-0.61524 -6.26953,-0.49609 -6.26953,-0.4961 v -0.6621 -0.66407 l 6.26953,-1.21093 6.26953,-1.2129 5.26563,-1.89843 5.26562,-1.89844 v -0.71484 -0.71289 l -2.75976,-0.94141 -2.75781,-0.94141 -4.51368,-1.15429 -4.51367,-1.15625 -5.96094,-1.76172 -5.96289,-1.76172 h -3.14843 -3.14844 l -0.70703,-0.66016 -0.70703,-0.66015 4.80273,-1.48047 4.80274,-1.48047 17.55273,-8.09961 17.55273,-8.10156 3.25977,-1.10742 3.25977,-1.10743 v -0.70898 -0.70899 l -2.75977,-0.9082 -2.75781,-0.90625 -19.5586,-5.87109 -19.55859,-5.8711 -0.95117,-0.82617 -0.95313,-0.82226 h -0.45703 l 7.95117,-7.61524 7.95118,-7.61523 v -0.76953 -0.77149 L 731.58398,323.2207 723,315.20898 737.09961,302.18359 751.19922,289.1582 v -1.83398 -1.83203 l -2.26758,-1.38672 -2.26758,-1.38672 -7.88086,-7.19141 -7.88086,-7.1914 0.36914,-0.18946 0.36914,-0.18945 8.52735,-3.85156 8.52539,-3.85352 3.25976,-1.17578 3.25977,-1.17578 v -0.70898 -0.70899 l -2.75977,-0.98047 -2.75781,-0.98242 -4.01172,-1.07031 -4.01171,-1.07031 -2.00586,-0.81836 -2.00586,-0.81836 -14.93164,-4.72852 -14.93164,-4.72851 -6.38282,-1.03711 -6.38086,-1.03711 v -0.61133 -0.61133 l 3.25782,-1.2539 3.25976,-1.25391 16.04883,-7.34766 16.04883,-7.34961 4.01758,-1.06836 4.01757,-1.06836 1.84961,-1.26367 1.84961,-1.26172 -0.63672,-0.96289 -0.63671,-0.96093 -3.72657,-0.53321 -3.72656,-0.53125 -3.50977,-0.9707 -3.51171,-0.9707 -2.00586,-0.79493 -2.00586,-0.79687 -6.26758,-1.20703 -6.26953,-1.20899 v -0.52539 -0.52734 l 8.77734,-2.22461 8.77539,-2.22461 1.75586,-0.83398 1.75391,-0.83204 v -0.92382 -0.92383 l -2.25586,-0.83399 -2.25781,-0.83593 -8.77539,-1.16797 -8.7754,-1.16797 v -0.66406 -0.66407 l 4.76368,-1.13671 4.76367,-1.13477 2.25781,-0.83789 2.25586,-0.83789 v -0.97656 -0.97657 l -2.25586,-0.82812 -2.25781,-0.82813 -7.52149,-1.96484 -7.52343,-1.96289 -1.75586,0.004 -1.75391,0.002 v -0.77149 -0.77148 l 20.06445,-9.15625 20.06446,-9.15625 0.63867,-0.96094 0.63672,-0.96289 -1.89649,-1.04687 -1.89648,-1.04688 -4.51367,-0.76953 -4.51368,-0.76953 -7.01953,-0.47461 -7.02148,-0.47266 -0.95313,-0.86328 -0.95312,-0.86328 h 2.51758 2.51562 l 1.91016,-1.30469 1.9082,-1.30273 -1.24804,-1.4043 -1.24805,-1.40234 -2.72656,-0.51367 -2.72657,-0.51172 -4.01172,-0.83594 -4.01171,-0.83594 -3.20899,-1.5625 -3.21094,-1.5625 h -2.49804 -2.49805 l -0.61914,-0.93554 -0.62109,-0.93555 h 4.20703 4.20507 l 3.62696,-0.85547 3.62695,-0.85547 5.01367,-0.92773 5.01563,-0.92774 6.01758,-1.125 6.01953,-1.12695 2.75781,-0.94922 2.75781,-0.95117 v -0.66602 -0.66601 l -6.76953,-1.64844 -6.77148,-1.64648 -2.74805,-0.48633 -2.74805,-0.48438 0.55078,-0.83203 0.55079,-0.83203 4.70507,-0.006 4.70508,-0.008 3.50977,-0.83985 3.51172,-0.83984 2.75781,-0.57812 2.75781,-0.57618 v -1.27929 -1.28125 l -3.50976,-1.55469 -3.51172,-1.55469 v -1.85742 -1.85742 l -1.50391,-0.53906 -1.50391,-0.53907 0.0215,-1.07031 0.0234,-1.07031 1.96093,-2.33985 1.96094,-2.34179 0.0234,-1.5 0.0234,-1.49805 2.86914,-2.714842 2.86718,-2.712891 3.1504,-2.490235 3.14843,-2.490234 v -1.351562 -1.351563 l -6.76953,-4.130859 -6.77148,-4.13086 -3.00782,-1.359375 -3.00976,-1.357421 -0.44336,-0.291016 -0.44531,-0.289063 5.89648,-5.560547 5.89649,-5.5625 -12.27344,-11.019531 -1.7461,1.689453 h -0.67773 -0.67578 l -10.74805,5.757813 -10.74609,5.757812 -3.09375,1.671875 -3.0918,1.669922 -1.23047,1.583985 -1.23047,1.583984 h -0.74804 -0.74805 l -0.60547,-2.935547 -0.60351,-2.935547 -1.34571,-1.193359 -1.3457,-1.19336 -1.17969,1.046876 -1.18164,1.046874 -1.24609,4.833985 -1.2461,4.835937 -0.85546,2.902344 -0.85547,2.904297 v 2.353516 2.353515 h -0.83203 -0.83204 l -0.55859,-6.759765 -0.55859,-6.759766 -0.58008,-4.216797 -0.57813,-4.21875 -1.38476,-1.224609 -1.38281,-1.226563 -0.87305,1.4375 -0.875,1.4375 -0.55664,2.503906 -0.5586,2.503907 -1.07031,2.753906 -1.06836,2.753906 h -0.70898 -0.70899 v -2.847656 -2.847656 l -1.87695,-5.914063 -1.875,-5.916015 -1.0957,-2.251953 -1.09571,-2.253907 h -0.60742 -0.60547 l -8.80859,19.027344 -8.80859,19.027344 h -0.52735 -0.52734 l -1.15039,-6.482422 -1.15235,-6.484375 V 76.15625 71.296875 l -2.47265,-2.427734 -2.47266,-2.427735 -0.35547,1 -0.35547,1.001953 -0.81836,1.38086 -0.8164,1.378906 -1.0293,-0.677734 -1.0293,-0.679688 -9.15625,-19.476562 -9.15625,-19.476563 -0.5996,-0.002 -0.59961,-0.002 -1.96875,4.470703 -1.9668,4.470703 -1.16211,6.544922 -1.16211,6.546875 h -0.69922 -0.69726 l -1.53711,-5.759766 -1.53516,-5.757812 -0.79492,-0.908203 -0.79297,-0.910156 -1.35156,1.199218 -1.35157,1.197266 -0.61523,4.216797 -0.61719,4.21875 -0.49609,6.257812 -0.49805,6.259766 h -0.66406 -0.66406 l -1.21289,-6.259766 -1.21289,-6.257812 -1.90235,-5.257813 -1.90234,-5.257812 h -0.71485 -0.71484 l -0.94336,2.753906 -0.94141,2.753906 -1.1582,4.50586 -1.15625,4.507812 -1.76562,5.953125 -1.76367,5.951172 v 3.144531 3.144532 l -0.66211,0.705078 -0.66016,0.707031 -1.48242,-4.796875 -1.48242,-4.794922 -8.11329,-17.525391 -8.11328,-17.52539 -1.10937,-3.253907 -1.10938,-3.255859 h -0.71093 -0.70899 l -0.9082,2.753906 -0.91016,2.753907 -5.8789,19.529296 -5.88086,19.527344 -0.82618,0.953125 h -0.002 l -0.82226,0.951172 v 0.457031 l -7.625,-7.939453 -7.62696,-7.941406 h -0.77148 -0.77149 L 514.7832,62.492188 506.75781,71.0625 493.71289,56.984375 480.66797,42.90625 h -1.83594 -1.83398 l -1.38867,2.263672 -1.39063,2.265625 -7.20117,7.869141 -7.20313,7.86914 -0.1914,-0.36914 -0.1875,-0.369141 -3.85938,-8.513672 -3.85742,-8.511719 -1.17969,-3.253906 -1.17773,-3.255859 h -0.71094 -0.70898 l -0.98243,2.753906 -0.98242,2.753906 -1.07226,4.005859 -1.07032,4.00586 -0.82031,2.003906 -0.82031,2.001953 -4.73633,14.908203 -4.73437,14.908204 -1.03907,6.373046 -1.03906,6.373047 h -0.61328 -0.61328 l -1.25391,-3.253906 -1.25586,-3.255859 -7.35937,-16.023438 -7.35938,-16.023437 -1.07226,-4.011719 -1.07031,-4.011719 -1.26368,-1.847656 -1.26367,-1.845703 -0.96484,0.636718 -0.96289,0.634766 -0.53321,3.720703 -0.5332,3.720703 -0.97266,3.50586 -0.9707,3.503906 -0.79687,2.003906 -0.79883,2.001953 -1.20899,6.259766 -1.20898,6.259766 h -0.52734 -0.5293 l -2.22656,-8.763672 -2.22852,-8.761719 -0.83398,-1.753906 -0.83594,-1.751953 h -0.92383 -0.92578 l -0.83594,2.253906 -0.83594,2.251953 -1.16992,8.763672 -1.16992,8.761719 h -0.66406 -0.66602 l -1.13672,-4.75586 -1.13867,-4.757812 -0.83984,-2.251953 -0.83789,-2.253907 h -0.97852 -0.97851 l -0.82813,2.253907 -0.83008,2.251953 -1.96679,7.511719 -1.96485,7.509765 0.002,1.753906 0.002,1.751953 h -0.77149 -0.77343 l -9.16992,-20.035156 -9.16993,-20.033203 -0.96484,-0.636719 -0.96289,-0.636718 -1.04883,1.894531 -1.04883,1.892578 -0.77148,4.505859 -0.76953,4.507813 -0.47461,7.009765 -0.47461,7.009766 -0.86524,0.951172 -0.86328,0.951172 v -2.511719 -2.511719 l -1.30664,-1.90625 -1.30469,-1.90625 -1.40625,1.246094 -1.40625,1.246094 -0.51171,2.720703 -0.51368,2.722656 -0.83789,4.00586 -0.83593,4.005859 -1.56446,3.205078 -1.5664,3.205078 v 2.494141 2.494141 l -0.9375,0.61914 -0.9375,0.619141 V 93.90625 89.707031 l -0.85547,-3.621093 -0.85742,-3.621094 -0.92774,-5.007813 -0.92969,-5.007812 -1.12695,-6.007813 -1.12891,-6.009765 -0.95117,-2.753907 -0.95117,-2.753906 h -0.66797 -0.66601 l -1.65039,6.759766 -1.6504,6.759765 -0.48632,2.744141 -0.48633,2.744141 -0.83399,-0.550782 -0.83203,-0.548828 -0.008,-4.697265 -0.006,-4.697266 -0.8418,-3.505859 -0.84179,-3.50586 -0.57813,-2.753906 -0.57617,-2.753906 h -1.2832 -1.28125 l -1.55664,3.505859 -1.5586,3.503906 h -1.85937 -1.86133 l -0.54102,1.503907 -0.53906,1.501953 -1.07226,-0.02344 -1.07032,-0.02148 -2.3457,-1.958984 -2.34375,-1.958985 -1.50195,-0.02148 -1.50196,-0.02148 -2.71679,-2.865234 -2.71875,-2.865234 -2.49414,-3.142578 -2.49414,-3.144532 h -1.35352 -1.35352 l -4.13671,6.759766 -4.13672,6.759766 -1.36133,3.003906 -1.36133,3.003906 -0.28906,0.443359 -0.29102,0.44336 -5.56836,-5.886719 -5.57031,-5.886719 -1.74609,1.6875 -1.7461,1.689453 h -0.67773 -0.67774 l -10.74609,5.757813 -10.74805,5.757812 -3.09179,1.671875 -3.0918,1.669922 -1.23047,1.583985 -1.23242,1.583984 h -0.74805 -0.74804 l -0.60352,-2.935547 -0.60351,-2.935547 -1.34571,-1.193359 -1.34765,-1.19336 -1.17969,1.046876 -1.17969,1.046874 -1.24609,4.833985 -1.24805,4.835937 -0.85352,2.902344 -0.85546,2.904297 v 2.353516 2.353515 h -0.83204 -0.83203 l -0.55859,-6.759765 -0.56055,-6.759766 -0.57812,-4.216797 -0.58008,-4.21875 -1.38281,-1.224609 -1.38282,-1.226563 -0.875,1.4375 -0.87304,1.4375 -0.5586,2.503906 -0.55664,2.503907 -1.07031,2.753906 -1.07031,2.753906 h -0.70899 -0.70703 V 75.109386 72.26173 l -1.87695,-5.914063 -1.87695,-5.916015 -1.09375,-2.251953 -1.09571,-2.253907 h -0.60742 -0.60742 l -8.80859,19.027344 -8.8086,19.027344 h -0.52539 -0.52734 l -1.15235,-6.482422 -1.15039,-6.484375 V 76.15625 71.296875 l -2.47265,-2.427734 -2.47266,-2.427735 -0.35547,1 -0.35547,1.001953 -0.81836,1.38086 -0.81836,1.378906 -1.02734,-0.677734 -1.0293,-0.679688 -9.15625,-19.476562 -9.15625,-19.476563 -0.59961,-0.002 -0.5996,-0.002 -1.96876,4.470703 -1.96679,4.470703 -1.16211,6.544922 -1.16406,6.546875 h -0.69727 -0.69727 l -1.5371,-5.759766 -1.53516,-5.757812 -0.79492,-0.908203 -0.79492,-0.910156 -1.34961,1.199218 -1.35157,1.197266 -0.61718,4.216797 -0.61524,4.21875 -0.49609,6.257812 -0.49805,6.259766 h -0.66406 -0.66406 l -1.21289,-6.259766 -1.21485,-6.257812 -1.90039,-5.257813 -1.90234,-5.257812 h -0.71485 -0.71484 l -0.94336,2.753906 -0.94336,2.753906 -1.15625,4.50586 -1.15625,4.507812 -1.76562,5.953125 -1.76368,5.951172 v 3.144531 3.144532 l -0.6621,0.705078 -0.66016,0.707031 -1.48438,-4.796875 -1.48242,-4.794922 -8.111326,-17.525391 -8.113282,-17.52539 -1.109374,-3.253907 -1.109376,-3.255859 h -0.710937 z m -0.22461,8.011719 0.703125,0.06445 0.703125,0.06641 8.66211,19.212891 8.662109,19.21289 1.45117,5.007813 1.44922,5.005859 0.90625,1.503907 0.9043,1.501953 0.92383,-1.501953 0.92382,-1.503907 0.50782,-3.503906 0.50586,-3.505859 1.76562,-6.509766 1.76758,-6.507812 1.19922,-5.257813 1.20117,-5.257812 h 0.60937 0.61133 l 1.01367,3.753906 1.01172,3.755859 1.06055,4.507813 1.06055,4.505859 1.00195,2.753906 1.00391,2.753907 h 0.67382 0.67383 l 1.08789,-2.550782 1.08789,-2.550781 V 63.863282 61.88086 l 1.15235,-6.482421 1.15039,-6.482422 h 0.60156 0.59961 l 1.53516,5.757812 1.53515,5.757813 0.9336,1.501953 0.93164,1.501953 0.91601,-1.501953 0.91797,-1.501953 2.36524,-8.06836 2.36523,-8.068359 v -2.697266 -2.697265 l 0.70313,0.0332 0.70312,0.0332 9.23438,19.996094 9.23437,19.996093 h 0.41016 0.41015 l 2.33985,-1.636718 2.33984,-1.638672 0.5293,0.564453 0.52929,0.566406 0.83594,8.833985 0.83594,8.833984 0.71484,4.423828 0.7168,4.425785 0.97461,0.3457 0.97461,0.34375 9.33984,-20.041016 9.33985,-20.041016 0.70312,-0.002 h 0.70313 l 0.0644,3.253906 0.0664,3.25586 2.51367,8.011718 2.51172,8.011719 h 1.40625 1.4082 l 1.80469,-6.259765 1.80468,-6.259766 h 0.65235 0.65039 l 0.58984,4.257812 0.58789,4.25586 0.77539,5.28125 0.77344,5.28125 1.02149,1.089844 1.02148,1.091796 0.95703,-0.632812 0.95899,-0.632813 1.46679,-5.392578 1.46875,-5.392578 V 81.25776 79.359323 l 1.17188,-2.697266 1.17187,-2.695312 0.70313,-0.0078 0.70312,-0.0078 v 2.445312 2.44336 l 0.94531,0.623047 0.94336,0.623047 2.7168,-2.066407 2.7168,-2.064453 h 0.55664 0.55664 l 4.45703,-3.345703 4.45508,-3.345703 9.8457,-5.292969 9.8457,-5.291015 0.81055,-0.791016 0.81055,-0.791016 5.62695,6.423828 5.625,6.423828 h 0.82422 0.82227 l 4.39453,-7.259765 4.39453,-7.261719 1.91797,-3.189453 1.91992,-3.191406 1.19531,1.060547 1.19531,1.058593 0.0215,1.13086 0.0215,1.128906 3.02539,3.548828 3.02539,3.548828 3.28125,1.390625 3.28321,1.390625 2.23632,1.820313 2.23438,1.820312 h 1.22852 1.22656 l 1.61523,-2.919922 1.61328,-2.917968 2.23438,-1.087891 2.23242,-1.085937 h 0.3418 0.34179 l 0.48047,5.757812 0.48047,5.757812 0.77344,4.00586 0.77539,4.005859 1.11914,2.003907 1.11719,2.001953 1.33789,-1.931641 1.33594,-1.933594 1.23047,-4.826172 1.23046,-4.828125 h 0.57618 0.57421 l 1.20313,6.259766 1.20312,6.259766 0.94727,5.005859 0.94727,5.007812 0.85546,3.621094 0.85743,3.621094 0.0137,2.388667 0.0137,2.38672 0.88477,1.49414 0.88281,1.49414 0.99609,-1.06445 0.9961,-1.06445 1.85742,-5.185548 1.85547,-5.1875 1.875,-5.244141 1.875,-5.242187 v -2.267579 -2.267578 h 0.9375 0.9375 l 0.0293,1.751954 0.0273,1.751953 1.43164,2.003906 1.42969,2.001953 1.11914,-2.001953 1.11718,-2.003906 0.7461,-5.507813 0.74609,-5.507812 0.50977,-6.3125 0.50781,-6.314454 1.02148,0.365235 1.02344,0.363281 0.72461,1.44336 0.72266,1.443359 8.59961,18.525391 8.59961,18.527343 0.40624,0.472657 0.40626,0.470699 0.86523,-1.472653 0.86523,-1.472656 2.36524,-8.068359 2.36523,-8.06836 v -2.197265 -2.197266 l 0.70313,0.0078 0.70312,0.0078 1.17188,2.697266 1.17187,2.695312 0.008,1.050781 0.008,1.052735 0.97656,3.755859 0.97656,3.75586 h 0.7793 0.7793 l 0.92578,-2.753907 0.92578,-2.753906 1.0625,-4.771484 1.06445,-4.771485 v -4.99414 -4.992188 h 0.9375 0.9375 v 2.382813 2.384765 l 2.91992,9.632813 2.91993,9.634765 h 0.68164 0.67968 l 1.25782,-4.255859 1.25586,-4.255859 0.65234,-1.001953 0.65039,-1.001953 0.50977,-3.003907 0.50976,-3.003906 1.11719,-4.005859 1.11914,-4.00586 0.45508,-4.507812 0.45703,-4.50586 0.64648,-0.736328 0.64453,-0.738281 1.23633,4.744141 1.23633,4.742187 9.43164,20.529297 9.43359,20.529302 0.36719,0.47265 0.36524,0.47071 0.80078,-1.38282 0.80078,-1.38281 7.58008,-24.402344 7.58203,-24.402344 0.5957,-3.978516 0.5957,-3.978516 h 0.81641 0.81836 v 1.324219 1.324219 l 4.18945,9.191406 4.1875,9.191406 h 0.86914 0.8711 l 9.96484,-10.503906 9.9668,-10.501953 10.76172,11.492188 10.76172,11.49414 v 0.683594 0.681641 l 1.55273,1.832031 1.55078,1.832031 h 1.66602 1.66601 l 7.57227,-8.011719 7.57226,-8.011718 h 0.97657 0.97656 l 6.51758,7.058593 6.51953,7.060547 v 2.394531 2.396485 l 0.9375,0.617187 0.93555,0.617188 v 0.886719 h 0.38281 0.38476 l 7.11719,-22.888672 7.11719,-22.888672 v -2.148438 -2.146484 l 0.70312,0.06445 0.70508,0.06445 8.66211,19.212891 8.66016,19.21289 1.45117,5.007813 1.45117,5.007813 0.9043,1.501953 0.90625,1.501953 0.92383,-1.501953 0.92382,-1.501953 0.50586,-3.50586 0.50586,-3.505859 1.76758,-6.507813 1.76563,-6.509765 1.20117,-5.257813 1.19922,-5.257812 h 0.61132 0.60938 l 1.01367,3.755859 1.01367,3.755859 1.06055,4.50586 1.05859,4.505859 1.00391,2.753906 1.00391,2.753907 h 0.67382 0.67188 l 1.08984,-2.550782 1.08789,-2.550781 v -1.980469 -1.982422 l 1.15039,-6.484374 1.15235,-6.482422 h 0.59961 0.60156 l 1.53516,5.757812 1.53515,5.759766 0.93164,1.501953 0.9336,1.501953 0.91601,-1.501953 0.91602,-1.501953 2.36523,-8.06836 2.36524,-8.068359 v -2.697266 -2.699218 l 0.70312,0.0332 0.70313,0.0332 9.23437,19.996094 9.23438,19.996093 h 0.41015 0.41016 l 2.33984,-1.636718 2.3418,-1.638672 0.5293,0.566406 0.52929,0.564453 0.83399,8.833985 0.83594,8.833984 0.71679,4.425781 0.71485,4.423831 0.97461,0.3457 0.97656,0.34571 9.33789,-20.042975 9.33984,-20.041016 h 0.70313 l 0.70312,-0.002 0.0664,3.255859 0.0644,3.253907 2.51367,8.011718 2.51368,8.011719 h 1.40625 1.40625 l 1.80468,-6.259765 1.80664,-6.257813 h 0.6504 0.65234 l 0.58789,4.255859 0.58789,4.25586 0.77539,5.28125 0.77539,5.28125 1.01953,1.091797 1.02149,1.089843 0.95898,-0.632812 0.95703,-0.63086 1.46875,-5.394531 1.4668,-5.392578 v -1.900391 -1.898437 l 1.17383,-2.695313 1.17187,-2.695312 0.70313,-0.0078 0.70312,-0.0078 v 2.443359 2.44336 l 0.94336,0.625 0.94531,0.623047 2.7168,-2.066407 2.7168,-2.066406 h 0.55664 0.55469 l 4.45703,-3.345703 4.45508,-3.345703 9.8457,-5.291016 9.8457,-5.292968 0.81055,-0.791016 8.56836,7.58789 -6.4336,5.619141 -6.43359,5.617188 v 0.822265 0.820313 l 7.27148,4.388672 7.27149,4.388671 3.19531,1.914063 3.19531,1.916016 -1.06054,1.193359 -1.0625,1.193359 -1.13086,0.02148 -1.13086,0.02148 -3.55469,3.021484 -3.55273,3.021485 -1.39453,3.275398 -1.39258,3.27733 -1.82227,2.23242 -1.82422,2.23438 v 1.22461 1.22462 l 2.92383,1.61132 2.92383,1.61329 1.08789,2.23047 1.08984,2.22851 v 0.3418 0.33984 l -5.76757,0.48047 -5.76758,0.48047 -4.01172,0.77344 -4.01172,0.77343 -2.00586,1.11524 -2.00586,1.11718 1.93555,1.33399 1.93554,1.33593 4.83399,1.22852 4.83398,1.22852 v 0.57422 0.57421 l -6.26757,1.20117 -6.26954,1.20118 -5.01367,0.9453 -5.01562,0.94531 -3.62696,0.85548 -3.62695,0.85546 -2.39062,0.0137 -2.39258,0.0137 -1.4961,0.88281 -1.49609,0.88281 1.06641,0.99414 1.06445,0.99611 5.19531,1.85156 5.19532,1.85351 5.25195,1.87304 5.25195,1.87306 h 2.26953 2.27149 v 0.93554 0.93554 l -1.75586,0.0293 -1.75391,0.0273 -2.00586,1.42969 -2.00781,1.42772 2.00781,1.11525 2.00586,1.11719 5.51563,0.74608 5.51562,0.74414 6.32422,0.50782 6.32227,0.50586 -0.36524,1.02149 -0.36328,1.02148 -1.44531,0.72265 -1.44532,0.72265 -18.55468,8.58595 -18.55469,8.58593 -0.47266,0.40626 -0.47265,0.40624 1.47461,0.86329 1.47656,0.86522 8.08008,2.36134 8.08008,2.36133 h 2.20117 2.19922 l -0.008,0.70117 -0.008,0.70312 -2.69922,1.16992 -2.69922,1.16992 -1.05468,0.008 -1.05274,0.006 -3.76172,0.97655 -3.76172,0.97461 v 0.77735 0.7793 l 2.75782,0.92383 2.75976,0.92383 4.77735,1.0625 4.77929,1.06249 h 5 5.00196 v 0.93556 0.9375 h -2.38868 -2.38671 l -9.64844,2.91406 -9.64844,2.91602 v 0.67967 0.6797 l 4.26172,1.25391 4.26367,1.25586 1.00195,0.65039 1.00391,0.64843 3.00977,0.50977 3.00781,0.50781 4.01172,1.11718 4.01172,1.1172 4.51367,0.45508 4.51367,0.45507 0.73828,0.64454 0.73828,0.64648 -4.75,1.23242 -4.75,1.23437 -20.5625,9.41798 -20.56054,9.41796 -0.47266,0.36718 -0.47266,0.36525 1.38672,0.80078 1.38477,0.79883 24.43945,7.56836 24.43945,7.56835 3.98438,0.5957 3.98633,0.59376 v 0.8164 0.81836 h -1.32617 -1.32813 l -9.20508,4.18163 -9.20508,4.18165 v 0.86914 0.86719 l 10.51953,9.95117 10.51954,9.95118 -11.51172,10.74414 -11.51172,10.74609 h -0.6836 -0.68359 l -1.83398,1.54883 -1.83399,1.55078 v 1.66211 1.66405 l 8.02344,7.56056 8.02344,7.56055 v 0.97459 0.97461 l -7.07032,6.50978 -7.07031,6.50781 h -2.39843 -2.39844 l -0.6211,0.93554 -0.61718,0.93555 h -0.88672 v 0.38281 0.38281 l 22.92578,7.10742 22.92383,7.10743 h 2.15039 2.15039 l -0.0644,0.70117 -0.0645,0.70312 -19.24414,8.64844 -19.24219,8.64844 -5.01562,1.44923 -5.01367,1.44725 -1.50586,0.90431 -1.50391,0.90429 1.50391,0.92187 1.50586,0.92189 3.50976,0.50585 3.50977,0.50585 6.51953,1.76369 6.51953,1.76367 5.26563,1.19725 5.26757,1.19922 v 0.60938 0.60937 l -3.76171,1.01172 -3.76172,1.01173 -4.51368,1.05859 -4.51367,1.0586 -2.75781,1.00195 -2.75781,1.00195 v 0.67188 0.67187 l 2.55469,1.08789 2.55468,1.08594 h 1.98438 1.98633 l 6.49218,1.15039 6.49414,1.14844 v 0.59961 0.59961 l -5.76757,1.5332 -5.76758,1.5332 -1.50391,0.93165 -1.50586,0.92968 1.50586,0.91602 1.50391,0.91601 8.08008,2.36133 8.08007,2.36133 h 2.70313 2.70117 l -0.0352,0.70117 -0.0332,0.70313 -20.02734,9.21875 -20.02735,9.2207 v 0.41016 0.4082 l 1.64063,2.33789 1.64062,2.33594 -0.5664,0.52929 -0.56641,0.52735 -8.84766,0.83594 -8.84765,0.83398 -4.43164,0.71484 -4.43164,0.71289 -0.34571,0.97461 -0.3457,0.97266 20.07227,9.32617 20.07226,9.32422 v 0.70313 l 0.002,0.70117 -3.25977,0.0664 -3.25977,0.0664 -8.02343,2.50781 -8.02539,2.50977 v 1.40429 1.4043 l 6.26953,1.80274 6.26953,1.80273 v 0.65039 0.65039 l -4.26367,0.58789 -4.26368,0.58789 -5.28906,0.77344 -5.28906,0.77344 -1.0918,1.01953 -1.09375,1.01953 0.63477,0.95508 0.63281,0.95703 5.40039,1.4668 5.40235,1.46484 h 1.90234 1.90234 l 2.69922,1.16992 2.70117,1.16992 0.006,0.70313 0.008,0.70117 h -2.44727 -2.44922 l -0.62305,0.94336 -0.625,0.94335 2.07032,2.71289 2.06836,2.7129 v 0.55469 0.55469 l 3.35156,4.44922 3.34961,4.44921 5.30078,9.83203 5.30078,9.83008 0.79102,0.8086 0.79297,0.81054 -6.4336,5.61719 -6.43359,5.61719 v 0.82226 0.82032 l 7.27148,4.38867 7.27149,4.38867 3.19531,1.91602 3.19531,1.91406 -1.0625,1.19336 -1.06055,1.19531 -1.13085,0.0215 -1.13086,0.0234 -3.55469,3.02149 -3.55469,3.01953 -1.39258,3.27734 -1.39258,3.27735 -1.82226,2.23242 -1.82422,2.23242 v 1.22461 1.22656 l 2.92383,1.61133 2.92383,1.61133 1.08789,2.23046 1.08789,2.23047 v 0.33984 0.3418 l -5.76563,0.48046 -5.76758,0.47853 -4.01171,0.77344 -4.01172,0.77539 -2.00586,1.11522 -2.00782,1.1172 1.9375,1.33398 1.93555,1.33594 4.83399,1.22852 4.83398,1.22851 v 0.57422 0.57422 l -6.26758,1.20117 -6.26953,1.20117 -5.01562,0.94532 -5.01368,0.94531 -3.62695,0.85547 -3.62695,0.85547 -2.39258,0.0137 -2.39063,0.0156 -1.49609,0.88283 -1.49609,0.88281 1.0664,0.99414 1.06446,0.99608 5.19531,1.85158 5.19531,1.85351 5.25196,1.87305 5.25,1.87304 h 2.27148 2.27148 v 0.93555 0.93555 l -1.75586,0.0273 -1.75586,0.0254 -2.00585,1.42969 -2.00586,1.42774 2.00586,1.11523 2.00585,1.11719 5.51758,0.74609 5.51563,0.74414 6.32422,0.50781 6.32226,0.50586 -0.36523,1.02149 -0.36328,1.02148 -1.44532,0.72266 -1.44531,0.72265 -18.55469,8.58594 -18.55664,8.58594 -0.47265,0.40625 -0.47071,0.40625 1.47461,0.86328 1.47461,0.86524 8.08203,2.36132 8.08008,2.36133 h 2.19922 2.20117 l -0.008,0.70117 -0.008,0.70313 -2.69922,1.16992 -2.69922,1.16992 -1.05469,0.008 -1.05273,0.008 -3.76172,0.97461 -3.76172,0.97461 v 0.77929 0.7793 l 2.75781,0.92187 2.75977,0.92383 4.77734,1.0625 4.7793,1.0625 h 5 5 v 0.9375 0.93555 h -2.38672 -2.38672 l -9.64844,2.91602 -9.64843,2.91406 v 0.67968 0.67969 l 4.26172,1.25586 4.26367,1.25391 1.00195,0.65039 1.00391,0.65039 3.00781,0.50781 3.00977,0.50977 4.01171,1.11523 4.01172,1.11719 4.51367,0.45508 4.51368,0.45703 0.73828,0.64453 0.73828,0.64453 -4.75,1.23438 -4.75,1.23242 -20.5625,9.41992 -20.56055,9.41797 -0.47265,0.36523 -0.47266,0.36719 1.38672,0.79883 1.38476,0.79883 24.43946,7.57031 24.43945,7.56836 3.98438,0.59375 3.98632,0.5957 v 0.81641 0.8164 h -1.32812 -1.32617 l -9.20508,4.18165 -9.20508,4.18164 v 0.86914 0.86914 l 10.51953,9.94922 10.51953,9.95117 -11.51172,10.74609 -11.51171,10.74414 h -0.6836 -0.68359 l -1.83399,1.55078 -1.83398,1.54883 v 1.66406 1.66407 l 8.02344,7.56054 8.02343,7.56055 v 0.97461 0.97461 l -7.07031,6.50781 -7.07031,6.50781 h -2.39844 -2.39844 l -0.62109,0.9375 -0.61523,0.92969 h -0.88672 v 0.38281 0.38282 l 22.92383,7.10742 22.92578,7.10742 h 2.15039 2.15039 l -0.0644,0.70117 -0.0645,0.70313 -19.24414,8.64843 -19.24219,8.64844 -5.01367,1.44727 -5.01562,1.44922 -1.50391,0.90429 -1.50586,0.90235 1.50586,0.92383 1.50391,0.92187 3.50976,0.50586 3.51172,0.50586 6.51953,1.76367 6.51953,1.76367 5.26563,1.19727 5.26562,1.19922 v 0.60937 0.60938 l -3.76171,1.01172 -3.76172,1.01171 -4.51368,1.0586 -4.51367,1.05859 -2.75781,1.00195 -2.75781,1.00196 v 0.67187 0.67188 l 2.55469,1.08789 2.55468,1.08594 h 1.98438 1.98633 l 6.49218,1.15039 6.49414,1.14843 v 0.59961 0.59961 l -5.76757,1.53321 -5.76758,1.5332 -1.50391,0.92969 -1.50586,0.93164 1.50586,0.91601 1.50391,0.91407 8.08008,2.36328 8.08203,2.36132 h 2.70117 2.70117 l -0.0332,0.70118 -0.0352,0.70312 -20.02734,9.21875 -20.02735,9.22071 v 0.4082 0.41015 l 1.64063,2.33789 1.64062,2.33594 -0.5664,0.5293 -0.56641,0.52734 -8.84766,0.83399 -8.84765,0.83593 -4.43164,0.7129 -4.43164,0.71484 -0.34571,0.97461 -0.3457,0.97265 20.07227,9.32618 20.07226,9.32422 v 0.70312 l 0.002,0.70117 -3.25977,0.0664 -3.25977,0.0645 -8.02343,2.50977 -8.02539,2.50781 v 1.4043 1.40429 l 6.26953,1.80274 6.26953,1.80273 v 0.65039 0.65039 l -4.26367,0.58789 -4.26172,0.5879 -5.29102,0.77343 -5.28906,0.77344 -1.0918,1.01953 -1.09179,1.01953 0.63281,0.95703 0.63281,0.95508 5.40235,1.4668 5.40039,1.46484 h 1.90234 1.90234 l 2.69922,1.17188 2.70117,1.16992 0.006,0.70117 0.008,0.70313 h -2.44727 -2.44727 l -0.625,0.9414 -0.625,0.94336 2.07032,2.71289 2.07031,2.71289 v 0.55469 0.55664 l 3.34961,4.44922 3.34961,4.44922 5.30078,9.83008 5.30078,9.83005 0.79102,0.8106 0.79297,0.8086 -6.4336,5.6172 -6.43359,5.6191 v 0.8203 0.8223 l 7.27148,4.3867 7.27149,4.3887 3.19531,1.916 3.19531,1.916 -1.0625,1.1934 -1.06055,1.1933 -1.13085,0.024 -1.13086,0.021 -3.55469,3.0215 -3.55469,3.0215 -1.39258,3.2773 -1.39258,3.2754 -1.82226,2.2344 -1.82422,2.2324 v 1.2246 l 0.95312,-1.3867 -1.61523,2.9199 -1.61328,2.918 -2.23438,1.0879 -2.23242,1.0859 h -0.34179 -0.3418 l -0.48047,-5.7578 -0.48047,-5.7597 -0.77539,-4.0059 -0.77344,-4.0039 -1.11914,-2.0039 -1.11719,-2.002 -1.33789,1.9317 -1.33593,1.9336 -1.23242,4.8261 -1.23047,4.8282 h -0.57422 -0.57422 l -1.20313,-6.2598 -1.20312,-6.2598 -0.94727,-5.0058 -0.94726,-5.0078 -0.85547,-3.6211 -0.85742,-3.6211 -0.0156,-2.3887 -0.0137,-2.3867 -0.88477,-1.4941 -0.88476,-1.4942 -0.99609,1.0645 -0.9961,1.0644 -1.85547,5.1856 -1.85547,5.1875 -1.87695,5.2441 -1.875,5.2422 v 2.2676 2.2675 h -0.9375 -0.9375 l -0.0254,-1.7519 -0.0273,-1.7539 -1.42969,-2.002 -1.43164,-2.0039 -1.11719,2.0039 -1.11914,2.002 -0.74609,5.5098 -0.7461,5.5078 -0.50781,6.3125 -0.50781,6.3125 -1.02344,-0.3633 -1.02148,-0.3633 -0.72461,-1.4434 -0.72266,-1.4433 -8.59961,-18.5254 -8.59961,-18.5273 -0.40625,-0.4727 -0.40625,-0.4707 -0.86719,1.4726 -0.86523,1.4727 -2.36524,8.0684 -2.36523,8.0683 v 2.1973 2.1973 l -0.70117,-0.01 -0.70313,-0.01 -1.17187,-2.6953 -1.17383,-2.6953 -0.006,-1.0527 -0.008,-1.0528 -0.97656,-3.7558 -0.97657,-3.7539 h -0.78125 -0.77929 l -0.92383,2.7539 -0.92578,2.7539 -1.06446,4.7715 -1.06445,4.7714 v 4.9922 4.9922 h -0.9375 -0.9375 v -2.3828 -2.3848 l -2.91992,-9.6328 -2.91992,-9.6347 h -0.6796 -0.68164 l -1.25586,4.2578 -1.25781,4.2558 -0.65039,1 -0.65039,1.002 -0.50977,3.0039 -0.50976,3.0059 -1.11915,4.0058 -1.11718,4.0059 -0.45703,4.5058 -0.45508,4.5059 -0.64649,0.7383 -0.64648,0.7363 -1.23633,-4.7422 -1.23437,-4.7441 -9.4336,-20.5293 -9.43164,-20.5293 -0.36719,-0.4727 -0.36718,-0.4707 -0.80078,1.3828 -0.80079,1.3848 -7.58007,24.4004 -7.58008,24.4023 -0.59571,3.9786 -0.5957,3.9785 h -0.81836 -0.81836 v -1.3242 -1.3243 l -4.1875,-9.1914 -4.1875,-9.1894 h -0.87109 -0.86914 l -9.9668,10.5019 -9.9668,10.5039 -10.76171,-11.4941 -10.76172,-11.4942 v -0.6835 -0.6817 l -1.55078,-1.832 -1.55274,-1.832 h -1.66601 -1.66602 l -7.57227,8.0117 -7.57226,8.0117 h -0.97656 -0.97461 l -6.51953,-7.0586 -6.51758,-7.0586 v -2.3965 -2.3945 l -0.9375,-0.6192 -0.9375,-0.6191 v -0.8848 h -0.38281 -0.38477 l -7.11719,22.8887 -7.11719,22.8887 v 2.1484 2.1465 l -0.70312,-0.064 -0.70313,-0.064 -8.6621,-19.2129 -8.66211,-19.2148 -1.45118,-5.0059 -1.45117,-5.0078 -0.9043,-1.502 -0.90624,-1.5019 -0.92383,1.5019 -0.92383,1.502 -0.50586,3.5059 -0.50586,3.5039 -1.76758,6.5097 -1.76562,6.5098 -1.20118,5.2578 -1.19921,5.2578 h -0.60938 -0.61133 l -1.01367,-3.7558 -1.01367,-3.7559 -1.05859,-4.5059 -1.06055,-4.5078 -1.00391,-2.7539 -1.0039,-2.7539 h -0.67188 -0.67383 l -1.08789,2.5508 -1.08984,2.5508 v 1.9824 1.9824 l -1.15039,6.4824 -1.15235,6.4844 h -0.59961 -0.5996 l -1.53711,-5.7598 -1.53516,-5.7578 -0.93164,-1.5019 -0.93164,-1.502 -0.91797,1.502 -0.91602,1.5019 -2.36523,8.0684 -2.36523,8.0684 v 2.6972 2.6973 l -0.70313,-0.033 -0.70312,-0.035 -9.23438,-19.9961 -9.23437,-19.9961 h -0.41016 -0.41016 l -2.33984,1.6368 -2.3418,1.6386 -0.52734,-0.5644 -0.5293,-0.5664 -0.83594,-8.834 -0.83593,-8.834 -0.7168,-4.4238 -0.71484,-4.4258 -0.97461,-0.3457 -0.97657,-0.3457 -9.33789,20.041 -9.33984,20.043 h -0.70312 -0.70313 l -0.0664,-3.2558 -0.0644,-3.2539 -2.51367,-8.0118 -2.51367,-8.0117 h -1.40625 -1.40625 l -1.80469,6.2598 -1.80469,6.2578 h -0.65234 -0.65039 l -0.58985,-4.2559 -0.58789,-4.2558 -0.77539,-5.2813 -0.77343,-5.2812 -1.02149,-1.0918 -1.02148,-1.0899 -0.95899,0.6329 -0.95703,0.6308 -1.46875,5.3945 -1.4668,5.3926 v 1.9004 1.8985 l -1.17187,2.6953 -1.17383,2.6953 -0.70312,0.01 -0.70313,0.01 v -2.4453 -2.4434 l -0.94336,-0.623 -0.94336,-0.6231 -2.71875,2.0664 -2.7168,2.0664 h -0.55468 -0.55664 l -4.45703,3.3438 -4.45508,3.3457 -9.84571,5.293 -9.8457,5.2929 -0.81055,0.7891 -0.81054,0.791 -5.62696,-6.4238 -5.62695,-6.4238 h -0.82226 -0.82227 l -4.39453,7.2617 -4.39453,7.2597 -1.91992,3.1895 -1.91797,3.1914 -1.19532,-1.0605 -1.19531,-1.0586 -0.0215,-1.1289 -0.0215,-1.1309 -3.02539,-3.5488 -3.02539,-3.5489 -3.2832,-1.3906 -3.28125,-1.3906 -2.23633,-1.8203 -2.23633,-1.8203 h -1.22656 -1.22656 l -1.61524,2.9199 -1.61523,2.9199 -2.23242,1.0859 -2.23438,1.086 h -0.33984 -0.3418 l -0.48047,-5.7578 -0.48047,-5.7578 -0.77539,-4.0059 -0.77539,-4.0059 -1.11718,-2.0039 -1.11719,-2.0019 -1.33789,1.9336 -1.33789,1.9316 -1.23047,4.8281 -1.23047,4.8262 h -0.57422 -0.57422 l -1.20312,-6.2598 -1.20313,-6.2578 -0.94726,-5.0078 -0.94727,-5.0078 -0.85742,-3.6211 -0.85547,-3.6211 -0.0137,-2.3867 -0.0137,-2.3887 -0.88477,-1.4941 -0.88477,-1.4922 -0.99609,1.0625 -0.99609,1.0645 -1.85547,5.1875 -1.85547,5.1855 -1.875,5.2441 -1.87695,5.2442 v 2.2676 2.2656 h -0.9375 -0.93555 l -0.0293,-1.752 -0.0293,-1.7519 -1.42969,-2.0039 -1.43164,-2.002 -1.11719,2.002 -1.11719,2.0039 -0.74804,5.5078 -0.7461,5.5078 -0.50781,6.3125 -0.50781,6.3145 -1.02344,-0.3653 -1.02148,-0.3633 -0.72461,-1.4433 -0.72266,-1.4414 -8.59961,-18.5274 -8.59961,-18.5273 -0.40625,-0.4707 -0.40625,-0.4727 -0.86523,1.4727 -0.86719,1.4746 -2.36524,8.0684 -2.36328,8.0664 v 2.1972 2.1973 l -0.70312,-0.01 -0.70313,-0.01 -1.17187,-2.6953 -1.17188,-2.6954 -0.008,-1.0527 -0.008,-1.0508 -0.97656,-3.7558 -0.97657,-3.7559 h -0.77929 -0.7793 l -0.92578,2.7539 -0.92578,2.7539 -1.0625,4.7715 -1.06446,4.7715 v 4.9922 4.9941 h -0.9375 -0.9375 v -2.3847 -2.3829 l -2.91992,-9.6347 -2.91992,-9.6328 h -0.68164 -0.67969 l -1.25781,4.2558 -1.25586,4.2559 -0.65234,1.0019 -0.65039,1.002 -0.50977,3.0039 -0.50977,3.0039 -1.11718,4.0059 -1.11914,4.0058 -0.45508,4.5059 -0.45703,4.5078 -0.64649,0.7363 -0.64453,0.7363 -1.23633,-4.7421 -1.23632,-4.7422 -9.43165,-20.5313 -9.43359,-20.5293 -0.36719,-0.4707 -0.36523,-0.4726 -0.80078,1.3847 -0.80078,1.3828 -7.58008,24.4024 -7.58203,24.4004 -0.59571,3.9804 -0.5957,3.9786 h -0.81641 -0.81835 v -1.3243 -1.3261 l -4.18946,-9.1895 -4.1875,-9.1914 h -0.86914 -0.871092 l -9.964844,10.5039 -9.966797,10.502 -10.761719,-11.4942 -5.084921,-6.0444 8.639609,-8.2114 5.035156,-4.7617 v -1.6641 c -5.348922,-5.0404 -10.6979,-10.0808 -16.046875,-15.1211 v -0.9746 -0.9746 c 4.713541,-4.3385 9.427083,-8.6771 14.140625,-13.0156 h 2.398437 2.398438 l 0.621094,-0.9375 -21.417969,-8.8028 -22.925781,-7.10546 H 34.84375 32.693359 l 0.06445,-0.70313 0.06445,-0.70117 19.24414,-8.65039 19.242188,-8.64844 5.015625,-1.44726 5.013672,-1.44922 1.505859,-0.9043 1.503906,-0.90234 -1.503906,-0.92383 -1.505859,-0.92187 -3.509766,-0.50586 -3.509766,-0.50586 -6.519531,-1.76367 -6.519531,-1.76368 -5.265625,-1.19726 -5.265625,-1.19922 V 961.10938 960.5 l 3.759765,-1.01172 3.761719,-1.01172 4.513672,-1.05859 4.513672,-1.05859 2.757813,-1.00196 2.757812,-1.00195 v -0.67188 -0.67187 l -2.554688,-1.08594 -2.554687,-1.08789 H 65.71875 63.734375 l -6.494141,-1.14844 -6.492187,-1.15039 v -0.59961 -0.59961 l 5.765625,-1.5332 5.767578,-1.5332 1.505859,-0.92969 1.503907,-0.93164 -1.503907,-0.91602 -1.505859,-0.91406 -8.080078,-2.36133 -8.080078,-2.36132 h -2.703125 -2.701172 l 0.0332,-0.70313 0.0332,-0.70313 20.027344,-9.21874 20.027344,-9.22071 v -0.4082 -0.41016 l -1.640625,-2.33593 -1.640625,-2.3379 0.566406,-0.52734 0.566406,-0.5293 8.845703,-0.83398 8.847656,-0.83594 4.433594,-0.71289 4.43164,-0.71484 0.3457,-0.97461 0.3457,-0.97266 -20.072258,-9.32617 -20.072266,-9.32422 -0.002,-0.70117 v -0.70313 l 3.259765,-0.0664 3.259766,-0.0644 8.023438,-2.50977 8.023437,-2.50781 v -1.4043 -1.40625 l -6.267578,-1.80078 -6.269531,-1.80274 v -0.65039 -0.65039 l 4.261718,-0.58789 4.263672,-0.58789 5.289063,-0.77344 5.291015,-0.77343 1.091797,-1.01953 1.091797,-1.01954 -0.632812,-0.95703 -0.632813,-0.95703 -5.402344,-1.46484 -5.402343,-1.4668 h -1.902344 -1.902344 l -2.699219,-1.16992 -2.699218,-1.16992 -0.0078,-0.70117 -0.0078,-0.70313 h 2.447265 2.449219 l 0.623047,-0.94336 0.625,-0.94141 -2.070313,-2.71289 -2.068359,-2.71289 v -0.55664 -0.55468 L 74.476562,845.2793 71.126953,840.83008 65.826172,831 l -5.300781,-9.83008 -0.791016,-0.81054 -0.791016,-0.8086 6.431641,-5.61719 6.433594,-5.61914 v -0.82031 -0.82226 l -7.271485,-4.38868 -7.271484,-4.38672 -3.195313,-1.91601 -3.195312,-1.91602 1.0625,-1.19336 1.060547,-1.19336 1.130859,-0.0234 1.13086,-0.0215 3.554687,-3.02148 3.554688,-3.02149 1.392578,-3.27734 1.392578,-3.27539 1.824219,-2.23438 1.822265,-2.23242 v -1.22461 -1.22461 l -2.923828,-1.61328 -2.923828,-1.61133 -1.087891,-2.23046 -1.08789,-2.22852 v -0.3418 -0.34179 l 5.765625,-0.47852 5.767578,-0.48047 4.011719,-0.77344 4.013672,-0.77343 2.005859,-1.11719 2.005859,-1.11524 -1.9375,-1.33593 -1.935547,-1.33399 -4.833984,-1.22851 -4.833984,-1.23047 v -0.57227 -0.57422 l 6.269531,-1.20117 6.267578,-1.20117 5.015625,-0.94531 5.013672,-0.94727 L 97,747.5918 l 3.62695,-0.85547 2.39258,-0.0156 2.39063,-0.0156 1.49609,-0.88281 1.49609,-0.88282 -1.0664,-0.99414 -1.06446,-0.99414 -5.19531,-1.85351 -5.195311,-1.85352 -5.251953,-1.87109 -5.25,-1.87305 h -2.271484 -2.271484 v -0.9375 -0.93555 l 1.755859,-0.0254 1.755859,-0.0273 2.00586,-1.42774 2.005859,-1.42968 -2.005859,-1.11524 -2.00586,-1.11718 -5.517578,-0.74415 -5.515625,-0.74609 -6.324219,-0.50586 -6.322265,-0.50781 0.365234,-1.02149 0.365235,-1.02148 1.443359,-0.72266 1.445312,-0.72265 18.554688,-8.58594 18.556643,-8.58594 0.47265,-0.40625 0.47266,-0.40429 -1.47656,-0.86524 -1.474612,-0.86328 -8.082031,-2.36328 -8.080078,-2.36133 H 81.03125 78.830078 l 0.0078,-0.70117 0.0078,-0.70117 2.701172,-1.16992 2.699219,-1.17188 1.052734,-0.006 1.054688,-0.008 3.761718,-0.97656 3.759766,-0.97461 v -0.77735 -0.77929 l -2.757812,-0.92383 -2.757813,-0.92383 -4.779297,-1.0625 -4.777344,-1.0625 h -5.001953 -5 v -0.93555 -0.9375 h 2.386719 2.388672 l 9.648437,-2.91406 9.648438,-2.91602 v -0.67968 -0.67969 l -4.263672,-1.25391 -4.261719,-1.25586 -1.003906,-0.65039 -1.001953,-0.64843 -3.009766,-0.50977 -3.007812,-0.50781 -4.013672,-1.11719 -4.011719,-1.11719 -4.513672,-0.45508 -4.513672,-0.45507 -0.736328,-0.64454 -0.738281,-0.64648 4.75,-1.23242 4.75,-1.23438 20.560547,-9.41796 20.562503,-9.41797 0.47266,-0.36719 0.4707,-0.36524 -1.38476,-0.79882 -1.38672,-0.80078 -24.439461,-7.56836 -24.4375,-7.56836 -3.986328,-0.59571 -3.984375,-0.59375 v -0.8164 -0.81641 h 1.326171 1.326172 l 9.205078,-4.18359 9.205079,-4.18164 v -0.86719 -0.86914 L 60.287109,606.84766 49.769531,596.89648 61.28125,586.15234 72.791016,575.40625 h 0.685546 0.683594 l 1.833985,-1.54883 1.833984,-1.55078 v -1.66211 -1.66406 l -8.023437,-7.56055 -8.025391,-7.56054 v -0.97461 -0.97461 l 7.070312,-6.50782 7.070313,-6.50976 h 2.40039 2.398438 l 0.619141,-0.93555 0.61914,-0.93555 h 0.886719 v -0.38281 -0.38281 L 59.917969,529.15039 36.994141,522.04297 H 34.84375 32.693359 l 0.06445,-0.70313 0.06445,-0.70117 19.24414,-8.64844 19.242188,-8.65039 5.015625,-1.44726 5.013672,-1.44922 1.505859,-0.90234 1.503906,-0.9043 -1.503906,-0.92188 -1.505859,-0.92382 -3.509766,-0.50586 -3.509766,-0.50391 -6.519531,-1.76367 -6.519531,-1.76367 -5.265625,-1.19922 -5.265625,-1.19727 v -0.61133 -0.60937 l 3.759765,-1.01172 3.761719,-1.01172 4.513672,-1.05859 4.513672,-1.05664 2.757813,-1.00196 2.757812,-1.00195 v -0.67383 -0.67187 l -2.554688,-1.08594 -2.554687,-1.08789 H 65.71875 63.734375 l -6.494141,-1.14844 -6.492187,-1.15039 v -0.59961 -0.59961 l 5.765625,-1.5332 5.767578,-1.53125 1.503906,-0.93164 1.50586,-0.93164 -1.50586,-0.91406 -1.503906,-0.91602 -8.080078,-2.36133 -8.080078,-2.36133 h -2.703125 -2.701172 l 0.0332,-0.70312 0.03125,-0.70117 20.029297,-9.22071 20.027344,-9.21875 v -0.41015 -0.41016 l -1.640625,-2.33594 -1.640625,-2.33789 0.566406,-0.52734 0.566406,-0.5293 8.845703,-0.83398 8.847656,-0.83399 4.431641,-0.71484 4.4336,-0.71484 0.3457,-0.97266 0.3457,-0.97461 -20.072265,-9.32422 -20.072266,-9.32617 -0.002,-0.70117 v -0.70313 l 3.259765,-0.0645 3.259766,-0.0664 8.023438,-2.50976 8.023437,-2.50781 v -1.4043 -1.4043 l -6.267578,-1.80273 -6.269531,-1.80274 v -0.65039 -0.65039 l 4.261718,-0.58789 4.263672,-0.58789 5.289063,-0.77344 5.289062,-0.77343 1.09375,-1.01954 1.091797,-1.01953 -0.632812,-0.95703 -0.632813,-0.95508 -5.402344,-1.46679 -5.402343,-1.46485 h -1.902344 -1.902344 l -2.699219,-1.16992 -2.699218,-1.17187 -0.0078,-0.70118 -0.0078,-0.70312 h 2.447265 2.449219 l 0.623047,-0.94141 0.625,-0.94336 -2.070313,-2.71289 -2.068359,-2.71289 v -0.55468 -0.55665 l -3.351563,-4.44921 -3.349609,-4.44922 -5.300781,-9.83008 -5.300781,-9.83008 -0.791016,-0.81055 -0.792969,-0.80859 6.433594,-5.61719 6.433594,-5.61719 v -0.82226 -0.82227 l -7.271485,-4.38671 -7.271484,-4.38868 -3.195313,-1.91601 -3.195312,-1.91602 1.0625,-1.19336 1.060547,-1.19336 1.130859,-0.0215 1.13086,-0.0215 3.554687,-3.01953 3.554688,-3.02148 1.392578,-3.27735 1.392578,-3.27734 1.824219,-2.23242 1.822265,-2.23242 v -1.22461 -1.22656 l -2.923828,-1.61133 -2.923828,-1.61133 -1.087891,-2.23047 -1.08789,-2.23047 v -0.33984 -0.3418 l 5.765625,-0.47851 5.767578,-0.48047 4.011719,-0.77344 4.011718,-0.77344 2.007813,-1.11719 2.005859,-1.11523 -1.9375,-1.33594 -1.935547,-1.33398 -4.833984,-1.23047 -4.833984,-1.22852 v -0.57422 -0.57226 l 6.267578,-1.20117 6.269531,-1.20117 5.015625,-0.94727 5.013672,-0.94531 L 97,275.73242 l 3.62695,-0.85547 2.39258,-0.0137 2.39063,-0.0156 1.49609,-0.88282 1.49609,-0.88281 -1.0664,-0.99414 -1.06446,-0.99414 -5.19531,-1.85352 -5.195311,-1.85351 -5.251953,-1.8711 -5.25,-1.87304 h -2.271484 -2.271484 v -0.93555 -0.93555 l 1.755859,-0.0293 1.755859,-0.0274 2.00586,-1.42968 2.005859,-1.42774 -2.005859,-1.11719 -2.00586,-1.11523 -5.517578,-0.74609 -5.515625,-0.7461 -6.324219,-0.50586 -6.322265,-0.50781 0.365234,-1.02148 0.365235,-1.02149 1.443359,-0.72265 1.445312,-0.72266 18.554688,-8.58594 18.556643,-8.58594 0.47265,-0.40625 0.47266,-0.40429 -1.47656,-0.86524 -1.474612,-0.86328 -8.082031,-2.36133 -8.080078,-2.36132 H 81.03125 78.830078 l 0.0078,-0.70313 0.0078,-0.70117 2.701172,-1.16992 2.699219,-1.16993 1.052734,-0.008 1.054688,-0.008 3.761718,-0.97461 3.759766,-0.97461 v -0.7793 -0.77929 l -2.757812,-0.92188 -2.757813,-0.92383 -4.779297,-1.0625 -4.777344,-1.0625 h -5.001953 -5 v -0.9375 -0.93554 h 2.386719 2.388672 l 9.648437,-2.91602 9.648438,-2.91406 v -0.67969 -0.67969 l -4.263672,-1.25586 -4.261719,-1.2539 -1.003906,-0.65039 -1.001953,-0.65039 -3.009766,-0.50782 -3.007812,-0.50976 -4.013672,-1.11524 -4.011719,-1.11718 -4.513672,-0.45508 -4.513672,-0.45703 -0.736328,-0.64453 -0.738281,-0.64453 4.75,-1.23438 4.75,-1.23437 20.560547,-9.41797 20.562503,-9.41797 0.4707,-0.36524 0.47266,-0.36718 -1.38476,-0.79883 -1.3867,-0.79838 -24.439456,-7.57031 -24.4375,-7.56836 -3.986328,-0.59375 -3.984375,-0.5957 v -0.81641 -0.81641 h 1.326171 1.326172 l 9.205078,-4.18164 9.205079,-4.18164 v -0.86914 -0.86914 l -10.519532,-9.94922 -10.517578,-9.95117 11.509766,-10.74609 11.511719,-10.74414 h 0.685546 0.683594 l 1.833985,-1.55079 1.833984,-1.54882 v -1.664067 -1.664062 l -8.023437,-7.560547 -8.025391,-7.560547 v -0.974609 -0.97461 l 5.236328,-4.820312 v 0.06055 l 3.599609,-3.43164 4.28711,-13.785156 7.117187,-22.888672 v -2.146485 z"
       transform="scale(0.26458333)"
       id="path5613">
      <title
         id="title816">Border 100  --  by Arvin61r58</title>
    </path>
  </g>
</svg>
