<?xml version="1.0" encoding="utf-8"?>

<!DOCTYPE svg PUBLIC "-//W3C//DTD SVG 1.1//EN" "http://www.w3.org/Graphics/SVG/1.1/DTD/svg11.dtd">
<svg version="1.1" id="Layer_1" xmlns="http://www.w3.org/2000/svg" xmlns:xlink="http://www.w3.org/1999/xlink" x="0px" y="0px"
	 viewBox="0 0 1622.875 1622.875" enable-background="new 0 0 1622.875 1622.875" xml:space="preserve">
<g>
	<path d="M830.263,105.349c-3.04-2.794-6.594-4.259-8.231-7.815c-7.854-17.067,9.604-34.698,22.56-26.184
		c7.755,5.096-0.504,23.243-8.977,13.901c-3.272-3.607,1.427-8.637,1.266-9.659c-2.331-0.719-4.162,0.344-5.759,1.758
		c-10.174,9.011-2.352,25.089,7.683,22.485c25.546-6.631,26.011-32.396,10.953-39.755c-8.38-4.096-31.447-1.043-36.802,36.063
		c-0.586,4.056,6.276,3.058,8.25,9.709c0.307,1.033,1.63,1.537,2.487,1.066C825.61,105.866,827.871,106.53,830.263,105.349z
		 M105.349,792.612c-2.794,3.04-4.259,6.594-7.815,8.231c-17.067,7.854-34.698-9.604-26.184-22.56
		c5.096-7.755,23.243,0.504,13.901,8.977c-3.607,3.272-8.637-1.427-9.659-1.266c-0.719,2.331,0.344,4.162,1.758,5.759
		c9.011,10.174,25.089,2.352,22.485-7.683c-6.631-25.546-32.396-26.011-39.755-10.953c-4.096,8.38-1.043,31.447,36.063,36.802
		c4.056,0.586,3.058-6.276,9.709-8.25c1.033-0.307,1.537-1.63,1.066-2.487C105.866,797.265,106.53,795.004,105.349,792.612z
		 M792.612,1517.526c3.04,2.794,6.594,4.259,8.231,7.815c7.854,17.067-9.604,34.698-22.56,26.184
		c-7.755-5.096,0.504-23.243,8.977-13.901c3.272,3.607-1.427,8.637-1.266,9.659c2.331,0.719,4.162-0.344,5.759-1.758
		c10.174-9.011,2.352-25.089-7.683-22.484c-25.546,6.631-26.011,32.396-10.953,39.755c8.38,4.096,31.447,1.043,36.802-36.063
		c0.586-4.056-6.276-3.058-8.25-9.709c-0.307-1.033-1.63-1.537-2.487-1.066C797.265,1517.009,795.004,1516.345,792.612,1517.526z
		 M1517.526,830.263c2.794-3.04,4.259-6.594,7.815-8.231c17.067-7.854,34.698,9.604,26.184,22.56
		c-5.096,7.755-23.243-0.504-13.901-8.977c3.607-3.272,8.637,1.427,9.659,1.266c0.719-2.331-0.344-4.162-1.758-5.759
		c-9.011-10.174-25.089-2.352-22.484,7.683c6.631,25.546,32.396,26.011,39.755,10.953c4.096-8.38,1.043-31.447-36.063-36.802
		c-4.056-0.586-3.058,6.276-9.709,8.25c-1.033,0.307-1.537,1.63-1.066,2.487C1517.009,825.61,1516.345,827.871,1517.526,830.263z
		 M1515.957,799.182c-0.471,0.858,0.034,2.181,1.066,2.487c6.651,1.974,5.653,8.836,9.709,8.25
		c37.106-5.355,40.159-28.422,36.063-36.802c-7.359-15.058-33.124-14.593-39.755,10.953c-2.604,10.035,13.474,17.857,22.484,7.683
		c1.414-1.597,2.477-3.428,1.758-5.759c-1.022-0.161-6.052,4.538-9.659,1.266c-9.342-8.474,8.806-16.732,13.901-8.977
		c8.514,12.956-9.117,30.414-26.184,22.56c-3.555-1.637-5.021-5.191-7.815-8.231
		C1516.345,795.004,1517.009,797.265,1515.957,799.182z M799.182,106.919c0.858,0.471,2.181-0.034,2.487-1.066
		c1.974-6.651,8.836-5.653,8.25-9.709c-5.355-37.106-28.422-40.159-36.802-36.063c-15.058,7.359-14.593,33.124,10.953,39.755
		c10.035,2.604,17.857-13.474,7.683-22.485c-1.597-1.414-3.428-2.477-5.759-1.758c-0.161,1.022,4.538,6.052,1.266,9.659
		c-8.474,9.342-16.732-8.806-8.977-13.901c12.956-8.514,30.414,9.117,22.56,26.184c-1.637,3.556-5.191,5.021-8.231,7.815
		C795.004,106.53,797.265,105.866,799.182,106.919z M106.919,823.694c0.471-0.858-0.034-2.181-1.066-2.487
		c-6.651-1.974-5.653-8.836-9.709-8.25c-37.106,5.355-40.159,28.422-36.063,36.802c7.359,15.058,33.124,14.593,39.755-10.953
		c2.604-10.035-13.474-17.857-22.485-7.683c-1.414,1.597-2.477,3.428-1.758,5.759c1.022,0.161,6.052-4.538,9.659-1.266
		c9.342,8.474-8.806,16.732-13.901,8.977c-8.514-12.956,9.117-30.414,26.184-22.56c3.556,1.637,5.021,5.191,7.815,8.231
		C106.53,827.871,105.866,825.61,106.919,823.694z M823.694,1515.957c-0.858-0.471-2.181,0.034-2.487,1.066
		c-1.974,6.651-8.836,5.653-8.25,9.709c5.355,37.106,28.422,40.159,36.802,36.063c15.058-7.359,14.593-33.124-10.953-39.755
		c-10.035-2.604-17.857,13.474-7.683,22.484c1.597,1.414,3.428,2.477,5.759,1.758c0.161-1.022-4.538-6.052-1.266-9.659
		c8.474-9.342,16.732,8.806,8.977,13.901c-12.956,8.514-30.414-9.117-22.56-26.184c1.637-3.555,5.191-5.021,8.231-7.815
		C827.871,1516.345,825.61,1517.009,823.694,1515.957z M1273.362,53.298c14.081,11.196,30.426,17.334,41.979,30.108
		C1308.128,64.993,1290.721,52.209,1273.362,53.298z M53.298,349.513c11.196-14.081,17.334-30.426,30.108-41.979
		C64.993,314.747,52.209,332.155,53.298,349.513z M349.513,1569.577c-14.081-11.196-30.426-17.334-41.979-30.108
		C314.747,1557.883,332.155,1570.666,349.513,1569.577z M1569.577,1273.362c-11.196,14.081-17.334,30.426-30.108,41.979
		C1557.883,1308.128,1570.666,1290.721,1569.577,1273.362z M1539.469,307.534c12.774,11.553,18.913,27.898,30.108,41.979
		C1570.666,332.155,1557.883,314.747,1539.469,307.534z M307.534,83.407c11.553-12.774,27.898-18.913,41.979-30.108
		C332.155,52.209,314.747,64.993,307.534,83.407z M83.407,1315.341c-12.774-11.553-18.913-27.898-30.108-41.979
		C52.209,1290.721,64.993,1308.128,83.407,1315.341z M1315.341,1539.469c-11.553,12.774-27.898,18.913-41.979,30.108
		C1290.721,1570.666,1308.128,1557.883,1315.341,1539.469z M1232.189,53.443c-13.411-3.772-37.37,16.919-39.338,27.329
		C1204.733,69.788,1219.449,63.532,1232.189,53.443z M53.443,390.687c-3.772,13.411,16.919,37.37,27.329,39.338
		C69.788,418.142,63.532,403.427,53.443,390.687z M390.687,1569.433c13.411,3.772,37.37-16.919,39.338-27.329
		C418.142,1553.088,403.427,1559.344,390.687,1569.433z M1569.433,1232.189c3.772-13.411-16.919-37.37-27.329-39.338
		C1553.088,1204.733,1559.344,1219.449,1569.433,1232.189z M1542.103,430.025c10.411-1.969,31.101-25.927,27.329-39.338
		C1559.344,403.427,1553.088,418.142,1542.103,430.025z M430.025,80.772c-1.969-10.411-25.927-31.101-39.338-27.329
		C403.427,63.532,418.142,69.788,430.025,80.772z M80.772,1192.85c-10.411,1.969-31.101,25.927-27.329,39.338
		C63.532,1219.449,69.788,1204.733,80.772,1192.85z M1192.85,1542.103c1.969,10.411,25.927,31.101,39.338,27.329
		C1219.449,1559.344,1204.733,1553.088,1192.85,1542.103z M1253.189,56.807c2.089-1.706,3.136-4.472,5.668-5.846
		c2.305-1.25-0.167-1.647-5.937-11.675c-1.998,3.435-4.835,6.128-5.825,9.103c-1.244,3.737,4.164,5.089,5.623,8.238
		C1252.758,56.716,1252.966,56.727,1253.189,56.807z M56.807,369.687c-1.706-2.088-4.472-3.136-5.846-5.668
		c-1.25-2.305-1.647,0.167-11.675,5.937c3.435,1.998,6.128,4.835,9.103,5.825c3.737,1.244,5.089-4.164,8.238-5.623
		C56.716,370.117,56.727,369.909,56.807,369.687z M369.687,1566.068c-2.088,1.706-3.136,4.472-5.668,5.846
		c-2.305,1.25,0.167,1.647,5.937,11.675c1.998-3.435,4.835-6.128,5.825-9.103c1.244-3.737-4.164-5.089-5.623-8.238
		C370.117,1566.159,369.909,1566.148,369.687,1566.068z M1566.068,1253.189c1.706,2.089,4.472,3.136,5.846,5.668
		c1.25,2.305,1.647-0.167,11.675-5.937c-3.435-1.998-6.128-4.835-9.103-5.825c-3.737-1.244-5.089,4.164-8.238,5.623
		C1566.159,1252.758,1566.148,1252.966,1566.068,1253.189z M1566.248,370.158c3.149,1.459,4.501,6.866,8.238,5.623
		c2.975-0.99,5.668-3.827,9.103-5.825c-10.028-5.77-10.425-8.242-11.675-5.937c-1.374,2.532-4.14,3.58-5.846,5.668
		C1566.148,369.909,1566.159,370.117,1566.248,370.158z M370.158,56.628c1.459-3.149,6.866-4.501,5.623-8.238
		c-0.99-2.975-3.827-5.668-5.825-9.103c-5.77,10.028-8.242,10.425-5.937,11.675c2.532,1.374,3.58,4.14,5.668,5.846
		C369.909,56.727,370.117,56.716,370.158,56.628z M56.628,1252.718c-3.149-1.459-4.501-6.866-8.238-5.623
		c-2.975,0.99-5.668,3.827-9.103,5.825c10.028,5.77,10.425,8.242,11.675,5.937c1.374-2.532,4.14-3.58,5.846-5.668
		C56.727,1252.966,56.716,1252.758,56.628,1252.718z M1252.718,1566.248c-1.459,3.149-6.866,4.501-5.623,8.238
		c0.99,2.975,3.827,5.668,5.825,9.103c5.77-10.028,8.242-10.425,5.937-11.675c-2.532-1.374-3.58-4.14-5.668-5.846
		C1252.966,1566.148,1252.758,1566.159,1252.718,1566.248z M1427.859,59.046c-10.351,6.445-15.692,16.408-21.505,25.985
		C1416.489,79.002,1421.97,69.153,1427.859,59.046z M59.046,195.016c6.445,10.351,16.408,15.692,25.985,21.505
		C79.002,206.386,69.153,200.906,59.046,195.016z M195.016,1563.829c10.351-6.445,15.692-16.408,21.505-25.985
		C206.386,1543.873,200.906,1553.722,195.016,1563.829z M1563.829,1427.859c-6.445-10.351-16.408-15.692-25.985-21.505
		C1543.873,1416.489,1553.722,1421.97,1563.829,1427.859z M1537.844,216.521c9.577-5.812,19.54-11.154,25.985-21.505
		C1553.722,200.906,1543.873,206.386,1537.844,216.521z M216.521,85.031c-5.812-9.577-11.154-19.54-21.505-25.985
		C200.906,69.153,206.386,79.002,216.521,85.031z M85.031,1406.355c-9.577,5.813-19.54,11.154-25.985,21.505
		C69.153,1421.97,79.002,1416.489,85.031,1406.355z M1406.355,1537.844c5.813,9.577,11.154,19.54,21.505,25.985
		C1421.97,1553.722,1416.489,1543.873,1406.355,1537.844z M953.179,84.661c-8.244-14.669-16.394-24.178-22.072-25.762
		C937.307,68.398,942.584,78.458,953.179,84.661z M84.661,669.696c-14.669,8.244-24.178,16.394-25.762,22.072
		C68.398,685.568,78.458,680.291,84.661,669.696z M669.696,1538.215c8.244,14.669,16.394,24.178,22.072,25.762
		C685.568,1554.478,680.291,1544.417,669.696,1538.215z M1538.215,953.179c14.669-8.244,24.178-16.394,25.762-22.072
		C1554.478,937.307,1544.417,942.584,1538.215,953.179z M1563.977,691.769c-1.584-5.679-11.093-13.828-25.762-22.072
		C1544.417,680.291,1554.478,685.568,1563.977,691.769z M691.769,58.899c-5.679,1.584-13.828,11.093-22.072,25.762
		C680.291,78.458,685.568,68.398,691.769,58.899z M58.899,931.107c1.584,5.678,11.093,13.828,25.762,22.072
		C78.458,942.584,68.398,937.307,58.899,931.107z M931.107,1563.977c5.678-1.584,13.828-11.093,22.072-25.762
		C942.584,1544.417,937.307,1554.478,931.107,1563.977z M1100.069,85.629c-5.359-10.944-14.511-23.14-21.212-25.308
		C1086.287,71.873,1089.498,78.846,1100.069,85.629z M85.629,522.806c-10.944,5.359-23.14,14.511-25.308,21.212
		C71.873,536.588,78.846,533.377,85.629,522.806z M522.806,1537.246c5.359,10.944,14.511,23.14,21.212,25.308
		C536.588,1551.002,533.377,1544.029,522.806,1537.246z M1537.246,1100.069c10.944-5.359,23.14-14.511,25.308-21.212
		C1551.002,1086.287,1544.029,1089.498,1537.246,1100.069z M1562.554,544.018c-2.168-6.701-14.364-15.854-25.308-21.212
		C1544.029,533.377,1551.002,536.588,1562.554,544.018z M544.018,60.321c-6.701,2.168-15.854,14.364-21.212,25.308
		C533.377,78.846,536.588,71.873,544.018,60.321z M60.321,1078.857c2.168,6.701,14.364,15.854,25.308,21.212
		C78.846,1089.498,71.873,1086.287,60.321,1078.857z M1078.857,1562.554c6.701-2.168,15.854-14.364,21.212-25.308
		C1089.498,1544.029,1086.287,1551.002,1078.857,1562.554z M868.444,159.421c-10.716-5.636-20.158-10.809-24.818-20
		c-0.615-1.214-3.743-1.536-4.157,1.548c0,0,13.074,7.29,21.982,22.578C863.072,161.254,865.081,159.846,868.444,159.421z
		 M159.421,754.431c-5.636,10.716-10.809,20.158-20,24.818c-1.214,0.615-1.536,3.743,1.548,4.157c0,0,7.29-13.074,22.578-21.982
		C161.254,759.803,159.846,757.795,159.421,754.431z M754.431,1463.454c10.716,5.636,20.158,10.809,24.818,20
		c0.615,1.214,3.743,1.536,4.157-1.548c0,0-13.074-7.29-21.982-22.578C759.803,1461.622,757.795,1463.03,754.431,1463.454z
		 M1463.454,868.444c5.636-10.716,10.809-20.158,20-24.818c1.214-0.615,1.536-3.743-1.548-4.157c0,0-7.29,13.074-22.578,21.982
		C1461.622,863.072,1463.03,865.081,1463.454,868.444z M1459.328,761.423c15.288,8.908,22.578,21.982,22.578,21.982
		c3.084-0.413,2.763-3.541,1.548-4.157c-9.191-4.659-14.364-14.101-20-24.818C1463.03,757.795,1461.622,759.803,1459.328,761.423z
		 M761.423,163.547c8.908-15.288,21.982-22.578,21.982-22.578c-0.413-3.084-3.541-2.763-4.157-1.548
		c-4.659,9.191-14.101,14.364-24.818,20C757.795,159.846,759.803,161.254,761.423,163.547z M163.547,861.452
		c-15.288-8.908-22.578-21.982-22.578-21.982c-3.084,0.413-2.763,3.541-1.548,4.157c9.191,4.659,14.364,14.101,20,24.818
		C159.846,865.081,161.254,863.072,163.547,861.452z M861.452,1459.328c-8.908,15.288-21.982,22.578-21.982,22.578
		c0.413,3.084,3.541,2.763,4.157,1.548c4.659-9.191,14.101-14.364,24.818-20C865.081,1463.03,863.072,1461.622,861.452,1459.328z
		 M1237.545,65.821c-0.851,10.627,13.956,5.58,6.452-7.115c-2.24-3.789-3.397-3.702-6.569,0.326
		C1248.767,60.4,1240.406,74.375,1237.545,65.821z M65.821,385.33c10.627,0.851,5.58-13.956-7.115-6.452
		c-3.789,2.24-3.702,3.397,0.326,6.569C60.4,374.108,74.375,382.469,65.821,385.33z M385.33,1557.054
		c0.851-10.627-13.956-5.58-6.452,7.115c2.24,3.789,3.397,3.702,6.569-0.326C374.108,1562.475,382.469,1548.501,385.33,1557.054z
		 M1557.054,1237.545c-10.627-0.851-5.58,13.956,7.115,6.452c3.789-2.24,3.702-3.397-0.326-6.569
		C1562.475,1248.767,1548.501,1240.406,1557.054,1237.545z M1563.844,385.447c4.028-3.172,4.115-4.329,0.326-6.569
		c-12.695-7.504-17.742,7.303-7.115,6.452C1548.501,382.469,1562.475,374.108,1563.844,385.447z M385.447,59.032
		c-3.172-4.028-4.329-4.115-6.569-0.326c-7.504,12.695,7.303,17.742,6.452,7.115C382.469,74.375,374.108,60.4,385.447,59.032z
		 M59.032,1237.428c-4.028,3.172-4.115,4.329-0.326,6.569c12.695,7.504,17.742-7.303,7.115-6.452
		C74.375,1240.406,60.4,1248.767,59.032,1237.428z M1237.428,1563.844c3.172,4.028,4.329,4.115,6.569,0.326
		c7.504-12.695-7.303-17.742-6.452-7.115C1240.406,1548.501,1248.767,1562.475,1237.428,1563.844z M1269.16,58.97
		c-3.708-3.694-6.527-4.75-9.324,5.852c-0.981,3.719,4.167,9.192,7.955,5.524c1.337-1.294,2.562-3.07,0.683-4.939
		c-1.43,0.094-0.929,3.903-4.232,3.371C1262.097,68.431,1260.988,60.201,1269.16,58.97z M58.97,353.715
		c-3.694,3.708-4.75,6.527,5.852,9.324c3.719,0.981,9.192-4.167,5.524-7.955c-1.294-1.337-3.07-2.562-4.939-0.683
		c0.094,1.43,3.903,0.929,3.371,4.232C68.431,360.779,60.201,361.887,58.97,353.715z M353.715,1563.906
		c3.708,3.694,6.527,4.75,9.324-5.852c0.981-3.719-4.167-9.192-7.955-5.524c-1.337,1.295-2.562,3.07-0.683,4.939
		c1.43-0.094,0.929-3.903,4.232-3.371C360.779,1554.444,361.887,1562.674,353.715,1563.906z M1563.906,1269.16
		c3.694-3.708,4.75-6.527-5.852-9.324c-3.719-0.981-9.192,4.167-5.524,7.955c1.295,1.337,3.07,2.562,4.939,0.683
		c-0.094-1.43-3.903-0.929-3.371-4.232C1554.444,1262.097,1562.674,1260.988,1563.906,1269.16z M1554.098,358.633
		c-0.532-3.303,3.276-2.802,3.371-4.232c-1.869-1.878-3.645-0.654-4.939,0.683c-3.668,3.788,1.805,8.936,5.524,7.955
		c10.602-2.797,9.546-5.617,5.852-9.324C1562.674,361.887,1554.444,360.779,1554.098,358.633z M358.633,68.778
		c-3.303,0.532-2.802-3.276-4.232-3.371c-1.878,1.869-0.654,3.645,0.683,4.939c3.788,3.668,8.936-1.805,7.955-5.524
		c-2.797-10.602-5.617-9.546-9.324-5.852C361.887,60.201,360.779,68.431,358.633,68.778z M68.778,1264.242
		c0.532,3.303-3.276,2.802-3.371,4.232c1.869,1.878,3.645,0.654,4.939-0.683c3.668-3.788-1.805-8.936-5.524-7.955
		c-10.602,2.797-9.546,5.617-5.852,9.324C60.201,1260.988,68.431,1262.097,68.778,1264.242z M1264.242,1554.098
		c3.303-0.532,2.802,3.276,4.232,3.371c1.878-1.869,0.654-3.645-0.683-4.939c-3.788-3.668-8.936,1.805-7.955,5.524
		c2.797,10.602,5.617,9.546,9.324,5.852C1260.988,1562.674,1262.097,1554.444,1264.242,1554.098z M811.438,71.044
		c0.458-1.061,0.975-2.088,1.63-3.062c15-22.313,42.477-27.136,54.493-6.426c1.022-0.903,23.823-34.122,67.139-8.099
		c16.537,9.935,21.555,31.361,40.96,35.792c36.679,8.375,44.934-45.798,9.717-38.897c-30.356,5.949-10.3,38.502,1.992,23.258
		c-9.898-1.598-7.885-11.897-0.417-12.294c12.945-0.687,10.326,15.447,0.563,20.19c-16.183,7.863-32.8-11.629-19.898-27.406
		c15.155-18.531,42.775-18.449,50.717,5.26c20.299-21.679,52.836-13.548,66.698-2.799c13.907,10.785,18.898,27.291,36.432,33.675
		c28.81,10.489,50.497-34.201,19.968-38.989c-17.412-2.731-34.354,18.293-17.855,26.622c3.831,1.934,9.098,0.625,11.711-3.206
		c-10.428-1.294-7.114-10.759-1.06-12.046c12.608-2.68,12.804,18.286-1.862,21.539c-13.35,2.962-28.796-8.776-18.425-26.843
		c6.103-10.631,23.305-17.176,35.286-13.685c20.176,5.879,27.479,36.269-1.354,52.764c15.454-4.923,32.829-24.077,37.039-39.19
		c1.671-5.999-4.257-11.182-6.997-7.66c4.721,0.901,4.72,4.373,4.062,7.815c-1.042,5.451-14.504,5.867-14.507-2.638
		c-0.002-9.524,2.672-14.753,13.105-13.742c12.837,1.244,12.072,15.941,12.251,16.962c9.855-7.907,60.695-21.984,50.991-40.181
		c-2.943-5.519,6.039-7.812,8.672-4.767c3.239,3.747-1.43,5.393-2.56,9.739c-2.002,7.695-6.826,13.443-12.483,18.695
		c-1.076,0.999-4.107,2.039-2.234,3.629c11.943,10.141,17.159-31.386,20.11-14.863c1.106,6.188,4.428,11.358,8.89,15.439
		c2.238,2.047,5.734,0.643,8.863-0.865c-3.65-3.316-13.918-11.235-16.412-22.547c-0.256-1.163-0.812-2.117-1.717-2.845
		c-4.675-3.759,0.23-10.789,6.725-6.697c5.876,3.704-2.562,6.152,0.883,12.757c9.931,19.041,34.649,20.441,51.185,32.915
		c-1.281-14.151,9.998-20.078,18.974-16.666c8.307,3.159,9.134,19.295-1.598,19.558c-7.815,0.192-10.948-9.176-2.325-11.674
		c-20.339-9.725,5.029,46.265,31.467,47.601c-51.68-31.859,3.411-78.237,31.366-40.257c15.984,21.715-16.921,38.248-27.743,19.728
		c-2.386-4.083,0.042-18.88,10.496-13.109c4.609,2.545,6.286,10.93-3.062,10.962c1.34,6.382,12.263,4.698,15.267,0.486
		c7.691-10.781-4.332-22.933-17.04-23.788c-16.877-1.135-25.909,18.103-13.225,31.266c26.401,27.401,50.807-11.341,57.194-18.849
		c9.198-10.813,48.831-32.84,74.024-4.449c10.681-27.571,44.682-20.637,53.77-0.224c9.722,21.837-19.33,33.137-29.645,16.007
		c-7.847-13.03,12.598-19.085,13.523-7.713c0.379,4.655-0.523,5.592-6.433,6.414c5.212,9.469,22.962,0.29,17.206-11.814
		c-4.809-10.115-19.048-15.035-29.013-10.026c-22.984,11.553,1.155,47.377,27.701,36.431
		c-10.945,26.546,24.878,50.685,36.431,27.701c5.009-9.965,0.089-24.203-10.026-29.013c-12.104-5.756-21.282,11.994-11.814,17.206
		c0.821-5.91,1.759-6.812,6.414-6.433c11.372,0.925,5.317,21.37-7.713,13.523c-17.13-10.315-5.83-39.368,16.007-29.645
		c20.412,9.088,27.347,43.089-0.224,53.77c28.391,25.193,6.364,64.826-4.449,74.024c-7.508,6.387-46.249,30.793-18.849,57.194
		c13.163,12.684,32.401,3.652,31.266-13.225c-0.855-12.707-13.007-24.73-23.788-17.04c-4.211,3.004-5.896,13.927,0.486,15.267
		c0.033-9.348,8.417-7.671,10.962-3.062c5.771,10.454-9.026,12.882-13.109,10.496c-18.52-10.822-1.987-43.726,19.728-27.743
		c37.98,27.955-8.398,83.046-40.257,31.366c1.336,26.438,57.326,51.806,47.601,31.467c-2.498,8.623-11.866,5.49-11.674-2.325
		c0.263-10.732,16.4-9.905,19.558-1.598c3.412,8.976-2.515,20.255-16.666,18.974c12.474,16.536,13.874,41.254,32.915,51.185
		c6.605,3.445,9.053-4.993,12.757,0.883c4.093,6.495-2.938,11.401-6.697,6.725c-0.728-0.905-1.682-1.461-2.845-1.717
		c-11.312-2.494-19.232-12.762-22.547-16.412c-1.508,3.129-2.912,6.626-0.865,8.863c4.082,4.462,9.251,7.784,15.439,8.89
		c16.523,2.95-25.003,8.167-14.863,20.11c1.59,1.873,2.63-1.157,3.629-2.234c5.252-5.657,11.001-10.481,18.696-12.483
		c4.345-1.13,5.991-5.799,9.739-2.561c3.045,2.633,0.752,11.615-4.767,8.672c-18.197-9.704-32.274,41.135-40.181,50.991
		c1.021,0.18,15.719-0.586,16.962,12.251c1.011,10.433-4.218,13.107-13.742,13.105c-8.505-0.003-8.089-13.466-2.638-14.507
		c3.442-0.658,6.914-0.659,7.815,4.062c3.522-2.74-1.661-8.669-7.66-6.997c-15.113,4.209-34.267,21.585-39.19,37.039
		c16.495-28.833,46.886-21.53,52.764-1.354c3.491,11.981-3.054,29.183-13.685,35.286c-18.067,10.37-29.805-5.075-26.843-18.425
		c3.253-14.666,24.22-14.47,21.539-1.862c-1.287,6.054-10.752,9.368-12.046-1.06c-3.832,2.613-5.14,7.881-3.206,11.711
		c8.328,16.499,29.353-0.443,26.622-17.855c-4.788-30.53-49.478-8.842-38.989,19.968c6.384,17.534,22.89,22.525,33.675,36.433
		c10.749,13.862,18.88,46.4-2.799,66.698c23.709,7.942,23.791,35.561,5.26,50.717c-15.776,12.902-35.269-3.715-27.406-19.898
		c4.743-9.763,20.877-12.381,20.19,0.563c-0.397,7.467-10.696,9.481-12.294-0.417c-15.244,12.292,17.31,32.348,23.258,1.992
		c6.901-35.217-47.272-26.962-38.897,9.717c4.431,19.404,25.857,24.423,35.792,40.96c26.023,43.316-7.196,66.116-8.099,67.139
		c20.71,12.017,15.887,39.494-6.426,54.493c-0.974,0.655-2,1.172-3.062,1.63c1.061,0.458,2.088,0.975,3.062,1.63
		c22.313,15,27.136,42.477,6.426,54.493c0.903,1.022,34.122,23.823,8.099,67.139c-9.934,16.537-31.361,21.555-35.792,40.96
		c-8.375,36.679,45.797,44.934,38.897,9.717c-5.949-30.356-38.502-10.3-23.258,1.992c1.598-9.898,11.897-7.885,12.294-0.417
		c0.687,12.945-15.447,10.326-20.19,0.563c-7.863-16.183,11.629-32.8,27.406-19.898c18.531,15.155,18.449,42.775-5.26,50.717
		c21.679,20.299,13.548,52.836,2.799,66.698c-10.785,13.907-27.291,18.898-33.675,36.432c-10.489,28.81,34.201,50.497,38.989,19.968
		c2.731-17.412-18.293-34.354-26.622-17.855c-1.934,3.831-0.625,9.098,3.206,11.711c1.294-10.428,10.759-7.114,12.046-1.06
		c2.68,12.608-18.286,12.804-21.539-1.862c-2.962-13.35,8.776-28.796,26.843-18.425c10.631,6.103,17.176,23.305,13.685,35.286
		c-5.878,20.176-36.269,27.479-52.764-1.354c4.923,15.454,24.077,32.829,39.19,37.039c5.999,1.671,11.182-4.257,7.66-6.997
		c-0.901,4.721-4.373,4.72-7.815,4.062c-5.451-1.042-5.867-14.504,2.638-14.507c9.524-0.002,14.753,2.672,13.742,13.105
		c-1.244,12.837-15.941,12.072-16.962,12.251c7.907,9.855,21.984,60.695,40.181,50.991c5.519-2.943,7.812,6.039,4.767,8.672
		c-3.747,3.239-5.393-1.43-9.739-2.56c-7.695-2.002-13.443-6.826-18.696-12.483c-0.999-1.076-2.039-4.107-3.629-2.234
		c-10.141,11.943,31.385,17.159,14.863,20.11c-6.188,1.106-11.358,4.428-15.439,8.89c-2.047,2.238-0.643,5.734,0.865,8.863
		c3.316-3.65,11.235-13.918,22.547-16.412c1.162-0.256,2.117-0.812,2.845-1.717c3.759-4.675,10.789,0.23,6.697,6.725
		c-3.704,5.876-6.152-2.562-12.757,0.883c-19.041,9.931-20.441,34.649-32.915,51.185c14.151-1.281,20.078,9.998,16.666,18.974
		c-3.159,8.307-19.296,9.134-19.558-1.598c-0.192-7.815,9.176-10.948,11.674-2.325c9.725-20.339-46.265,5.029-47.601,31.467
		c31.859-51.68,78.237,3.411,40.257,31.366c-21.715,15.984-38.248-16.921-19.728-27.743c4.083-2.386,18.88,0.042,13.109,10.496
		c-2.545,4.609-10.929,6.286-10.962-3.062c-6.382,1.34-4.698,12.263-0.486,15.267c10.781,7.691,22.933-4.332,23.788-17.04
		c1.135-16.877-18.103-25.909-31.266-13.225c-27.401,26.401,11.341,50.807,18.849,57.194c10.813,9.198,32.84,48.831,4.449,74.024
		c27.571,10.681,20.637,44.682,0.224,53.77c-21.837,9.722-33.137-19.33-16.007-29.645c13.03-7.847,19.085,12.598,7.713,13.523
		c-4.655,0.379-5.592-0.523-6.414-6.433c-9.469,5.212-0.29,22.962,11.814,17.206c10.115-4.809,15.035-19.048,10.026-29.013
		c-11.553-22.984-47.376,1.155-36.431,27.701c-26.546-10.945-50.685,24.878-27.701,36.431c9.965,5.009,24.203,0.089,29.013-10.026
		c5.756-12.104-11.994-21.282-17.206-11.814c5.91,0.821,6.812,1.759,6.433,6.414c-0.925,11.372-21.37,5.317-13.523-7.713
		c10.315-17.13,39.368-5.83,29.645,16.007c-9.088,20.412-43.089,27.347-53.77-0.224c-25.193,28.391-64.826,6.364-74.024-4.449
		c-6.387-7.508-30.793-46.249-57.194-18.849c-12.684,13.163-3.652,32.401,13.225,31.266c12.707-0.855,24.73-13.007,17.04-23.788
		c-3.004-4.211-13.927-5.896-15.267,0.486c9.348,0.033,7.672,8.417,3.062,10.962c-10.454,5.771-12.882-9.026-10.496-13.109
		c10.822-18.52,43.726-1.987,27.743,19.728c-27.955,37.98-83.046-8.398-31.366-40.257c-26.438,1.336-51.806,57.326-31.467,47.601
		c-8.623-2.498-5.49-11.866,2.325-11.674c10.732,0.263,9.905,16.4,1.598,19.558c-8.976,3.412-20.255-2.515-18.974-16.666
		c-16.536,12.474-41.254,13.874-51.185,32.915c-3.445,6.605,4.993,9.053-0.883,12.757c-6.495,4.093-11.401-2.938-6.725-6.697
		c0.905-0.728,1.461-1.682,1.717-2.845c2.494-11.312,12.762-19.232,16.412-22.547c-3.129-1.508-6.626-2.912-8.863-0.865
		c-4.462,4.082-7.784,9.251-8.89,15.439c-2.95,16.523-8.167-25.003-20.11-14.863c-1.873,1.59,1.157,2.63,2.234,3.629
		c5.657,5.252,10.481,11.001,12.483,18.696c1.13,4.345,5.799,5.991,2.56,9.739c-2.633,3.045-11.615,0.752-8.672-4.767
		c9.704-18.197-41.135-32.274-50.991-40.181c-0.18,1.021,0.586,15.719-12.251,16.962c-10.433,1.011-13.107-4.218-13.105-13.742
		c0.003-8.505,13.466-8.089,14.507-2.638c0.658,3.442,0.659,6.914-4.062,7.815c2.74,3.522,8.668-1.661,6.997-7.66
		c-4.209-15.113-21.585-34.267-37.039-39.19c28.833,16.495,21.53,46.886,1.354,52.764c-11.981,3.491-29.183-3.054-35.286-13.685
		c-10.37-18.067,5.075-29.805,18.425-26.843c14.666,3.253,14.47,24.22,1.862,21.539c-6.054-1.287-9.368-10.752,1.06-12.046
		c-2.613-3.832-7.881-5.14-11.711-3.206c-16.499,8.328,0.443,29.353,17.855,26.622c30.53-4.788,8.842-49.478-19.968-38.989
		c-17.534,6.384-22.525,22.89-36.432,33.675c-13.862,10.749-46.4,18.88-66.698-2.799c-7.942,23.709-35.561,23.791-50.717,5.26
		c-12.902-15.776,3.715-35.269,19.898-27.406c9.763,4.743,12.381,20.877-0.563,20.19c-7.467-0.397-9.481-10.696,0.417-12.294
		c-12.292-15.244-32.348,17.31-1.992,23.258c35.217,6.901,26.962-47.272-9.717-38.897c-19.404,4.431-24.423,25.857-40.96,35.792
		c-43.316,26.023-66.116-7.196-67.139-8.099c-12.017,20.71-39.494,15.887-54.493-6.426c-0.655-0.974-1.172-2-1.63-3.062
		c-0.458,1.061-0.975,2.088-1.63,3.062c-15,22.313-42.477,27.136-54.493,6.426c-1.022,0.903-23.823,34.122-67.139,8.099
		c-16.537-9.934-21.556-31.361-40.96-35.792c-36.679-8.375-44.935,45.797-9.717,38.897c30.356-5.949,10.3-38.502-1.992-23.258
		c9.898,1.598,7.885,11.897,0.417,12.294c-12.945,0.687-10.326-15.447-0.563-20.19c16.183-7.863,32.8,11.629,19.898,27.406
		c-15.155,18.531-42.775,18.449-50.717-5.26c-20.299,21.679-52.836,13.548-66.698,2.799c-13.907-10.785-18.899-27.291-36.433-33.675
		c-28.81-10.489-50.497,34.201-19.968,38.989c17.412,2.731,34.354-18.293,17.855-26.622c-3.831-1.934-9.098-0.625-11.711,3.206
		c10.428,1.294,7.114,10.759,1.06,12.046c-12.608,2.68-12.804-18.286,1.862-21.539c13.35-2.962,28.796,8.776,18.425,26.843
		c-6.103,10.631-23.305,17.176-35.286,13.685c-20.176-5.878-27.479-36.269,1.354-52.764c-15.454,4.923-32.829,24.077-37.039,39.19
		c-1.671,5.999,4.257,11.182,6.997,7.66c-4.721-0.901-4.72-4.373-4.062-7.815c1.042-5.451,14.504-5.867,14.507,2.638
		c0.002,9.524-2.672,14.753-13.105,13.742c-12.837-1.244-12.072-15.941-12.251-16.962c-9.855,7.907-60.695,21.984-50.991,40.181
		c2.943,5.519-6.039,7.812-8.672,4.767c-3.239-3.747,1.431-5.393,2.561-9.739c2.002-7.695,6.826-13.443,12.483-18.696
		c1.076-0.999,4.107-2.039,2.234-3.629c-11.943-10.141-17.159,31.385-20.11,14.863c-1.106-6.188-4.428-11.358-8.89-15.439
		c-2.238-2.047-5.734-0.643-8.863,0.865c3.65,3.316,13.919,11.235,16.412,22.547c0.256,1.162,0.812,2.117,1.717,2.845
		c4.675,3.759-0.23,10.789-6.725,6.697c-5.876-3.704,2.562-6.152-0.883-12.757c-9.931-19.041-34.649-20.441-51.185-32.915
		c1.281,14.151-9.997,20.078-18.974,16.666c-8.307-3.159-9.133-19.296,1.598-19.558c7.815-0.192,10.948,9.176,2.325,11.674
		c20.339,9.725-5.029-46.265-31.467-47.601c51.68,31.859-3.411,78.237-31.366,40.257c-15.984-21.715,16.921-38.248,27.743-19.728
		c2.386,4.083-0.042,18.88-10.496,13.109c-4.609-2.545-6.286-10.929,3.062-10.962c-1.34-6.382-12.263-4.698-15.267-0.486
		c-7.691,10.781,4.332,22.933,17.04,23.788c16.877,1.135,25.909-18.103,13.225-31.266c-26.402-27.401-50.807,11.341-57.194,18.849
		c-9.198,10.813-48.831,32.84-74.024,4.449c-10.681,27.571-44.682,20.637-53.77,0.224c-9.722-21.837,19.33-33.137,29.645-16.007
		c7.847,13.03-12.598,19.085-13.523,7.713c-0.379-4.655,0.523-5.592,6.433-6.414c-5.212-9.469-22.962-0.29-17.206,11.814
		c4.809,10.115,19.048,15.035,29.013,10.026c22.984-11.553-1.155-47.376-27.701-36.431c10.945-26.546-24.878-50.685-36.431-27.701
		c-5.009,9.965-0.089,24.203,10.026,29.013c12.104,5.756,21.282-11.994,11.814-17.206c-0.821,5.91-1.758,6.812-6.414,6.433
		c-11.372-0.925-5.317-21.37,7.713-13.523c17.13,10.315,5.83,39.368-16.007,29.645c-20.412-9.088-27.347-43.089,0.224-53.77
		c-28.391-25.193-6.364-64.826,4.449-74.024c7.508-6.387,46.249-30.793,18.849-57.194c-13.163-12.684-32.401-3.652-31.266,13.225
		c0.855,12.707,13.007,24.73,23.788,17.04c4.211-3.004,5.896-13.927-0.486-15.267c-0.032,9.348-8.417,7.672-10.962,3.062
		c-5.771-10.454,9.026-12.882,13.109-10.496c18.52,10.822,1.987,43.726-19.728,27.743c-37.98-27.955,8.398-83.046,40.257-31.366
		c-1.336-26.438-57.326-51.806-47.601-31.467c2.498-8.623,11.866-5.49,11.674,2.325c-0.263,10.732-16.4,9.905-19.558,1.598
		c-3.412-8.976,2.515-20.255,16.666-18.974c-12.474-16.536-13.874-41.254-32.915-51.185c-6.605-3.445-9.053,4.993-12.757-0.883
		c-4.093-6.495,2.938-11.401,6.697-6.725c0.728,0.905,1.682,1.461,2.845,1.717c11.312,2.494,19.232,12.762,22.547,16.412
		c1.508-3.129,2.912-6.626,0.865-8.863c-4.081-4.462-9.251-7.784-15.439-8.89c-16.523-2.95,25.003-8.167,14.863-20.11
		c-1.59-1.873-2.63,1.157-3.629,2.234c-5.252,5.657-11.001,10.481-18.695,12.483c-4.345,1.13-5.991,5.799-9.739,2.56
		c-3.045-2.633-0.752-11.615,4.767-8.672c18.197,9.704,32.274-41.135,40.181-50.991c-1.021-0.18-15.719,0.586-16.962-12.251
		c-1.011-10.433,4.217-13.107,13.742-13.105c8.505,0.003,8.089,13.466,2.638,14.507c-3.442,0.658-6.914,0.659-7.815-4.062
		c-3.522,2.74,1.661,8.668,7.66,6.997c15.113-4.209,34.267-21.585,39.19-37.039c-16.495,28.833-46.886,21.53-52.764,1.354
		c-3.491-11.981,3.054-29.183,13.685-35.286c18.067-10.37,29.805,5.075,26.843,18.425c-3.253,14.666-24.22,14.47-21.539,1.862
		c1.287-6.054,10.752-9.368,12.046,1.06c3.832-2.613,5.14-7.881,3.206-11.711c-8.328-16.499-29.353,0.443-26.622,17.855
		c4.788,30.53,49.478,8.842,38.989-19.968c-6.384-17.534-22.89-22.525-33.675-36.432c-10.749-13.862-18.88-46.4,2.799-66.698
		c-23.709-7.942-23.791-35.561-5.26-50.717c15.777-12.902,35.269,3.715,27.406,19.898c-4.743,9.763-20.877,12.381-20.19-0.563
		c0.397-7.467,10.696-9.481,12.294,0.417c15.243-12.292-17.31-32.348-23.258-1.992c-6.901,35.217,47.272,26.962,38.897-9.717
		c-4.431-19.404-25.857-24.423-35.792-40.96c-26.023-43.316,7.196-66.116,8.099-67.139c-20.71-12.017-15.887-39.494,6.426-54.493
		c0.974-0.655,2.001-1.172,3.062-1.63c-1.061-0.458-2.088-0.975-3.062-1.63c-22.313-15-27.136-42.477-6.426-54.493
		c-0.903-1.022-34.122-23.823-8.099-67.139c9.935-16.537,31.361-21.556,35.792-40.96c8.375-36.679-45.798-44.935-38.897-9.717
		c5.949,30.356,38.502,10.3,23.258-1.992c-1.598,9.898-11.897,7.885-12.294,0.417c-0.687-12.945,15.447-10.326,20.19-0.563
		c7.863,16.183-11.629,32.8-27.406,19.898c-18.531-15.155-18.449-42.775,5.26-50.717c-21.679-20.299-13.548-52.836-2.799-66.698
		c10.785-13.907,27.291-18.899,33.675-36.433c10.489-28.81-34.201-50.497-38.989-19.968c-2.731,17.412,18.293,34.354,26.622,17.855
		c1.934-3.831,0.625-9.098-3.206-11.711c-1.294,10.428-10.759,7.114-12.046,1.06c-2.68-12.608,18.286-12.804,21.539,1.862
		c2.962,13.35-8.776,28.796-26.843,18.425c-10.631-6.103-17.176-23.305-13.685-35.286c5.879-20.176,36.269-27.479,52.764,1.354
		c-4.923-15.454-24.077-32.829-39.19-37.039c-5.999-1.671-11.182,4.257-7.66,6.997c0.901-4.721,4.373-4.72,7.815-4.062
		c5.451,1.042,5.867,14.504-2.638,14.507c-9.524,0.002-14.753-2.672-13.742-13.105c1.244-12.837,15.941-12.072,16.962-12.251
		c-7.907-9.855-21.984-60.695-40.181-50.991c-5.519,2.943-7.812-6.039-4.767-8.672c3.747-3.239,5.393,1.431,9.739,2.561
		c7.695,2.002,13.443,6.826,18.695,12.483c0.999,1.076,2.039,4.107,3.629,2.234c10.141-11.943-31.386-17.159-14.863-20.11
		c6.188-1.106,11.358-4.428,15.439-8.89c2.047-2.238,0.643-5.734-0.865-8.863c-3.316,3.65-11.235,13.919-22.547,16.412
		c-1.163,0.256-2.117,0.812-2.845,1.717c-3.759,4.675-10.789-0.23-6.697-6.725c3.704-5.876,6.152,2.562,12.757-0.883
		c19.041-9.931,20.441-34.649,32.915-51.185c-14.151,1.281-20.078-9.997-16.666-18.974c3.159-8.307,19.295-9.133,19.558,1.598
		c0.192,7.815-9.176,10.948-11.674,2.325c-9.725,20.339,46.265-5.029,47.601-31.467c-31.859,51.68-78.237-3.411-40.257-31.366
		c21.715-15.984,38.248,16.921,19.728,27.743c-4.083,2.386-18.88-0.042-13.109-10.496c2.545-4.609,10.93-6.286,10.962,3.062
		c6.382-1.34,4.698-12.263,0.486-15.267c-10.781-7.691-22.933,4.332-23.788,17.04c-1.135,16.877,18.103,25.909,31.266,13.225
		c27.401-26.402-11.341-50.807-18.849-57.194c-10.813-9.198-32.84-48.831-4.449-74.024c-27.571-10.681-20.637-44.682-0.224-53.77
		c21.837-9.722,33.137,19.33,16.007,29.645c-13.03,7.847-19.085-12.598-7.713-13.523c4.655-0.379,5.592,0.523,6.414,6.433
		c9.469-5.212,0.29-22.962-11.814-17.206c-10.115,4.809-15.035,19.048-10.026,29.013c11.553,22.984,47.377-1.155,36.431-27.701
		c26.546,10.945,50.685-24.878,27.701-36.431c-9.965-5.009-24.203-0.089-29.013,10.026c-5.756,12.104,11.994,21.282,17.206,11.814
		c-5.91-0.821-6.812-1.758-6.433-6.414c0.925-11.372,21.37-5.317,13.523,7.713c-10.315,17.13-39.368,5.83-29.645-16.007
		c9.088-20.412,43.089-27.347,53.77,0.224c25.193-28.391,64.826-6.364,74.024,4.449c6.387,7.508,30.793,46.249,57.194,18.849
		c12.684-13.163,3.652-32.401-13.225-31.266c-12.707,0.855-24.73,13.007-17.04,23.788c3.004,4.211,13.927,5.896,15.267-0.486
		c-9.348-0.032-7.671-8.417-3.062-10.962c10.454-5.771,12.882,9.026,10.496,13.109c-10.822,18.52-43.726,1.987-27.743-19.728
		c27.955-37.98,83.046,8.398,31.366,40.257c26.438-1.336,51.806-57.326,31.467-47.601c8.623,2.498,5.49,11.866-2.325,11.674
		c-10.732-0.263-9.905-16.4-1.598-19.558c8.976-3.412,20.255,2.515,18.974,16.666c16.536-12.474,41.254-13.874,51.185-32.915
		c3.445-6.605-4.993-9.053,0.883-12.757c6.495-4.093,11.401,2.938,6.725,6.697c-0.905,0.728-1.461,1.682-1.717,2.845
		c-2.494,11.312-12.762,19.232-16.412,22.547c3.129,1.508,6.626,2.912,8.863,0.865c4.462-4.081,7.784-9.251,8.89-15.439
		c2.95-16.523,8.167,25.003,20.11,14.863c1.873-1.59-1.157-2.63-2.234-3.629c-5.657-5.252-10.481-11.001-12.483-18.695
		c-1.13-4.345-5.799-5.991-2.561-9.739c2.633-3.045,11.615-0.752,8.672,4.767c-9.704,18.197,41.135,32.274,50.991,40.181
		c0.18-1.021-0.586-15.719,12.251-16.962c10.433-1.011,13.107,4.217,13.105,13.742c-0.003,8.505-13.466,8.089-14.507,2.638
		c-0.658-3.442-0.659-6.914,4.062-7.815c-2.74-3.522-8.669,1.661-6.997,7.66c4.209,15.113,21.585,34.267,37.039,39.19
		c-28.833-16.495-21.53-46.886-1.354-52.764c11.981-3.491,29.183,3.054,35.286,13.685c10.37,18.067-5.075,29.805-18.425,26.843
		c-14.666-3.253-14.47-24.22-1.862-21.539c6.054,1.287,9.368,10.752-1.06,12.046c2.613,3.832,7.881,5.14,11.711,3.206
		c16.499-8.328-0.443-29.353-17.855-26.622c-30.53,4.788-8.842,49.478,19.968,38.989c17.534-6.384,22.525-22.89,36.433-33.675
		c13.862-10.749,46.4-18.88,66.698,2.799c7.942-23.709,35.561-23.791,50.717-5.26c12.902,15.777-3.715,35.269-19.898,27.406
		c-9.763-4.743-12.381-20.877,0.563-20.19c7.467,0.397,9.481,10.696-0.417,12.294c12.292,15.243,32.348-17.31,1.992-23.258
		c-35.217-6.901-26.962,47.272,9.717,38.897c19.404-4.431,24.423-25.857,40.96-35.792c43.316-26.023,66.116,7.196,67.139,8.099
		c12.017-20.71,39.494-15.887,54.493,6.426C810.463,68.957,810.98,69.983,811.438,71.044z M1524.436,98.439
		c-9.868-0.113-19.705-3.194-27.852-10.798c-2.335-2.179-3.151-2.454-4.779,0.739c-13.591,26.662-47.661,11.375-52.798-5.449
		c-5.686-18.619,15.666-29.413,28.068-17.487c7.083,6.811,3.45,21.279-7.177,16.696c-4.381-1.889-7.573-11.971,2.499-11.681
		c-4.014-7.485-12.867-4.041-16.454,0.966c-8.273,11.544,13.565,30.072,30.296,19.821c22.14-13.565-10.217-54.521-38.37-30.152
		c-16.546,14.322-16.307,27.548-43.016,35.578c-2.394,0.72-5.583,0.11-5.886,3.971c-0.024,0.313-0.826,0.673-1.324,0.825
		c-38.161,11.649-45.999-6.06-65.909-21.855c3.27,8.639,6.639,29.69,0.895,30.351c-0.867,0.099-1.116,1.115-1.363,1.971
		c-3.212,11.14-11.753,15.838-22.179,18.099c-15.753,3.416-20.965-25.932-1.353-32.484c16.577-5.538,19.983,17.227,9.805,16.328
		c-4.347-0.385-7.329-5.79,0.796-8.313c-3.487-8.434-20.104,1.17-16.487,12.748c5.935,19.004,41.862-10.579,15.033-32.118
		c-4.132-3.317-4.171-3.077-29.81-20.864c-2.563,17.268-9.396,13.261-16.435,14.363c2.643,3.409,5.057,6.46,7.402,9.563
		c10.578,13.996,1.252,29.251-11.327,23.249c-2.733-1.305-4.346-2.078-7.52,0.029c-6.977,4.631-29.002-2.188-3.782-32.871
		c-25.68-1.202-8.477-19.879-19.888-11.824c-12.68,8.951-53.104,29.43-30.135,51.092c10.633,10.028,20.506,4.413,18.762-4.555
		c-3.315-17.06-20.569-12.319-14.087-8.145c2.148,1.384,1.337,3.546,1.272,5.4c-0.101,2.856-6.522,3.542-8.181-0.575
		c-5.299-13.152,15.527-21.715,24.949-5.434c20.25,34.994-47.809,33.545-34.679-19.984c0.514-2.095,1.581-4.079,1.383-6.669
		c-18.609,17.1-29.451,31.896-60.657,23.985c-0.004-0.001-6.448-1.731-6.448-1.731c-1.912-6.872-8.631-4.918-13.047-6.722
		c-20.643-8.43-26.532-28.263-40.98-36.821c-14.94-8.851-35.034-1.456-39.939,15.099c-5.657,19.092,21.228,30.108,35.425,12.094
		c8.736-11.083-5.183-25.595-15.932-15.037c2.676,1.343,6.305,0.109,6.917,3.986c1.794,11.365-12.962,12.013-14.723,1.32
		c-1.457-8.853,11.191-18.25,22.608-13.334c33.111,14.257-20.59,69.302-45.574,23.234c-22.005,23.737-57.821,14.214-78.57-10.704
		c-5.928-7.119-11.032-14.967-19.872-19.203c-16.85-8.075-35.888,2.661-38.113,17.345c-3.869,25.536,31.128,26.705,38.042,5.32
		c2.031-6.281-5.841-19.105-19.026-9.032c3.748,1.04,7.404-0.244,8.053,4.292c0.805,5.628-6.437,11.414-11.777,6.974
		c-4.22-3.507-4.104-12.507,0.302-16.5c8.775-7.954,23.905-4.697,28.304,6.328c5.699,14.281-14.733,37.681-40.633,29.341
		c-8.7-2.802-10.772-13.06-13.604-8.357c-7.311,12.141-20.644,14.254-32.337,19.768c10.512,4.08,19.967,6.02,19.434,18.27
		c-0.401,9.206-10.304,7.847-2.452,11.547c21.727,10.237,29.886-7.349,39.422-4.871c10.799,2.806,17.916,2.146,17.299,5.426
		c-0.722,3.837,1.709,4.533,4.389,5.632c9.616,3.939-10.754,21.758-34.458,15.321c-3.192-0.867-5.033,11.571,5.684,7.821
		c7.979-2.792,38.233-5.152,51.954,10.209c7.932,8.88,6.766,29.617-10.412,32.177c-20.893,3.115-23.35-30.568-6.013-25.621
		c7.971,2.275,6.391,12.682,1.693,12.425c-4.021-0.22,0-5.397-2.529-5.753c-2.192-0.308-4.496,4.714,0.141,7.273
		c14.692,8.111,27.627-23.149-24.179-27.71c3.413,2.671,4.911,5.287,5.057,9.003c0.334,8.511-7.069,7.505-8.106,10.256
		c-3.282,8.709-8.283,7.258-14.975,2.611c-2.193,8.313,10.714,41.761,23.853,30.664c4.857-4.102,3.463-15.711-3.596-13.702
		c-2.251,0.641-2.998,3.497,0.359,3.124c4.895-0.544,3.327,5.126,0.142,5.469c-11.868,1.28-8.979-11.11-6.508-13.874
		c12.606-14.098,33.045,10.99,18.02,24.401c-10.748,9.593-30.932,7.576-37.25-18.978c-1.149-4.832-3.535-30.272,1.43-31.985
		c1.513-0.522,0.701-4.492,0.268-6.804c-0.371-1.985-2.339-0.925-3.598-1.061c-2.175-0.236-2.512,0.652-1.991,2.796
		c7.094,29.211-10.451,40.428-12.288,35.264c-1.457-4.096-5.118-4.932-8.625-6.069c-0.456-0.148-1.038-0.81-1.06-1.259
		c-0.432-8.904-6.673-17.095-1.015-26.877c5.929-10.249,2.962-20.734-3.741-30.185c-9.005,11.561-23.842,7.545-27.966-14.508
		c-0.057,0.143-0.114,0.287-0.17,0.43c-0.057-0.143-0.113-0.286-0.17-0.43c-4.124,22.053-18.961,26.069-27.966,14.508
		c-6.703,9.451-9.671,19.936-3.741,30.185c5.658,9.781-0.583,17.973-1.015,26.877c-0.022,0.449-0.604,1.111-1.06,1.259
		c-3.507,1.137-7.168,1.974-8.625,6.069c-1.837,5.164-19.382-6.053-12.288-35.264c0.521-2.144,0.184-3.032-1.991-2.796
		c-1.259,0.136-3.228-0.924-3.598,1.061c-0.432,2.313-1.245,6.283,0.268,6.804c4.965,1.713,2.579,27.153,1.43,31.985
		c-6.318,26.554-26.502,28.571-37.25,18.978c-15.025-13.411,5.414-38.5,18.02-24.401c2.471,2.764,5.36,15.154-6.508,13.874
		c-3.185-0.343-4.753-6.014,0.142-5.469c3.358,0.373,2.61-2.483,0.359-3.124c-7.059-2.008-8.453,9.601-3.596,13.702
		c13.139,11.097,26.046-22.35,23.853-30.664c-6.693,4.647-11.693,6.098-14.975-2.611c-1.037-2.751-8.44-1.745-8.106-10.256
		c0.146-3.716,1.644-6.331,5.057-9.003c-51.806,4.562-38.871,35.821-24.179,27.71c4.637-2.56,2.333-7.581,0.141-7.273
		c-2.529,0.355,1.491,5.532-2.529,5.753c-4.698,0.257-6.278-10.15,1.693-12.425c17.337-4.947,14.88,28.736-6.013,25.621
		c-17.178-2.561-18.344-23.298-10.412-32.177c13.722-15.36,43.975-13.001,51.954-10.209c10.716,3.75,8.876-8.688,5.684-7.821
		c-23.704,6.437-44.074-11.381-34.458-15.321c2.68-1.099,5.111-1.795,4.389-5.632c-0.616-3.279,6.501-2.619,17.299-5.426
		c9.536-2.477,17.694,15.108,39.422,4.871c7.852-3.7-2.051-2.341-2.452-11.547c-0.533-12.25,8.921-14.19,19.434-18.27
		c-11.693-5.514-25.026-7.627-32.337-19.768c-2.832-4.703-4.904,5.555-13.604,8.357c-25.9,8.341-46.332-15.06-40.633-29.341
		c4.399-11.025,19.529-14.282,28.304-6.328c4.405,3.993,4.521,12.994,0.302,16.5c-5.34,4.44-12.582-1.346-11.777-6.974
		c0.649-4.535,4.305-3.252,8.053-4.292c-13.185-10.073-21.057,2.751-19.026,9.032c6.914,21.385,41.911,20.216,38.042-5.32
		c-2.224-14.684-21.263-25.42-38.113-17.345c-8.84,4.236-13.944,12.084-19.872,19.203c-20.748,24.918-56.565,34.442-78.57,10.704
		c-24.984,46.069-78.686-8.977-45.574-23.234c11.417-4.916,24.065,4.48,22.608,13.334c-1.76,10.693-16.517,10.045-14.723-1.32
		c0.612-3.877,4.241-2.643,6.917-3.986c-10.749-10.558-24.667,3.955-15.932,15.037c14.198,18.014,41.083,6.998,35.425-12.094
		c-4.905-16.555-24.999-23.951-39.939-15.099c-14.448,8.559-20.337,28.391-40.98,36.821c-4.416,1.804-11.136-0.15-13.047,6.722
		c0,0-6.444,1.73-6.448,1.731c-31.206,7.911-42.048-6.885-60.657-23.985c-0.198,2.59,0.869,4.575,1.383,6.669
		c13.13,53.529-54.929,54.978-34.679,19.984c9.422-16.281,30.247-7.718,24.949,5.434c-1.659,4.117-8.08,3.431-8.181,0.575
		c-0.065-1.854-0.876-4.016,1.272-5.4c6.482-4.175-10.772-8.915-14.087,8.145c-1.743,8.968,8.129,14.583,18.762,4.555
		c22.97-21.662-17.455-42.141-30.135-51.092c-11.412-8.055,5.791,10.622-19.888,11.824c25.22,30.683,3.195,37.502-3.782,32.871
		c-3.174-2.108-4.787-1.334-7.52-0.029c-12.578,6.002-21.905-9.253-11.327-23.249c2.345-3.103,4.76-6.154,7.402-9.563
		c-7.039-1.103-13.873,2.905-16.435-14.363c-25.639,17.787-25.678,17.547-29.81,20.864c-26.829,21.538,9.098,51.122,15.033,32.118
		c3.616-11.578-13.001-21.182-16.487-12.748c8.125,2.523,5.143,7.928,0.796,8.313c-10.178,0.9-6.772-21.866,9.805-16.328
		c19.611,6.552,14.4,35.901-1.353,32.484c-10.426-2.261-18.967-6.96-22.179-18.099c-0.247-0.856-0.495-1.871-1.362-1.971
		c-5.745-0.661-2.376-21.712,0.894-30.351c-19.911,15.795-27.748,33.504-65.909,21.855c-0.497-0.152-1.3-0.513-1.324-0.825
		c-0.303-3.861-3.492-3.251-5.886-3.971c-26.709-8.03-26.469-21.256-43.016-35.578c-28.153-24.369-60.51,16.587-38.37,30.152
		c16.731,10.25,38.569-8.278,30.296-19.821c-3.587-5.006-12.439-8.45-16.454-0.966c10.072-0.29,6.88,9.791,2.499,11.681
		c-10.627,4.583-14.26-9.886-7.177-16.696c12.402-11.926,33.753-1.132,28.068,17.487c-5.137,16.824-39.207,32.111-52.798,5.449
		c-1.628-3.193-2.444-2.918-4.779-0.739c-8.147,7.603-17.984,10.685-27.852,10.798c-0.113,9.868-3.194,19.705-10.798,27.852
		c-2.179,2.335-2.454,3.15,0.739,4.779c26.662,13.591,11.375,47.661-5.449,52.798c-18.619,5.686-29.413-15.666-17.487-28.068
		c6.811-7.083,21.279-3.45,16.696,7.177c-1.889,4.381-11.971,7.573-11.681-2.499c-7.485,4.014-4.041,12.867,0.966,16.454
		c11.544,8.273,30.072-13.565,19.821-30.296c-13.565-22.14-54.521,10.217-30.152,38.37c14.322,16.546,27.548,16.306,35.578,43.016
		c0.72,2.394,0.11,5.583,3.971,5.886c0.313,0.024,0.673,0.826,0.825,1.324c11.649,38.161-6.06,45.999-21.855,65.909
		c8.639-3.27,29.69-6.639,30.351-0.894c0.099,0.867,1.115,1.116,1.971,1.362c11.14,3.212,15.838,11.753,18.099,22.179
		c3.416,15.753-25.932,20.965-32.484,1.353c-5.538-16.577,17.227-19.983,16.328-9.805c-0.385,4.347-5.79,7.329-8.313-0.796
		c-8.434,3.487,1.17,20.104,12.748,16.487c19.004-5.935-10.579-41.862-32.118-15.033c-3.317,4.132-3.077,4.171-20.864,29.81
		c17.268,2.563,13.261,9.396,14.363,16.435c3.409-2.643,6.46-5.057,9.563-7.402c13.996-10.578,29.251-1.252,23.249,11.327
		c-1.305,2.733-2.078,4.346,0.029,7.52c4.631,6.977-2.188,29.002-32.871,3.782c-1.202,25.68-19.879,8.477-11.824,19.888
		c8.951,12.68,29.43,53.105,51.092,30.135c10.028-10.633,4.413-20.506-4.555-18.762c-17.06,3.315-12.319,20.569-8.145,14.087
		c1.384-2.148,3.546-1.337,5.4-1.272c2.856,0.102,3.542,6.522-0.575,8.181c-13.152,5.299-21.715-15.527-5.434-24.949
		c34.994-20.25,33.545,47.809-19.984,34.679c-2.095-0.514-4.079-1.581-6.669-1.383c17.1,18.609,31.896,29.451,23.985,60.657
		c-0.001,0.004-1.731,6.448-1.731,6.448c-6.872,1.912-4.918,8.631-6.722,13.047c-8.43,20.643-28.263,26.532-36.821,40.98
		c-8.851,14.94-1.456,35.034,15.099,39.939c19.092,5.657,30.108-21.228,12.094-35.425c-11.083-8.735-25.595,5.183-15.037,15.932
		c1.343-2.676,0.109-6.305,3.986-6.917c11.365-1.794,12.013,12.962,1.32,14.723c-8.853,1.457-18.25-11.191-13.334-22.608
		c14.257-33.112,69.302,20.59,23.234,45.574c23.737,22.005,14.214,57.822-10.704,78.57c-7.119,5.928-14.967,11.032-19.203,19.872
		c-8.075,16.85,2.661,35.888,17.345,38.113c25.536,3.869,26.705-31.128,5.32-38.042c-6.281-2.031-19.105,5.841-9.032,19.026
		c1.04-3.748-0.244-7.404,4.292-8.053c5.628-0.805,11.414,6.437,6.974,11.777c-3.507,4.22-12.507,4.104-16.5-0.302
		c-7.954-8.775-4.697-23.905,6.328-28.304c14.281-5.699,37.681,14.733,29.341,40.633c-2.802,8.7-13.06,10.772-8.357,13.604
		c12.141,7.311,14.254,20.644,19.768,32.337c4.08-10.512,6.02-19.967,18.27-19.434c9.206,0.401,7.847,10.304,11.547,2.452
		c10.237-21.727-7.349-29.886-4.871-39.422c2.806-10.799,2.146-17.916,5.426-17.299c3.837,0.722,4.533-1.709,5.632-4.389
		c3.939-9.616,21.758,10.754,15.321,34.458c-0.867,3.192,11.571,5.033,7.821-5.684c-2.792-7.979-5.152-38.233,10.209-51.954
		c8.88-7.932,29.617-6.766,32.177,10.412c3.115,20.893-30.568,23.35-25.621,6.013c2.275-7.971,12.682-6.391,12.425-1.693
		c-0.22,4.021-5.397,0-5.753,2.529c-0.308,2.192,4.714,4.496,7.273-0.141c8.111-14.692-23.149-27.627-27.71,24.179
		c2.671-3.413,5.287-4.911,9.003-5.057c8.511-0.334,7.505,7.069,10.256,8.106c8.709,3.282,7.258,8.283,2.611,14.975
		c8.313,2.193,41.761-10.714,30.664-23.853c-4.102-4.857-15.711-3.463-13.702,3.596c0.641,2.251,3.497,2.998,3.124-0.359
		c-0.544-4.895,5.126-3.327,5.469-0.142c1.28,11.868-11.11,8.979-13.874,6.508c-14.098-12.606,10.99-33.045,24.401-18.02
		c9.593,10.748,7.576,30.932-18.978,37.25c-4.832,1.149-30.272,3.535-31.985-1.43c-0.522-1.513-4.492-0.701-6.804-0.268
		c-1.985,0.371-0.925,2.339-1.061,3.598c-0.236,2.175,0.652,2.512,2.796,1.991c29.211-7.094,40.428,10.451,35.264,12.288
		c-4.096,1.457-4.932,5.118-6.069,8.625c-0.148,0.456-0.81,1.038-1.259,1.06c-8.904,0.433-17.095,6.674-26.877,1.015
		c-10.249-5.929-20.734-2.962-30.185,3.741c11.561,9.005,7.545,23.842-14.508,27.966c0.143,0.057,0.287,0.114,0.43,0.17
		c-0.143,0.057-0.286,0.113-0.43,0.17c22.053,4.124,26.069,18.961,14.508,27.966c9.451,6.703,19.936,9.671,30.185,3.741
		c9.781-5.658,17.973,0.583,26.877,1.015c0.449,0.022,1.111,0.604,1.259,1.06c1.137,3.507,1.974,7.168,6.069,8.625
		c5.164,1.837-6.053,19.382-35.264,12.288c-2.144-0.521-3.032-0.184-2.796,1.991c0.136,1.259-0.924,3.228,1.061,3.598
		c2.313,0.432,6.283,1.245,6.804-0.268c1.713-4.965,27.153-2.579,31.985-1.43c26.554,6.318,28.571,26.502,18.978,37.25
		c-13.411,15.025-38.5-5.414-24.401-18.02c2.764-2.471,15.154-5.36,13.874,6.508c-0.343,3.185-6.014,4.753-5.469-0.142
		c0.373-3.358-2.483-2.61-3.124-0.359c-2.008,7.059,9.601,8.453,13.702,3.596c11.097-13.139-22.35-26.046-30.664-23.853
		c4.647,6.693,6.098,11.693-2.611,14.975c-2.751,1.037-1.745,8.44-10.256,8.106c-3.716-0.146-6.331-1.644-9.003-5.057
		c4.562,51.806,35.821,38.871,27.71,24.179c-2.56-4.637-7.581-2.333-7.273-0.141c0.355,2.529,5.532-1.492,5.753,2.529
		c0.257,4.698-10.15,6.278-12.425-1.693c-4.947-17.337,28.736-14.88,25.621,6.013c-2.561,17.178-23.298,18.344-32.177,10.412
		c-15.36-13.722-13.001-43.975-10.209-51.954c3.75-10.716-8.688-8.876-7.821-5.684c6.437,23.704-11.381,44.074-15.321,34.458
		c-1.099-2.68-1.795-5.111-5.632-4.389c-3.279,0.616-2.619-6.501-5.426-17.299c-2.477-9.536,15.108-17.694,4.871-39.422
		c-3.7-7.852-2.341,2.051-11.547,2.452c-12.25,0.533-14.19-8.921-18.27-19.434c-5.514,11.693-7.627,25.026-19.768,32.337
		c-4.703,2.832,5.555,4.904,8.357,13.604c8.341,25.9-15.06,46.332-29.341,40.633c-11.025-4.399-14.282-19.529-6.328-28.304
		c3.993-4.405,12.994-4.521,16.5-0.302c4.44,5.34-1.346,12.582-6.974,11.777c-4.535-0.649-3.252-4.305-4.292-8.053
		c-10.073,13.185,2.751,21.057,9.032,19.026c21.385-6.914,20.216-41.911-5.32-38.042c-14.684,2.225-25.42,21.263-17.345,38.113
		c4.236,8.84,12.084,13.944,19.203,19.872c24.918,20.748,34.442,56.565,10.704,78.57c46.069,24.984-8.977,78.686-23.234,45.574
		c-4.916-11.417,4.48-24.065,13.334-22.608c10.693,1.76,10.045,16.517-1.32,14.723c-3.877-0.612-2.643-4.241-3.986-6.917
		c-10.558,10.749,3.955,24.667,15.037,15.932c18.014-14.198,6.998-41.082-12.094-35.425c-16.555,4.905-23.951,24.999-15.099,39.939
		c8.559,14.448,28.391,20.337,36.821,40.98c1.804,4.417-0.15,11.136,6.722,13.047c0,0,1.73,6.444,1.731,6.448
		c7.911,31.206-6.885,42.048-23.985,60.657c2.59,0.198,4.575-0.869,6.669-1.383c53.529-13.13,54.978,54.929,19.984,34.679
		c-16.281-9.422-7.718-30.247,5.434-24.949c4.117,1.659,3.431,8.08,0.575,8.181c-1.854,0.065-4.016,0.876-5.4-1.272
		c-4.175-6.482-8.915,10.772,8.145,14.087c8.968,1.743,14.583-8.129,4.555-18.762c-21.662-22.97-42.141,17.455-51.092,30.135
		c-8.055,11.412,10.622-5.791,11.824,19.888c30.683-25.22,37.502-3.195,32.871,3.782c-2.108,3.174-1.334,4.787-0.029,7.52
		c6.002,12.578-9.253,21.905-23.249,11.327c-3.103-2.345-6.154-4.76-9.563-7.402c-1.103,7.039,2.905,13.873-14.363,16.435
		c17.787,25.639,17.547,25.678,20.864,29.81c21.538,26.829,51.122-9.098,32.118-15.033c-11.578-3.616-21.182,13.001-12.748,16.487
		c2.523-8.125,7.928-5.143,8.313-0.796c0.9,10.178-21.866,6.772-16.328-9.805c6.552-19.611,35.901-14.4,32.484,1.353
		c-2.261,10.426-6.96,18.966-18.099,22.179c-0.856,0.247-1.871,0.495-1.971,1.363c-0.661,5.745-21.712,2.376-30.351-0.895
		c15.795,19.911,33.504,27.748,21.855,65.909c-0.152,0.498-0.513,1.3-0.825,1.324c-3.861,0.302-3.251,3.492-3.971,5.886
		c-8.03,26.709-21.256,26.469-35.578,43.016c-24.369,28.153,16.587,60.51,30.152,38.37c10.25-16.731-8.278-38.569-19.821-30.296
		c-5.006,3.587-8.45,12.439-0.966,16.454c-0.29-10.072,9.791-6.88,11.681-2.499c4.583,10.627-9.886,14.26-16.696,7.177
		c-11.926-12.402-1.132-33.753,17.487-28.068c16.824,5.137,32.111,39.207,5.449,52.798c-3.193,1.628-2.918,2.444-0.739,4.779
		c7.603,8.147,10.685,17.984,10.798,27.852c9.868,0.113,19.705,3.194,27.852,10.797c2.335,2.179,3.15,2.454,4.779-0.739
		c13.591-26.662,47.661-11.375,52.798,5.449c5.686,18.619-15.666,29.413-28.068,17.487c-7.083-6.811-3.45-21.279,7.177-16.696
		c4.381,1.889,7.573,11.971-2.499,11.681c4.014,7.485,12.867,4.041,16.454-0.965c8.273-11.544-13.565-30.072-30.296-19.821
		c-22.14,13.565,10.217,54.521,38.37,30.152c16.546-14.322,16.306-27.548,43.016-35.578c2.394-0.72,5.583-0.11,5.886-3.971
		c0.024-0.313,0.826-0.673,1.324-0.825c38.161-11.649,45.999,6.06,65.909,21.855c-3.27-8.639-6.639-29.69-0.894-30.351
		c0.867-0.099,1.116-1.115,1.362-1.971c3.212-11.14,11.753-15.839,22.179-18.099c15.753-3.417,20.965,25.932,1.353,32.484
		c-16.577,5.538-19.983-17.227-9.805-16.328c4.347,0.385,7.329,5.79-0.796,8.313c3.487,8.434,20.104-1.17,16.487-12.748
		c-5.935-19.004-41.862,10.579-15.033,32.118c4.132,3.317,4.171,3.077,29.81,20.864c2.563-17.268,9.396-13.261,16.435-14.363
		c-2.643-3.409-5.057-6.46-7.402-9.563c-10.578-13.996-1.252-29.251,11.327-23.249c2.733,1.305,4.346,2.078,7.52-0.029
		c6.977-4.631,29.002,2.188,3.782,32.871c25.68,1.202,8.477,19.879,19.888,11.824c12.68-8.951,53.105-29.43,30.135-51.092
		c-10.633-10.028-20.506-4.413-18.762,4.555c3.315,17.06,20.569,12.319,14.087,8.145c-2.148-1.384-1.337-3.546-1.272-5.4
		c0.102-2.856,6.522-3.542,8.181,0.575c5.299,13.152-15.527,21.715-24.949,5.434c-20.25-34.994,47.809-33.545,34.679,19.984
		c-0.514,2.094-1.581,4.079-1.383,6.669c18.609-17.1,29.451-31.896,60.657-23.985c0.004,0.001,6.448,1.731,6.448,1.731
		c1.912,6.873,8.631,4.918,13.047,6.722c20.643,8.43,26.532,28.262,40.98,36.821c14.94,8.851,35.034,1.456,39.939-15.099
		c5.657-19.093-21.228-30.108-35.425-12.094c-8.735,11.083,5.183,25.595,15.932,15.037c-2.676-1.343-6.305-0.109-6.917-3.986
		c-1.794-11.365,12.962-12.013,14.723-1.32c1.457,8.853-11.191,18.25-22.608,13.334c-33.112-14.257,20.59-69.302,45.574-23.234
		c22.005-23.737,57.822-14.214,78.57,10.704c5.928,7.119,11.032,14.967,19.872,19.203c16.85,8.074,35.888-2.661,38.113-17.345
		c3.869-25.536-31.128-26.705-38.042-5.32c-2.031,6.281,5.841,19.105,19.026,9.032c-3.748-1.04-7.404,0.244-8.053-4.292
		c-0.805-5.628,6.437-11.414,11.777-6.974c4.22,3.507,4.104,12.507-0.302,16.5c-8.775,7.954-23.905,4.697-28.304-6.328
		c-5.699-14.281,14.733-37.681,40.633-29.341c8.7,2.802,10.772,13.06,13.604,8.357c7.311-12.141,20.644-14.254,32.337-19.768
		c-10.512-4.08-19.967-6.02-19.434-18.27c0.401-9.206,10.304-7.847,2.452-11.547c-21.727-10.237-29.886,7.349-39.422,4.871
		c-10.799-2.806-17.916-2.146-17.299-5.426c0.722-3.837-1.709-4.533-4.389-5.632c-9.616-3.939,10.754-21.758,34.458-15.321
		c3.192,0.867,5.033-11.571-5.684-7.821c-7.979,2.792-38.233,5.151-51.954-10.209c-7.932-8.88-6.766-29.617,10.412-32.177
		c20.893-3.115,23.35,30.568,6.013,25.621c-7.971-2.275-6.391-12.682-1.693-12.425c4.021,0.22,0,5.397,2.529,5.753
		c2.192,0.308,4.496-4.714-0.141-7.274c-14.692-8.111-27.627,23.149,24.179,27.71c-3.413-2.671-4.911-5.287-5.057-9.003
		c-0.334-8.511,7.069-7.505,8.106-10.256c3.282-8.709,8.283-7.258,14.975-2.611c2.193-8.313-10.714-41.761-23.853-30.664
		c-4.857,4.102-3.463,15.711,3.596,13.702c2.251-0.641,2.998-3.497-0.359-3.124c-4.895,0.544-3.327-5.126-0.142-5.469
		c11.868-1.28,8.979,11.11,6.508,13.874c-12.606,14.098-33.045-10.99-18.02-24.401c10.748-9.593,30.932-7.576,37.25,18.978
		c1.149,4.832,3.535,30.272-1.43,31.984c-1.513,0.522-0.701,4.492-0.268,6.804c0.371,1.985,2.339,0.925,3.598,1.061
		c2.175,0.236,2.512-0.652,1.991-2.796c-7.094-29.211,10.451-40.428,12.288-35.264c1.457,4.096,5.118,4.932,8.625,6.069
		c0.456,0.148,1.038,0.81,1.06,1.259c0.433,8.904,6.674,17.095,1.015,26.877c-5.929,10.249-2.962,20.734,3.741,30.185
		c9.005-11.561,23.842-7.545,27.966,14.508c0.057-0.143,0.114-0.286,0.17-0.43c0.057,0.143,0.113,0.286,0.17,0.43
		c4.124-22.053,18.961-26.069,27.966-14.508c6.703-9.451,9.671-19.936,3.741-30.185c-5.658-9.781,0.583-17.973,1.015-26.877
		c0.022-0.449,0.604-1.111,1.06-1.259c3.507-1.137,7.168-1.974,8.625-6.069c1.837-5.164,19.382,6.053,12.288,35.264
		c-0.521,2.144-0.184,3.032,1.991,2.796c1.259-0.136,3.228,0.924,3.598-1.061c0.432-2.313,1.245-6.283-0.268-6.804
		c-4.965-1.713-2.579-27.153-1.43-31.984c6.318-26.554,26.502-28.571,37.25-18.978c15.025,13.411-5.414,38.5-18.02,24.401
		c-2.471-2.764-5.36-15.154,6.508-13.874c3.185,0.343,4.753,6.014-0.142,5.469c-3.358-0.373-2.61,2.483-0.359,3.124
		c7.059,2.008,8.453-9.6,3.596-13.702c-13.139-11.097-26.046,22.35-23.853,30.664c6.693-4.647,11.693-6.098,14.975,2.611
		c1.037,2.751,8.44,1.745,8.106,10.256c-0.146,3.716-1.644,6.331-5.057,9.003c51.806-4.562,38.871-35.821,24.179-27.71
		c-4.637,2.56-2.333,7.581-0.141,7.274c2.529-0.355-1.492-5.532,2.529-5.753c4.698-0.257,6.278,10.15-1.693,12.425
		c-17.337,4.947-14.88-28.736,6.013-25.621c17.178,2.56,18.344,23.298,10.412,32.177c-13.722,15.36-43.975,13.001-51.954,10.209
		c-10.716-3.75-8.876,8.688-5.684,7.821c23.704-6.437,44.074,11.381,34.458,15.321c-2.68,1.099-5.111,1.795-4.389,5.632
		c0.616,3.279-6.501,2.619-17.299,5.426c-9.536,2.477-17.694-15.109-39.422-4.871c-7.852,3.7,2.051,2.341,2.452,11.547
		c0.533,12.25-8.921,14.19-19.434,18.27c11.693,5.514,25.026,7.627,32.337,19.768c2.832,4.703,4.904-5.555,13.604-8.357
		c25.9-8.341,46.332,15.06,40.633,29.341c-4.399,11.025-19.529,14.282-28.304,6.328c-4.405-3.993-4.521-12.994-0.302-16.5
		c5.34-4.44,12.582,1.346,11.777,6.974c-0.649,4.535-4.305,3.252-8.053,4.292c13.185,10.073,21.057-2.751,19.026-9.032
		c-6.914-21.385-41.911-20.216-38.042,5.32c2.225,14.684,21.263,25.42,38.113,17.345c8.84-4.236,13.944-12.084,19.872-19.203
		c20.748-24.918,56.565-34.442,78.57-10.704c24.984-46.069,78.686,8.977,45.574,23.234c-11.417,4.916-24.065-4.48-22.608-13.334
		c1.76-10.693,16.517-10.045,14.723,1.32c-0.612,3.877-4.241,2.643-6.917,3.986c10.749,10.558,24.667-3.954,15.932-15.037
		c-14.198-18.014-41.082-6.998-35.425,12.094c4.905,16.555,24.999,23.951,39.939,15.099c14.448-8.559,20.337-28.391,40.98-36.821
		c4.417-1.804,11.136,0.15,13.047-6.722c0,0,6.444-1.73,6.448-1.731c31.206-7.911,42.048,6.885,60.657,23.985
		c0.198-2.59-0.869-4.575-1.383-6.669c-13.13-53.529,54.929-54.978,34.679-19.984c-9.422,16.281-30.247,7.718-24.949-5.434
		c1.659-4.117,8.08-3.431,8.181-0.575c0.065,1.854,0.876,4.016-1.272,5.4c-6.482,4.175,10.772,8.915,14.087-8.145
		c1.743-8.968-8.129-14.583-18.762-4.555c-22.97,21.662,17.455,42.141,30.135,51.092c11.412,8.055-5.791-10.622,19.888-11.824
		c-25.22-30.683-3.195-37.502,3.782-32.871c3.174,2.108,4.787,1.334,7.52,0.029c12.578-6.002,21.905,9.253,11.327,23.249
		c-2.345,3.103-4.76,6.154-7.402,9.563c7.039,1.103,13.873-2.905,16.435,14.363c25.639-17.787,25.678-17.547,29.81-20.864
		c26.829-21.538-9.098-51.122-15.033-32.118c-3.616,11.578,13.001,21.182,16.487,12.748c-8.125-2.523-5.143-7.928-0.796-8.313
		c10.178-0.9,6.772,21.866-9.805,16.328c-19.611-6.552-14.4-35.901,1.353-32.484c10.426,2.261,18.966,6.96,22.179,18.099
		c0.247,0.856,0.495,1.871,1.363,1.971c5.745,0.661,2.376,21.712-0.895,30.351c19.911-15.795,27.748-33.504,65.909-21.855
		c0.498,0.152,1.3,0.513,1.324,0.825c0.302,3.861,3.492,3.251,5.886,3.971c26.709,8.03,26.469,21.256,43.016,35.578
		c28.153,24.369,60.51-16.587,38.37-30.152c-16.731-10.25-38.569,8.278-30.296,19.821c3.587,5.006,12.439,8.45,16.454,0.965
		c-10.072,0.29-6.88-9.791-2.499-11.681c10.627-4.583,14.26,9.886,7.177,16.696c-12.402,11.926-33.753,1.132-28.068-17.487
		c5.137-16.824,39.207-32.111,52.798-5.449c1.628,3.193,2.444,2.918,4.779,0.739c8.147-7.604,17.984-10.685,27.852-10.797
		c0.113-9.868,3.194-19.705,10.797-27.852c2.179-2.335,2.454-3.151-0.739-4.779c-26.662-13.591-11.375-47.661,5.449-52.798
		c18.619-5.686,29.413,15.666,17.487,28.068c-6.811,7.083-21.279,3.45-16.696-7.177c1.889-4.381,11.971-7.573,11.681,2.499
		c7.485-4.014,4.041-12.867-0.965-16.454c-11.544-8.273-30.072,13.565-19.821,30.296c13.565,22.14,54.521-10.217,30.152-38.37
		c-14.322-16.546-27.548-16.307-35.578-43.016c-0.72-2.394-0.11-5.583-3.971-5.886c-0.313-0.024-0.673-0.826-0.825-1.324
		c-11.649-38.161,6.06-45.999,21.855-65.909c-8.639,3.27-29.69,6.639-30.351,0.895c-0.099-0.867-1.115-1.116-1.971-1.363
		c-11.14-3.212-15.839-11.753-18.099-22.179c-3.417-15.753,25.932-20.965,32.484-1.353c5.538,16.577-17.227,19.983-16.328,9.805
		c0.385-4.347,5.79-7.329,8.313,0.796c8.434-3.487-1.17-20.104-12.748-16.487c-19.004,5.935,10.579,41.862,32.118,15.033
		c3.317-4.132,3.077-4.171,20.864-29.81c-17.268-2.563-13.261-9.396-14.363-16.435c-3.409,2.643-6.46,5.057-9.563,7.402
		c-13.996,10.578-29.251,1.252-23.249-11.327c1.305-2.733,2.078-4.346-0.029-7.52c-4.631-6.977,2.188-29.002,32.871-3.782
		c1.202-25.68,19.879-8.477,11.824-19.888c-8.951-12.68-29.43-53.104-51.092-30.135c-10.028,10.633-4.413,20.506,4.555,18.762
		c17.06-3.315,12.319-20.569,8.145-14.087c-1.384,2.148-3.546,1.337-5.4,1.272c-2.856-0.101-3.542-6.522,0.575-8.181
		c13.152-5.299,21.715,15.527,5.434,24.949c-34.994,20.25-33.545-47.809,19.984-34.679c2.094,0.514,4.079,1.581,6.669,1.383
		c-17.1-18.609-31.896-29.451-23.985-60.657c0.001-0.004,1.731-6.448,1.731-6.448c6.873-1.912,4.918-8.631,6.722-13.047
		c8.43-20.643,28.262-26.532,36.821-40.98c8.851-14.94,1.456-35.034-15.099-39.939c-19.093-5.657-30.108,21.228-12.094,35.425
		c11.083,8.736,25.595-5.183,15.037-15.932c-1.343,2.676-0.109,6.305-3.986,6.917c-11.365,1.794-12.013-12.962-1.32-14.723
		c8.853-1.457,18.25,11.191,13.334,22.608c-14.257,33.111-69.302-20.59-23.234-45.574c-23.737-22.005-14.214-57.821,10.704-78.57
		c7.119-5.928,14.967-11.032,19.203-19.872c8.074-16.85-2.661-35.888-17.345-38.113c-25.536-3.869-26.705,31.128-5.32,38.042
		c6.281,2.031,19.105-5.841,9.032-19.026c-1.04,3.748,0.244,7.404-4.292,8.053c-5.628,0.805-11.414-6.437-6.974-11.777
		c3.507-4.22,12.507-4.104,16.5,0.302c7.954,8.775,4.697,23.905-6.328,28.304c-14.281,5.699-37.681-14.733-29.341-40.633
		c2.802-8.7,13.06-10.772,8.357-13.604c-12.141-7.311-14.254-20.644-19.768-32.337c-4.08,10.512-6.02,19.967-18.27,19.434
		c-9.206-0.401-7.847-10.304-11.547-2.452c-10.237,21.727,7.349,29.886,4.871,39.422c-2.806,10.799-2.146,17.916-5.426,17.299
		c-3.837-0.722-4.533,1.709-5.632,4.389c-3.939,9.616-21.758-10.754-15.321-34.458c0.867-3.192-11.571-5.033-7.821,5.684
		c2.792,7.979,5.151,38.233-10.209,51.954c-8.88,7.932-29.617,6.766-32.177-10.412c-3.115-20.893,30.568-23.35,25.621-6.013
		c-2.275,7.971-12.682,6.391-12.425,1.693c0.22-4.021,5.397,0,5.753-2.529c0.308-2.192-4.714-4.496-7.274,0.141
		c-8.111,14.692,23.149,27.627,27.71-24.179c-2.671,3.413-5.287,4.911-9.003,5.057c-8.511,0.334-7.505-7.069-10.256-8.106
		c-8.709-3.282-7.258-8.283-2.611-14.975c-8.313-2.193-41.761,10.714-30.664,23.853c4.102,4.857,15.711,3.463,13.702-3.596
		c-0.641-2.251-3.497-2.998-3.124,0.359c0.544,4.895-5.126,3.327-5.469,0.142c-1.28-11.868,11.11-8.979,13.874-6.508
		c14.098,12.606-10.99,33.045-24.401,18.02c-9.593-10.748-7.576-30.932,18.978-37.25c4.832-1.149,30.272-3.535,31.984,1.43
		c0.522,1.513,4.492,0.701,6.804,0.268c1.985-0.371,0.925-2.339,1.061-3.598c0.236-2.175-0.652-2.512-2.796-1.991
		c-29.211,7.094-40.428-10.451-35.264-12.288c4.096-1.457,4.932-5.118,6.069-8.625c0.148-0.456,0.81-1.038,1.259-1.06
		c8.904-0.432,17.095-6.673,26.877-1.015c10.249,5.929,20.734,2.962,30.185-3.741c-11.561-9.005-7.545-23.842,14.508-27.966
		c-0.143-0.057-0.286-0.114-0.43-0.17c0.143-0.057,0.286-0.113,0.43-0.17c-22.053-4.124-26.069-18.961-14.508-27.966
		c-9.451-6.703-19.936-9.671-30.185-3.741c-9.781,5.658-17.973-0.583-26.877-1.015c-0.449-0.022-1.111-0.604-1.259-1.06
		c-1.137-3.507-1.974-7.168-6.069-8.625c-5.164-1.837,6.053-19.382,35.264-12.288c2.144,0.521,3.032,0.184,2.796-1.991
		c-0.136-1.259,0.924-3.228-1.061-3.598c-2.313-0.432-6.283-1.245-6.804,0.268c-1.713,4.965-27.153,2.579-31.984,1.43
		c-26.554-6.318-28.571-26.502-18.978-37.25c13.411-15.025,38.5,5.414,24.401,18.02c-2.764,2.471-15.154,5.36-13.874-6.508
		c0.343-3.185,6.014-4.753,5.469,0.142c-0.373,3.358,2.483,2.61,3.124,0.359c2.008-7.059-9.6-8.453-13.702-3.596
		c-11.097,13.139,22.35,26.046,30.664,23.853c-4.647-6.693-6.098-11.693,2.611-14.975c2.751-1.037,1.745-8.44,10.256-8.106
		c3.716,0.146,6.331,1.644,9.003,5.057c-4.562-51.806-35.821-38.871-27.71-24.179c2.56,4.637,7.581,2.333,7.274,0.141
		c-0.355-2.529-5.532,1.491-5.753-2.529c-0.257-4.698,10.15-6.278,12.425,1.693c4.947,17.337-28.736,14.88-25.621-6.013
		c2.56-17.178,23.298-18.344,32.177-10.412c15.36,13.722,13.001,43.975,10.209,51.954c-3.75,10.716,8.688,8.876,7.821,5.684
		c-6.437-23.704,11.381-44.074,15.321-34.458c1.099,2.68,1.795,5.111,5.632,4.389c3.279-0.616,2.619,6.501,5.426,17.299
		c2.477,9.536-15.109,17.694-4.871,39.422c3.7,7.852,2.341-2.051,11.547-2.452c12.25-0.533,14.19,8.921,18.27,19.434
		c5.514-11.693,7.627-25.026,19.768-32.337c4.703-2.832-5.555-4.904-8.357-13.604c-8.341-25.9,15.06-46.332,29.341-40.633
		c11.025,4.399,14.282,19.529,6.328,28.304c-3.993,4.405-12.994,4.521-16.5,0.302c-4.44-5.34,1.346-12.582,6.974-11.777
		c4.535,0.649,3.252,4.305,4.292,8.053c10.073-13.185-2.751-21.057-9.032-19.026c-21.385,6.914-20.216,41.911,5.32,38.042
		c14.684-2.224,25.42-21.263,17.345-38.113c-4.236-8.84-12.084-13.944-19.203-19.872c-24.918-20.748-34.442-56.565-10.704-78.57
		c-46.069-24.984,8.977-78.686,23.234-45.574c4.916,11.417-4.48,24.065-13.334,22.608c-10.693-1.76-10.045-16.517,1.32-14.723
		c3.877,0.612,2.643,4.241,3.986,6.917c10.558-10.749-3.954-24.667-15.037-15.932c-18.014,14.198-6.998,41.083,12.094,35.425
		c16.555-4.905,23.951-24.999,15.099-39.939c-8.559-14.448-28.391-20.337-36.821-40.98c-1.804-4.416,0.15-11.136-6.722-13.047
		c0,0-1.73-6.444-1.731-6.448c-7.911-31.206,6.885-42.048,23.985-60.657c-2.59-0.198-4.575,0.869-6.669,1.383
		c-53.529,13.13-54.978-54.929-19.984-34.679c16.281,9.422,7.718,30.247-5.434,24.949c-4.117-1.659-3.431-8.08-0.575-8.181
		c1.854-0.065,4.016-0.876,5.4,1.272c4.175,6.482,8.915-10.772-8.145-14.087c-8.968-1.743-14.583,8.129-4.555,18.762
		c21.662,22.97,42.141-17.455,51.092-30.135c8.055-11.412-10.622,5.791-11.824-19.888c-30.683,25.22-37.502,3.195-32.871-3.782
		c2.108-3.174,1.334-4.787,0.029-7.52c-6.002-12.578,9.253-21.905,23.249-11.327c3.103,2.345,6.154,4.76,9.563,7.402
		c1.103-7.039-2.905-13.873,14.363-16.435c-17.787-25.639-17.547-25.678-20.864-29.81c-21.538-26.829-51.122,9.098-32.118,15.033
		c11.578,3.616,21.182-13.001,12.748-16.487c-2.523,8.125-7.928,5.143-8.313,0.796c-0.9-10.178,21.866-6.772,16.328,9.805
		c-6.552,19.611-35.901,14.4-32.484-1.353c2.261-10.426,6.96-18.967,18.099-22.179c0.856-0.247,1.871-0.495,1.971-1.362
		c0.661-5.745,21.712-2.376,30.351,0.894c-15.795-19.911-33.504-27.748-21.855-65.909c0.152-0.497,0.513-1.3,0.825-1.324
		c3.861-0.303,3.251-3.492,3.971-5.886c8.03-26.709,21.256-26.469,35.578-43.016c24.369-28.153-16.587-60.51-30.152-38.37
		c-10.25,16.731,8.278,38.569,19.821,30.296c5.006-3.587,8.45-12.439,0.965-16.454c0.29,10.072-9.791,6.88-11.681,2.499
		c-4.583-10.627,9.886-14.26,16.696-7.177c11.926,12.402,1.132,33.753-17.487,28.068c-16.824-5.137-32.111-39.207-5.449-52.798
		c3.193-1.628,2.918-2.444,0.739-4.779C1527.63,118.144,1524.549,108.307,1524.436,98.439z"/>
	<path d="M811.438,226.456c7.082-17.948,18.239-35.339,12.573-59.187c-0.504-2.119-1.54-5.391,0.648-6.029
		c3.226-0.939,2.978,2.879,3.736,4.875c14.591,38.419-41.763,93.439,7.14,109.954c13.438,4.538,29.429-7.623,33.401-20.426
		c4.676-15.074-9.774-32.561-27.637-26.925c-7.917,2.499-20.539,20.259-2.154,28.573c0.464,0.209,1.508-0.156,1.877-0.598
		c0.741-0.884-0.354-1.443-0.749-2.094c-3.83-6.31-0.627-12.025,7.055-11.452c13.685,1.02,4.778,24.558-11.965,19.461
		c-22.603-6.882-12.361-47.419,19.595-41.027c12.262,2.453,21.049,8.887,24.091,20.777c12.987,50.76-1.277,33.494-5.668,43.92
		c-2.906,6.9-9.155,9.756-10.17,9.255c-7.067-3.488-13.843,10.16-22.864,1.926c-4.047-3.694-7.38,2.87-21.384-0.129
		c-3.822-0.818-6.129-2.036-7.523-3.474c-1.394,1.438-3.7,2.656-7.523,3.474c-14.004,2.999-17.337-3.565-21.384,0.129
		c-9.021,8.234-15.797-5.414-22.864-1.926c-1.015,0.501-7.264-2.355-10.17-9.255c-4.391-10.426-18.656,6.84-5.668-43.92
		c3.042-11.89,11.829-18.324,24.091-20.777c31.956-6.392,42.198,34.145,19.595,41.027c-16.743,5.097-25.65-18.441-11.965-19.461
		c7.683-0.573,10.885,5.142,7.055,11.452c-0.395,0.651-1.49,1.209-0.749,2.094c0.37,0.442,1.413,0.807,1.877,0.598
		c18.385-8.314,5.763-26.075-2.154-28.573c-17.863-5.636-32.313,11.851-27.637,26.925c3.972,12.803,19.963,24.964,33.401,20.426
		c48.902-16.516-7.451-71.535,7.14-109.954c0.758-1.996,0.511-5.815,3.736-4.875c2.188,0.638,1.151,3.91,0.648,6.029
		C793.198,191.117,804.356,208.507,811.438,226.456z"/>
	<path d="M1396.419,811.438c17.948,7.082,35.339,18.239,59.187,12.573c2.119-0.504,5.391-1.54,6.029,0.648
		c0.939,3.226-2.879,2.978-4.875,3.736c-38.419,14.591-93.439-41.763-109.954,7.14c-4.538,13.438,7.623,29.429,20.426,33.401
		c15.074,4.676,32.561-9.774,26.925-27.637c-2.499-7.917-20.259-20.539-28.573-2.154c-0.209,0.464,0.156,1.508,0.598,1.877
		c0.884,0.741,1.443-0.354,2.094-0.749c6.31-3.83,12.025-0.627,11.452,7.055c-1.02,13.685-24.558,4.778-19.461-11.965
		c6.882-22.603,47.419-12.361,41.027,19.595c-2.453,12.262-8.887,21.049-20.777,24.091c-50.76,12.987-33.494-1.277-43.92-5.668
		c-6.9-2.906-9.756-9.155-9.255-10.17c3.488-7.067-10.16-13.843-1.926-22.864c3.694-4.047-2.87-7.38,0.129-21.384
		c0.818-3.822,2.036-6.129,3.474-7.523c-1.438-1.394-2.656-3.7-3.474-7.523c-2.999-14.004,3.565-17.337-0.129-21.384
		c-8.234-9.021,5.414-15.797,1.926-22.864c-0.501-1.015,2.355-7.264,9.255-10.17c10.426-4.391-6.84-18.656,43.92-5.668
		c11.89,3.042,18.324,11.829,20.777,24.091c6.392,31.956-34.145,42.198-41.027,19.595c-5.097-16.743,18.441-25.65,19.461-11.965
		c0.573,7.683-5.142,10.885-11.452,7.055c-0.651-0.395-1.209-1.49-2.094-0.749c-0.442,0.37-0.807,1.413-0.598,1.877
		c8.314,18.385,26.074,5.763,28.573-2.154c5.636-17.863-11.851-32.313-26.925-27.637c-12.803,3.972-24.964,19.963-20.426,33.401
		c16.516,48.902,71.535-7.451,109.954,7.14c1.996,0.758,5.815,0.511,4.875,3.736c-0.638,2.188-3.91,1.151-6.029,0.648
		C1431.758,793.198,1414.368,804.356,1396.419,811.438z"/>
	<path d="M811.438,1396.419c-7.082,17.948-18.239,35.339-12.573,59.187c0.504,2.119,1.54,5.391-0.648,6.029
		c-3.226,0.939-2.978-2.879-3.736-4.875c-14.591-38.419,41.763-93.439-7.14-109.954c-13.438-4.538-29.429,7.623-33.401,20.426
		c-4.676,15.074,9.774,32.561,27.637,26.925c7.917-2.499,20.539-20.259,2.154-28.573c-0.464-0.209-1.508,0.156-1.877,0.598
		c-0.741,0.884,0.354,1.443,0.749,2.094c3.83,6.31,0.627,12.025-7.055,11.452c-13.685-1.02-4.778-24.558,11.965-19.461
		c22.603,6.882,12.361,47.419-19.595,41.027c-12.262-2.453-21.049-8.887-24.091-20.777c-12.987-50.76,1.277-33.494,5.668-43.92
		c2.906-6.9,9.155-9.756,10.17-9.255c7.067,3.488,13.843-10.16,22.864-1.926c4.047,3.694,7.38-2.87,21.384,0.129
		c3.822,0.818,6.129,2.036,7.523,3.474c1.394-1.438,3.7-2.656,7.523-3.474c14.004-2.999,17.337,3.565,21.384-0.129
		c9.021-8.234,15.797,5.414,22.864,1.926c1.015-0.501,7.264,2.355,10.17,9.255c4.391,10.426,18.656-6.84,5.668,43.92
		c-3.042,11.89-11.829,18.324-24.091,20.777c-31.956,6.392-42.198-34.145-19.595-41.027c16.743-5.097,25.65,18.441,11.965,19.461
		c-7.683,0.573-10.885-5.142-7.055-11.452c0.395-0.651,1.49-1.209,0.749-2.094c-0.37-0.442-1.413-0.807-1.877-0.598
		c-18.385,8.314-5.763,26.074,2.154,28.573c17.863,5.636,32.313-11.851,27.637-26.925c-3.972-12.803-19.963-24.964-33.401-20.426
		c-48.902,16.516,7.451,71.535-7.14,109.954c-0.758,1.996-0.511,5.815-3.736,4.875c-2.188-0.638-1.151-3.91-0.648-6.029
		C829.677,1431.758,818.52,1414.368,811.438,1396.419z"/>
	<path d="M226.456,811.438c-17.948-7.082-35.339-18.239-59.187-12.573c-2.119,0.504-5.391,1.54-6.029-0.648
		c-0.939-3.226,2.879-2.978,4.875-3.736c38.419-14.591,93.439,41.763,109.954-7.14c4.538-13.438-7.623-29.429-20.426-33.401
		c-15.074-4.676-32.561,9.774-26.925,27.637c2.499,7.917,20.259,20.539,28.573,2.154c0.209-0.464-0.156-1.508-0.598-1.877
		c-0.884-0.741-1.443,0.354-2.094,0.749c-6.31,3.83-12.025,0.627-11.452-7.055c1.02-13.685,24.558-4.778,19.461,11.965
		c-6.882,22.603-47.419,12.361-41.027-19.595c2.453-12.262,8.887-21.049,20.777-24.091c50.76-12.987,33.494,1.277,43.92,5.668
		c6.9,2.906,9.756,9.155,9.255,10.17c-3.488,7.067,10.16,13.843,1.926,22.864c-3.694,4.047,2.87,7.38-0.129,21.384
		c-0.818,3.822-2.036,6.129-3.474,7.523c1.438,1.394,2.656,3.7,3.474,7.523c2.999,14.004-3.565,17.337,0.129,21.384
		c8.234,9.021-5.414,15.797-1.926,22.864c0.501,1.015-2.355,7.264-9.255,10.17c-10.426,4.391,6.84,18.656-43.92,5.668
		c-11.89-3.042-18.324-11.829-20.777-24.091c-6.392-31.956,34.145-42.198,41.027-19.595c5.097,16.743-18.441,25.65-19.461,11.965
		c-0.573-7.683,5.142-10.885,11.452-7.055c0.651,0.395,1.209,1.49,2.094,0.749c0.442-0.37,0.807-1.413,0.598-1.877
		c-8.314-18.385-26.075-5.763-28.573,2.154c-5.636,17.863,11.851,32.313,26.925,27.637c12.803-3.972,24.964-19.963,20.426-33.401
		c-16.516-48.902-71.535,7.451-109.954-7.14c-1.996-0.758-5.815-0.511-4.875-3.736c0.638-2.188,3.91-1.151,6.029-0.648
		C191.117,829.677,208.507,818.52,226.456,811.438z"/>
	<path d="M956.71,137.553c4.068-16.585-28.028-15.579-29.135,6.184c-0.87,17.116,26.12,35.671,44.715,8.905
		c14.347-20.652-2.333-54.711-52.452-34.05c-50.147,20.672-68.245-1.417-54.008,1.936c40.866,9.626,51.025-20.365,93.809-17.125
		c1.92,0.145,3.194,0.107,4.476-1.157c3.795-3.737,8.476-2.063,12.875-2.103c2.818,5.981,8.635,4.494,13.51,5.639
		c9.335,2.193,7.99,20.329,6.279,25.608c-0.622,1.919-0.75,3.508,1.298,5.021c2.127,1.571,2.47,8.843,0.826,11.917
		c-7.485,14.003,1.008,14.44-10.672,20.33c-10.256,5.171-2.819,10.963-12.161,11.359c-87.558,3.711-52.349-82.417-18.823-57.046
		c7.543,5.708,9.833,20.051-2.177,26.357c-15.916,8.358-14.959-22.144,0.495-12.246C955.905,137.299,956.32,137.396,956.71,137.553z
		"/>
	<path d="M137.553,666.165c-16.585-4.068-15.579,28.028,6.184,29.135c17.116,0.87,35.671-26.12,8.905-44.715
		c-20.652-14.347-54.711,2.333-34.05,52.452c20.672,50.147-1.417,68.245,1.936,54.008c9.626-40.866-20.365-51.025-17.125-93.809
		c0.145-1.92,0.107-3.194-1.157-4.476c-3.737-3.795-2.063-8.476-2.103-12.875c5.981-2.818,4.494-8.635,5.639-13.51
		c2.193-9.335,20.329-7.99,25.608-6.279c1.919,0.622,3.508,0.75,5.021-1.298c1.571-2.127,8.843-2.47,11.917-0.826
		c14.003,7.485,14.44-1.008,20.33,10.672c5.171,10.256,10.963,2.819,11.359,12.161c3.711,87.558-82.417,52.349-57.046,18.823
		c5.708-7.543,20.051-9.833,26.357,2.177c8.358,15.916-22.144,14.959-12.246-0.495C137.299,666.97,137.396,666.555,137.553,666.165z
		"/>
	<path d="M666.165,1485.322c-4.068,16.585,28.028,15.578,29.135-6.184c0.87-17.116-26.12-35.671-44.715-8.905
		c-14.347,20.652,2.333,54.711,52.452,34.05c50.147-20.672,68.245,1.417,54.008-1.936c-40.866-9.626-51.025,20.365-93.809,17.125
		c-1.92-0.145-3.194-0.107-4.476,1.157c-3.795,3.737-8.476,2.063-12.875,2.103c-2.818-5.981-8.635-4.494-13.51-5.639
		c-9.335-2.193-7.99-20.329-6.279-25.608c0.622-1.919,0.75-3.508-1.298-5.021c-2.127-1.571-2.47-8.843-0.826-11.917
		c7.485-14.003-1.008-14.44,10.672-20.33c10.256-5.171,2.819-10.963,12.161-11.359c87.558-3.711,52.349,82.417,18.823,57.046
		c-7.543-5.708-9.833-20.051,2.177-26.357c15.916-8.358,14.959,22.144-0.495,12.246
		C666.97,1485.576,666.555,1485.48,666.165,1485.322z"/>
	<path d="M1485.322,956.71c16.585,4.068,15.578-28.028-6.184-29.135c-17.116-0.87-35.671,26.12-8.905,44.715
		c20.652,14.347,54.711-2.333,34.05-52.452c-20.672-50.147,1.417-68.245-1.936-54.008c-9.626,40.866,20.365,51.025,17.125,93.809
		c-0.145,1.92-0.107,3.194,1.157,4.476c3.737,3.795,2.063,8.476,2.103,12.875c-5.981,2.818-4.494,8.635-5.639,13.51
		c-2.193,9.335-20.329,7.99-25.608,6.279c-1.919-0.622-3.508-0.75-5.021,1.298c-1.571,2.127-8.843,2.47-11.917,0.826
		c-14.003-7.485-14.44,1.008-20.33-10.672c-5.171-10.256-10.963-2.819-11.359-12.161c-3.711-87.558,82.417-52.349,57.046-18.823
		c-5.708,7.543-20.051,9.833-26.357-2.177c-8.358-15.916,22.144-14.959,12.246,0.495
		C1485.576,955.905,1485.48,956.32,1485.322,956.71z"/>
	<path d="M1485.322,666.165c16.585-4.068,15.578,28.028-6.184,29.135c-17.116,0.87-35.671-26.12-8.905-44.715
		c20.652-14.347,54.711,2.333,34.05,52.452c-20.672,50.147,1.417,68.245-1.936,54.008c-9.626-40.866,20.365-51.025,17.125-93.809
		c-0.145-1.92-0.107-3.194,1.157-4.476c3.737-3.795,2.063-8.476,2.103-12.875c-5.981-2.818-4.494-8.635-5.639-13.51
		c-2.193-9.335-20.329-7.99-25.608-6.279c-1.919,0.622-3.508,0.75-5.021-1.298c-1.571-2.127-8.843-2.47-11.917-0.826
		c-14.003,7.485-14.44-1.008-20.33,10.672c-5.171,10.256-10.963,2.819-11.359,12.161c-3.711,87.558,82.417,52.349,57.046,18.823
		c-5.708-7.543-20.051-9.833-26.357,2.177c-8.358,15.916,22.144,14.959,12.246-0.495
		C1485.576,666.97,1485.48,666.555,1485.322,666.165z"/>
	<path d="M666.165,137.553c-4.068-16.585,28.028-15.579,29.135,6.184c0.87,17.116-26.12,35.671-44.715,8.905
		c-14.347-20.652,2.333-54.711,52.452-34.05c50.147,20.672,68.245-1.417,54.008,1.936c-40.866,9.626-51.025-20.365-93.809-17.125
		c-1.92,0.145-3.194,0.107-4.476-1.157c-3.795-3.737-8.476-2.063-12.875-2.103c-2.818,5.981-8.635,4.494-13.51,5.639
		c-9.335,2.193-7.99,20.329-6.279,25.608c0.622,1.919,0.75,3.508-1.298,5.021c-2.127,1.571-2.47,8.843-0.826,11.917
		c7.485,14.003-1.008,14.44,10.672,20.33c10.256,5.171,2.819,10.963,12.161,11.359c87.558,3.711,52.349-82.417,18.823-57.046
		c-7.543,5.708-9.833,20.051,2.177,26.357c15.916,8.358,14.959-22.144-0.495-12.246C666.97,137.299,666.555,137.396,666.165,137.553
		z"/>
	<path d="M137.553,956.71c-16.585,4.068-15.579-28.028,6.184-29.135c17.116-0.87,35.671,26.12,8.905,44.715
		c-20.652,14.347-54.711-2.333-34.05-52.452c20.672-50.147-1.417-68.245,1.936-54.008c9.626,40.866-20.365,51.025-17.125,93.809
		c0.145,1.92,0.107,3.194-1.157,4.476c-3.737,3.795-2.063,8.476-2.103,12.875c5.981,2.818,4.494,8.635,5.639,13.51
		c2.193,9.335,20.329,7.99,25.608,6.279c1.919-0.622,3.508-0.75,5.021,1.298c1.571,2.127,8.843,2.47,11.917,0.826
		c14.003-7.485,14.44,1.008,20.33-10.672c5.171-10.256,10.963-2.819,11.359-12.161c3.711-87.558-82.417-52.349-57.046-18.823
		c5.708,7.543,20.051,9.833,26.357-2.177c8.358-15.916-22.144-14.959-12.246,0.495C137.299,955.905,137.396,956.32,137.553,956.71z"
		/>
	<path d="M956.71,1485.322c4.068,16.585-28.028,15.578-29.135-6.184c-0.87-17.116,26.12-35.671,44.715-8.905
		c14.347,20.652-2.333,54.711-52.452,34.05c-50.147-20.672-68.245,1.417-54.008-1.936c40.866-9.626,51.025,20.365,93.809,17.125
		c1.92-0.145,3.194-0.107,4.476,1.157c3.795,3.737,8.476,2.063,12.875,2.103c2.818-5.981,8.635-4.494,13.51-5.639
		c9.335-2.193,7.99-20.329,6.279-25.608c-0.622-1.919-0.75-3.508,1.298-5.021c2.127-1.571,2.47-8.843,0.826-11.917
		c-7.485-14.003,1.008-14.44-10.672-20.33c-10.256-5.171-2.819-10.963-12.161-11.359c-87.558-3.711-52.349,82.417-18.823,57.046
		c7.543-5.708,9.833-20.051-2.177-26.357c-15.916-8.358-14.959,22.144,0.495,12.246
		C955.905,1485.576,956.32,1485.48,956.71,1485.322z"/>
</g>
</svg>
