<?xml version="1.0" encoding="utf-8"?>
<svg version="1.1" id="Layer_1" xmlns="http://www.w3.org/2000/svg" xmlns:xlink="http://www.w3.org/1999/xlink" x="0px" y="0px"
	 viewBox="0 0 2650.903 966.965" enable-background="new 0 0 2650.903 966.965" xml:space="preserve">
<g>
	<path d="M444.408,653.977c5.508-6.423,13.79-11.898,24.481-11.563c10.915,0.342,42.781,8.825,42.781,8.825
		s4.963-8.683,16.458-1.696c0,0,6.714-7.128,18.925-0.215c0,0,4.913-6.364,15.149,1.042c0,0,33.19-9.857,56.356-1.902
		c665.191-1.675,659.427,0.46,680.833-6.666c0,0,6.884-0.565,9.474,3.507l14.803,2.597c0,0,2.712,4.566,0.047,6.07
		c-2.665,1.504-15.422,3.325-18.237,7.592c-13.174-1.042-33.217-2.534-57.612-3.971c-142.69-0.772-249.285-3.247-357.761-0.412
		c-64.455,1.685-157.564,3.138-272.168,1.398c-13.82,2.686-38.294,4.346-57.021-2.44c0,0-2.718,10.115-16.31,1.03
		c0,0-4.741,8.733-16.927,0.66c0,0-4.863,6.142-15.964-0.524c0,0-23.121,2.31-32.276,6.797
		C470.286,668.594,452.325,663.43,444.408,653.977z"/>
	<path d="M2274.199,653.977c-5.508-6.423-13.79-11.898-24.481-11.563c-10.915,0.342-42.781,8.825-42.781,8.825
		s-4.963-8.683-16.458-1.696c0,0-6.714-7.128-18.925-0.215c0,0-4.913-6.364-15.15,1.042c0,0-33.19-9.857-56.356-1.902
		c-665.191-1.675-659.427,0.46-680.833-6.666c0,0-6.884-0.565-9.474,3.507l-14.803,2.597c0,0-2.712,4.566-0.047,6.07
		c2.665,1.504,15.422,3.325,18.237,7.592c13.174-1.042,33.217-2.534,57.612-3.971c142.69-0.772,249.285-3.247,357.761-0.412
		c64.455,1.685,157.564,3.138,272.167,1.398c13.82,2.686,38.294,4.346,57.021-2.44c0,0,2.718,10.115,16.31,1.03
		c0,0,4.741,8.733,16.927,0.66c0,0,4.863,6.142,15.964-0.524c0,0,23.121,2.31,32.276,6.797
		C2248.322,668.594,2266.283,663.43,2274.199,653.977z"/>
	<path d="M1381.413,656.308c-7.63-3.766-16.89-1.708-22.108,5.289c-5.615-6.697-14.484-8.461-22.109-5.289c0-3.299,0-6.597,0-9.896
		c7.808,2.425,16.143,0.547,22.028-5.289c5.945,5.831,14.326,7.713,22.19,5.289C1381.413,649.711,1381.413,653.01,1381.413,656.308z
		"/>
</g>
<g>
	<path d="M1323.467,55.99c1.252-14.984,21.925-14.499,23.429-0.792c1.5,13.672-23.482,23.492-23.436,36.489
		c0-11.155-18.795-20.361-22.766-31.105c-2.665-7.211,2.089-14.595,9.186-15.668c6.706-1.014,12.728,3.705,13.488,10.276
		C1323.398,55.456,1323.399,55.724,1323.467,55.99z"/>
	<path d="M427.934,503.758c-26.887-20.552-44.879-7.778-51.05-0.995c-6.171,6.783-6.91,19.262-4.968,22.316
		c1.942,3.054,4.774,1.063,4.774,1.063c6.332-9.078,14.364-9.037,14.364-9.037s32.309,4.047,13.746,24.618
		c-18.563,20.571-76.86-0.215-81.732-1.883c-4.872-1.667-1.797-4.679-0.8-4.257c19.169,8.113,53.896,11.766,58.559,11.755
		c4.265-0.01,2.936-5.144-0.58-5.226c-31.796-0.745-61.256-20.076-61.256-20.076c-4.883-38.259-42.376-67.698-42.376-67.698
		s-13.293-12.231-7.507-17.053c2.412-2.01,4.568,0.603,5.846,2.849c1.246,2.189,2.853,4.146,4.573,5.986
		c21.344,22.839,44.032,66.911,44.032,66.911c9.314-30.321-47.388-91.769-47.388-91.769c36.253-47.163,67.573-25.776,78.829-19.622
		c13.668,7.472,12.665,29.621-18.786,22.619c-12.546-2.793-9.966-7.92-9.742-11.724c0.164-2.796-3.769-14.473-11.202,0.07
		c-9.005,17.619,10.478,22.026,10.478,22.026c26.804,9.93,43.483-3.361,46.849-15.206c5.918-20.823-1.887-32.348-40.091-42.369
		c-38.125-10-74.639,31.159-74.639,31.159c-93.074-72.959-210.251-42.217-212.363,14.363c-1.596,42.76,32.548,53.741,52.409,58.745
		c19.861,5.004,41.907,5.951,57.446-12.031c15.539-17.981,2.369-32.1-4.378-36.865c-6.747-4.765-22.87-7.189-28.523-0.64
		c-5.653,6.549-3.362,15.099-1.685,18.036c1.676,2.937,4.502,1.235,4.502,1.235l2.159-9.695c0.38-1.708,1.805-2.979,3.54-3.204
		c12.092-1.574,16.498,7.937,16.498,7.937c0.302,16.964-16.871,16.636-16.871,16.636c-32.533,1.147-56.841-19.996-55.219-36.181
		c1.353-13.491,6.323-46.718,66.662-45.053c60.34,1.664,111.758,39.214,111.758,39.214l-5.017,21.489
		c-12.965-3.003-52.825-10.918-77.641,12.196c-19.994,18.621-9.059,41.214-7.086,43.868c18.625,25.049,39.533,18.706,54.055,14.715
		c15.795-4.341,18.168-18.794,16.517-24.988c-1.651-6.194-11.135-12.267-23.535-10.483c-12.399,1.784-12.256,13.702-11.85,15.54
		c0.687,3.11,0.311,5.509,12.484,2.546c16.112-3.922,12.502,13.64-10.082,7.077c-31.568-7.378-16.358-32.773-16.358-32.773
		c23.93-22.173,67.807-6.228,67.807-6.228c14.405,43.642,38.473,52.585,56.071,64.804c1.412,0.98,9.188,8.454,3.057,6.157
		c-6.131-2.297-26.916-18.409-36.089-24.232c-3.676-2.333-6.95,2.044-4.259,6.043c8.668,12.883,45.277,30.589,45.277,30.589
		l2.739,14.311c0.142,0.74,1.206,0.728,1.33-0.016l1.839-10.999c83.489,20.685,83.424,11.255,106.494-2.043
		C435.974,544.584,454.82,524.31,427.934,503.758z M273.612,473.975c0,0,25.531,16.434,31.953,38.226
		C305.566,512.201,283.151,500.219,273.612,473.975z"/>
	<path d="M2605.398,422.578c-2.112-56.605-119.324-87.294-212.363-14.363c0,0-36.514-41.158-74.639-31.159
		c-38.204,10.02-46.009,21.546-40.091,42.369c3.366,11.845,20.045,25.135,46.849,15.206c0,0,19.483-4.406,10.478-22.026
		c-7.432-14.542-11.366-2.865-11.202-0.07c0.224,3.804,2.804,8.931-9.742,11.724c-31.469,7.006-32.414-15.168-18.785-22.619
		c11.257-6.154,42.577-27.541,78.829,19.622c0,0-56.702,61.448-47.388,91.769c0,0,22.688-44.072,44.032-66.911
		c1.719-1.84,3.326-3.797,4.573-5.986c1.279-2.246,3.434-4.859,5.846-2.849c5.786,4.821-7.507,17.053-7.507,17.053
		s-37.493,29.439-42.376,67.698c0,0-29.459,19.331-61.255,20.076c-3.52,0.083-4.834,5.217-0.58,5.226
		c4.663,0.01,39.39-3.643,58.559-11.755c0.998-0.422,4.073,2.589-0.8,4.257c-4.873,1.667-63.169,22.454-81.732,1.883
		c-18.563-20.571,13.746-24.618,13.746-24.618s8.031-0.04,14.364,9.037c0,0,2.832,1.991,4.774-1.063
		c1.942-3.054,1.203-15.533-4.968-22.316c-6.171-6.783-24.164-19.557-51.05,0.995c-26.887,20.552-8.04,40.826-1.624,44.525
		c23.071,13.298,23.005,22.728,106.494,2.043l1.839,10.999c0.124,0.744,1.188,0.756,1.33,0.016l2.739-14.311
		c0,0,36.609-17.706,45.277-30.589c2.691-3.999-0.583-8.377-4.259-6.043c-9.172,5.823-29.958,21.935-36.089,24.232
		c-6.131,2.297,1.646-5.177,3.057-6.157c17.598-12.218,41.666-21.162,56.071-64.804c0,0,43.877-15.944,67.807,6.228
		c0,0,15.209,25.396-16.358,32.773c-22.58,6.561-26.197-11-10.082-7.077c12.172,2.963,11.796,0.564,12.484-2.546
		c0.406-1.838,0.549-13.756-11.849-15.54c-12.4-1.784-21.885,4.29-23.535,10.483c-1.651,6.194,0.722,20.647,16.517,24.988
		c14.522,3.991,35.429,10.334,54.055-14.715c1.973-2.653,12.907-25.247-7.086-43.868c-24.816-23.113-64.676-15.198-77.641-12.196
		l-5.017-21.489c0,0,51.418-37.549,111.758-39.214c60.34-1.665,65.31,31.562,66.662,45.053
		c1.622,16.186-22.685,37.328-55.219,36.181c0,0-17.173,0.328-16.871-16.636c0,0,4.405-9.511,16.497-7.937
		c1.735,0.226,3.16,1.497,3.54,3.204l2.159,9.695c0,0,2.826,1.701,4.502-1.235c1.677-2.937,3.968-11.487-1.685-18.036
		c-5.654-6.549-21.777-4.124-28.523,0.64c-6.747,4.765-19.917,18.884-4.378,36.865c15.54,17.981,37.585,17.035,57.446,12.031
		C2572.849,476.319,2606.994,465.338,2605.398,422.578z M2345.337,512.201c6.423-21.793,31.954-38.226,31.954-38.226
		C2367.752,500.219,2345.337,512.201,2345.337,512.201z"/>
	<path d="M342.433,264.954c-30.98,4.115-51.512,33.67-40.051,59.776c8.93,20.341,42.292,28.824,69.296,17.7
		c13.287-6.976,17.643-18.795,12.724-28.105c-4.734-8.961-14.602-10.529-25.423-8.282c-5.939,1.815-8.22,5.884-8.33,11.291
		c-0.174,8.644,11.62,11.093,18.89,6.441c2.679,3.702,2.1,6.85-0.911,9.586c-17.094,10.307-31.915,6.889-44.687-8.9
		c-7.801-12.569-2.678-29.313,14.596-35.728c61.376-22.796,124.859,0.268,172.374,51.018c0.788,0.842,2.155-0.083,1.645-1.118
		C486.385,285.496,419.395,254.732,342.433,264.954z"/>
	<path d="M1307.175,283.45c17.717-28.947,17.606-64.494,0.185-93.471c-18.983-39.918-52.591-69.296-93.272-83.515
		c1.595-25.118,21.723-45.186,59.602-35.322c9.252,2.409,13.005,3.455,16.336,9.056c3.494,5.872,2.258,11.912,1.919,13.362
		c0.603,3.538-3.087,6.025-6.182,4.217c-2.655-8.198-13.301-10.392-18.93-3.69c-4.959,8.065-0.874,17.543,7.487,20.544
		c0.984,0.565,10.374,5.748,20.355,1.211c10.128-4.604,16.96-19.069,13.299-31.473c-10.094-34.201-74.686-34.479-99.281-18.316
		c-3.164,1.603-8.775,7.361-13.508,13.831c-6.312,8.627-7.169,17.51-7.318,21.093c-39.206-11.138-69.63-1.64-91.488,21.026
		c-16.407,17.012-9.761,42.041,5.572,57.903c22.161,22.927,70.872,25.441,89.826,1.645c9.154-11.493,7.917-24.545,7.616-27.145
		c-3.873-15.804-22.529-21.014-34.286-10.08c-9.033,10.93,1.184,26.695,14.869,22.712c-1.322,11.204-11.035,18.782-21.844,18.034
		c-30.152,2.914-54.926-27.949-35.492-50.201c14.707-16.901,37.71-16.114,41.236-15.639c5.753,0.774,14.315,2.985,28.757,1.159
		c3.453,18.299,15.774,32.188,32.425,38.856c31.851,15.485,52.427,31.408,58.574,36.812c4.089,3.596,8.594,13.856,10.165,19.556
		c0.7,2.535,4.261,2.615,5.088,0.118c1.319-3.988,1.026-8.179-0.562-11.859c-21.869-35.964-44.895-45.783-58.955-56.298
		c-7.119-5.324-12.595-12.55-18.891-18.825c-0.644-0.642,0.014-1.711,0.872-1.412c26.727,9.332,50.288,27.621,65.899,53.269
		c20.713,22.572,26.254,55.102,11.478,83.483c-20.51,26.677-55.02,34.576-85.042,21.618c26.702,5.445,52.877-9.401,50.96-38.12
		c-8.207-25.395-31.667-39.059-57.315-37.755c-36.716-0.299-72.993,7.068-106.729,21.684c-0.806-5.957-4.583-10.805-9.822-13.198
		c13.126-4.379,23.919-4.219,31.369-5.077c18.384-2.117,35.238-2.568,50.114-2.127c3.657,0.437,5.045-4.563,1.705-6.088
		c-32.405-5.72-65.519-4.855-97.58,2.571c-13.066-6.26-34.985-14.676-63.209-15.995c-49.148-2.298-85.533,16.675-128.243,44.511
		c-21.954,14.308-40.8,28.966-56.718,42.781c-12.962-8.659-21.864-16.378-29.768-29.805c-5.169-8.782,1.069-12.992-2.003-25.779
		c-1.222-5.086-4.285-8.686-9.637-10.441c-26.512-5.149-26.203,20.489-18.982,35.801c10.099,21.414,39.59,36.475,44.028,37.769
		c-20.348,12.463-42.708,21.263-66.094,26.011c-14.313-5.232-26.571-6.413-34.566-6.472c-10.344-0.076-19.676,0.017-25.705,3.191
		c-3.846,2.025-10.137,8.424-20.508,10.466c-9.202,1.812-16.469,1.352-20.153,0.233c-5.458,0.179-12.101-8.347-6.379-14.529
		c2.292-3.103,6.471-3.838,9.679-1.865c-1.812,3.463-1.17,7.624,1.421,10.105c3.067,2.937,9.763,3.545,13.213,0.32
		c0.913-0.485,3.412-3.263,4.722-7.863c4.482-15.733-27.701-30.819-49.269-12.659c-13.852,12.371-5.954,33.151,11.941,34.82
		c-25.469,4.416-46.926-3.626-61.912-19.727c-0.591-0.566-7.052-6.967-5.552-16.151c1.21-7.403,6.639-11.482,7.746-12.026
		c3.258-1.6,17.592-3.411,23.03,9.089c-8.819-2.481-13.693,8.405-8.296,13.185c4.801,4.252,12.054,3.609,16.785,0.241
		c4.945-3.52,5.731-9.286,5.722-10.262c-0.024-2.659-1.34-7.891-5.325-12.722c-7.975-9.668-20.67-8.994-22.141-8.891
		c-16.235-0.93-29.481,12.998-27.499,29.302c1.537,5.559,4.157,16.657,18.272,29.413c5.219,4.717,36.963,15.272,41.89,15.968
		c37.959,5.363,64.747,8.816,115.217-4.063c45.884-11.708,78.359-33.242,96.259-47.145c4.946,1.684,9.893,3.368,14.84,5.052
		c-63.024,38.868-136.985,59.336-213.2,57.117c-42.286-0.403-76.961-16.802-102.078-44.749
		c-20.892-23.541-16.544-57.857,6.711-76.462c6.464-4.307,16.212-9.693,28.99-12.644c37.321-8.619,83.982,10.332,64.383,29.761
		c-9.101,3.598-17.352,2.175-24.777-4.118c3.831-0.371,6.797-3.298,7.125-6.751c0.43-4.53-3.897-8.569-6.439-8.024
		c-9.031,1.937-13.754,9.07-12.754,16.633c2.093,15.826,16.853,20.948,32.766,22.153c21.71-2.049,38.012-13.568,32.789-39.718
		c-5.042-25.244-48.33-37.725-94.015-30.719c-44.834,6.876-74.056,38.222-70.627,71.496c3.254,31.568,37.644,82.427,97.471,87.421
		c96.77,15.72,195.673-2.15,280.86-50.909c22.645,7.042,54.787,14.298,93.675,14.447c70.716,0.595,90.69-11.645,115.847-21.285
		c25.174-7.45,39.638-33.853,29.336-59.539c33.305-23.766,77.593-28.369,115.941-9.67c5.494,3.574,8.113,10.099,6.582,15.973
		c-1.819,6.979-9.171,11.794-17.029,10.542c-7.941,0.522-15.79-3.071-20.508-9.985c-1.217-1.785-3.936-1.526-4.751,0.475
		c-8.581,21.074,3.265,41.989,22.154,47.797c4.56,2.884,28.554,17.417,58.917,10.146
		C1289.314,303.394,1302.703,288.803,1307.175,283.45z M858.641,288.913c-7.392,4.463-13.203-0.385-19.285-2.522
		c-1.956-0.687-2.474-3.227-0.928-4.608c19.539-17.467,39.443-30.48,52.727-38.807c42.431-26.599,84.523-53.102,159.301-33.61
		c2.043,0.533,1.964,3.46-0.105,3.883c-13.942,2.849-31.955,6.024-44.664,9.898C947.744,240.806,898.724,264.713,858.641,288.913z
		 M1091.018,257.501c-6.356,30.434-21.891,37.64-43.07,45.901c-7.174,2.798-18.334,6.309-32.782,7.5
		c-42.081,6.902-85.126,4.936-126.415-5.784c-2.529-0.656-2.968-4.05-0.691-5.329c56.604-31.775,116.437-57.259,178.581-76.048
		c1.764-0.533,3.656-0.231,5.192,0.787c3.161,2.094,6.089,4.751,8.573,7.962c2.321,3,1.38,7.384-1.971,9.158
		c-34.574,18.303-72.841,29.788-113.147,33.225c-2.23,0.19-3.142,2.988-1.42,4.417c36.812,30.545,86.962,6.523,123.004-24.223
		C1088.71,253.499,1091.513,255.135,1091.018,257.501z"/>
	<path d="M847.855,257.95c8.884-6.554,22.234-16.261,34.341-23.669c32.099-19.642,61.505-37.636,97.079-44.283
		c16.465-3.076,51.945-4.865,96.58,9.807c1.21,0.398,2.03-1.229,0.974-1.94c-14.751-9.932-33.819-19.275-56.928-23.118
		c-84.77-14.096-155.463,61.105-173.178,81.999C846.083,257.5,847.059,258.536,847.855,257.95z"/>
	<path d="M2312.365,288.732c17.275,6.416,22.398,23.159,14.597,35.728c-12.772,15.789-27.594,19.207-44.687,8.9
		c-3.011-2.735-3.59-5.884-0.91-9.586c7.243,4.635,19.064,2.222,18.889-6.441c-0.11-5.407-2.391-9.476-8.33-11.291
		c-10.822-2.247-20.689-0.679-25.423,8.282c-4.919,9.31-0.563,21.129,12.725,28.105c27.004,11.124,60.365,2.641,69.296-17.7
		c11.461-26.106-9.071-55.661-40.051-59.776c-76.962-10.222-143.951,20.542-170.124,73.678c-0.51,1.035,0.857,1.96,1.646,1.118
		C2187.506,289,2250.99,265.936,2312.365,288.732z"/>
	<path d="M2092.208,201.935c-45.685-7.006-88.973,5.476-94.015,30.719c-8.955,44.837,48.716,47.529,62.136,26.991
		c6.836-10.461,3.768-23.248-9.335-26.058c-2.541-0.545-6.868,3.495-6.439,8.024c0.327,3.454,3.294,6.38,7.124,6.751
		c-7.426,6.293-15.676,7.716-24.777,4.118c-9.57-9.486-4.042-18.106,11.482-26.153c31.56-10.413,58.858-6.312,81.89,9.035
		c23.309,18.647,27.561,52.971,6.71,76.462c-25.044,27.869-59.63,44.345-102.077,44.749c-74.015,2.155-148.302-17.093-213.2-57.117
		c4.946-1.684,9.894-3.368,14.84-5.052c17.9,13.903,50.375,35.437,96.26,47.145c50.469,12.878,77.258,9.426,115.217,4.063
		c4.927-0.696,36.671-11.252,41.89-15.968c14.115-12.756,16.735-23.854,18.272-29.413c1.978-16.27-11.235-30.233-27.499-29.302
		c-1.472-0.102-14.166-0.776-22.141,8.891c-3.985,4.83-5.301,10.062-5.325,12.722c-0.009,0.976,0.778,6.742,5.722,10.262
		c4.73,3.368,11.983,4.011,16.785-0.241c5.391-4.775,0.531-15.668-8.296-13.185c0.788-1.811,2.241-4.38,4.902-6.51
		c7.362-5.892,17.152-3.059,18.128-2.579c1.107,0.544,6.536,4.623,7.746,12.026c1.5,9.184-4.96,15.585-5.552,16.151
		c-14.925,16.035-36.34,24.161-61.912,19.727c9.498-0.886,17.118-7.687,18.69-16.28c2.557-13.975-10.815-24.807-24.974-26.601
		c-14.163-1.794-34.897,7.201-31.044,20.72c1.31,4.6,3.809,7.378,4.722,7.863c3.45,3.225,10.146,2.617,13.213-0.32
		c2.591-2.481,3.232-6.641,1.421-10.105c6.46-3.976,13.678,3.47,11.458,9.859c-1.114,3.208-4.571,6.653-8.158,6.536
		c-3.683,1.119-10.951,1.579-20.153-0.233c-10.371-2.042-16.662-8.441-20.508-10.466c-6.029-3.175-15.361-3.268-25.705-3.191
		c-7.995,0.059-20.252,1.241-34.566,6.472c-23.337-4.739-45.703-13.522-66.094-26.011c4.438-1.294,33.929-16.354,44.029-37.769
		c7.203-15.275,7.565-40.957-18.983-35.801c-5.352,1.755-8.415,5.355-9.637,10.441c-3.085,12.841,3.187,16.963-2.003,25.779
		c-7.903,13.427-16.808,21.148-29.768,29.805c-31.095-26.986-65.259-50.158-101.9-69.078c-46.151-23.684-99.65-24.554-146.269-2.219
		c-32.057-7.425-65.171-8.292-97.58-2.571c-1.49,0.68-2.237,2.368-1.757,3.887c1.629,5.142,8.514-0.862,53.576,4.328
		c7.45,0.858,18.242,0.698,31.369,5.077c-5.239,2.394-9.016,7.241-9.822,13.198c-33.691-14.596-69.964-21.983-106.729-21.684
		c-25.617-1.302-49.096,12.323-57.315,37.755c-1.916,28.714,24.254,43.566,50.961,38.12c-29.981,12.94-64.508,5.09-85.042-21.618
		c-14.77-28.369-9.245-60.9,11.478-83.483c14.723-24.189,37.552-43.371,65.899-53.269c0.858-0.3,1.516,0.77,0.872,1.412
		c-6.297,6.275-11.772,13.501-18.891,18.825c-14.071,10.524-37.089,20.34-58.955,56.298c-1.588,3.68-1.88,7.871-0.562,11.859
		c0.826,2.497,4.388,2.417,5.088-0.118c1.651-5.993,6.215-16.083,10.165-19.556c6.147-5.404,26.724-21.327,58.574-36.812
		c16.639-6.663,28.97-20.543,32.425-38.856c14.526,1.837,23.271-0.42,28.757-1.159c9.356-1.259,29.227,1.681,41.385,15.811
		c18.995,22.068-5.358,52.956-35.641,50.029c-10.816,0.748-20.523-6.838-21.844-18.034c13.666,3.977,23.912-11.771,14.869-22.712
		c-11.773-10.948-30.417-5.706-34.286,10.08c-0.301,2.6-1.538,15.652,7.616,27.145c21.813,27.386,91.373,23.373,104.091-27.776
		c2.826-11.363-0.564-23.345-8.693-31.773c-21.841-22.648-52.202-32.186-91.488-21.026c-0.149-3.584-1.006-12.467-7.318-21.093
		c-4.734-6.469-10.345-12.228-13.508-13.831c-24.431-16.055-89.165-15.959-99.281,18.316c-3.056,10.355,1.567,18.87,2.451,20.429
		c5.581,12.393,19.9,16.328,31.204,9.833c8.436-3.028,12.414-12.531,7.487-20.544c-5.625-6.697-16.274-4.513-18.93,3.69
		c-3.098,1.81-6.784-0.683-6.182-4.217c-0.339-1.45-1.574-7.489,1.919-13.362c3.331-5.6,7.084-6.646,16.336-9.056
		c36.776-9.577,57.94,9.149,59.602,35.322c-40.678,14.218-74.287,43.595-93.272,83.515c-17.41,28.958-17.544,64.506,0.185,93.471
		c25.062,30.003,66.995,35.825,99.528,15.246c18.888-5.807,30.738-26.714,22.154-47.797c-0.815-2.001-3.534-2.26-4.751-0.475
		c-4.678,6.857-12.498,10.512-20.507,9.985c-7.858,1.253-15.21-3.563-17.029-10.542c-1.531-5.874,1.088-12.399,6.582-15.973
		c38.378-18.714,82.662-14.077,115.941,9.67c-10.3,25.681,4.156,52.088,29.336,59.539c25.157,9.64,45.132,21.88,115.847,21.285
		c38.888-0.149,71.03-7.405,93.675-14.447c85.087,48.703,183.975,66.648,280.86,50.909c9.096-0.759,38.201-4.341,64.055-27.895
		c25.089-22.857,32.466-50.31,33.416-59.527C2166.264,240.157,2137.042,208.811,2092.208,201.935z M1762.153,305.118
		c-41.275,10.716-84.319,12.688-126.415,5.784c-14.448-1.191-25.609-4.703-32.782-7.5c-20.815-8.119-36.66-15.21-43.07-45.901
		c-0.495-2.366,2.308-4.002,4.147-2.434c36.066,30.766,86.179,54.778,123.004,24.223c1.722-1.429,0.81-4.227-1.42-4.417
		c-39.135-3.338-77.541-14.376-113.147-33.225c-3.352-1.774-4.292-6.159-1.971-9.158c2.315-2.994,5.182-5.716,8.573-7.962
		c1.537-1.018,3.428-1.32,5.192-0.787c62.135,18.786,121.969,44.268,178.581,76.048
		C1765.122,301.068,1764.682,304.462,1762.153,305.118z M1792.262,288.913c-40.083-24.2-89.103-48.107-147.047-65.768
		c-12.709-3.873-30.722-7.049-44.664-9.898c-2.069-0.423-2.147-3.35-0.105-3.883c74.027-19.295,115.697,6.276,159.301,33.61
		c13.284,8.328,33.189,21.341,52.727,38.807c1.546,1.382,1.028,3.921-0.928,4.608
		C1805.486,288.52,1799.657,293.378,1792.262,288.913z"/>
	<path d="M1575.048,199.804c44.635-14.672,80.115-12.883,96.58-9.807c35.574,6.647,64.98,24.641,97.078,44.283
		c12.108,7.409,25.457,17.115,34.341,23.669c0.796,0.587,1.772-0.45,1.133-1.204c-17.715-20.895-88.409-96.096-173.178-81.999
		c-23.109,3.843-42.177,13.185-56.928,23.118C1573.019,198.575,1573.838,200.202,1575.048,199.804z"/>
	<path d="M1325.74,268.887c-4.231,21.678-20.131,39.217-41.329,45.532c27.723,8.285,31.87-2.183,31.87-2.183
		c14.815,14.313,22.519,0.721,22.519,0.721c11.852,6.767,24.611,7.135,35.188-1.387
		C1349.929,310.152,1330.048,292.952,1325.74,268.887z"/>
	<ellipse transform="matrix(0.2332 -0.9724 0.9724 0.2332 700.2925 1543.3207)" cx="1328.733" cy="327.62" rx="8.189" ry="8.19"/>
	<ellipse transform="matrix(0.1336 -0.991 0.991 0.1336 1110.0818 1342.7458)" cx="1322.989" cy="36.491" rx="8.531" ry="8.53"/>
</g>
<g>
	<g>
		<path d="M729.342,796.565c0,0-50.289-23.781-55.794,0.163c0,0,0.328,14.231,20.759,10.39
			C714.739,803.277,729.342,796.565,729.342,796.565z"/>
		<path d="M740.505,786.466c0,0,14.6,1.153,6.721-8.991c-7.879-10.144-14.801-8.888-23.574-5.598
			c-8.773,3.291-10.735,5.825-9.59,11.673c1.145,5.848,27.29,13.242,27.29,13.242s-21.543,5.691-24.043,9.854
			s-4.927,11.138,3.954,15.213c23.951,10.989,36.068-8.168,25.525-14.942l20.858-6.543c0,0,5.362,10.458,14.434-0.457l13.822,3.077
			l9.804,10.922l7.073-9.787l13.122-3.196c0,0,8.657,8.22,14.304,0.912c0,0,13.858,7.63,21.299,2.47
			c7.441-5.16,232.745-3.591,232.745-3.591c27.09,1.321,51.857,3.806,72.613,8.3c1.476,0.162,2.821-2.743,2.568-4.206
			c-0.987-5.688-2.29-11.696-0.177-20.665c1.795-7.619-35.274,5.717-73.259,5.597c-53.618-0.17-212.82,1.966-212.536,0.749
			c0,0-21.946-5.061-31.05-4.99c-9.105,0.07-10.458,5.362-10.458,5.362s-12.471-5.223-16.378,2.122l-11.51-1.689l-11.098-12.958
			l-7.61,11.415l-11.864,3.826c0,0-6.77-8.848-16.47,0.179L740.505,786.466z"/>
		<path d="M1215.953,793.471c-1.373,0.527-1.062,2.584,0.406,2.673c24.358,1.473,35.214,5.095,34.124,14.135
			c-1.459,12.101-7.741,16.669-19.783,16.104c-20.929-0.981-34.806-8.588-42.169-22.731c-3.802-7.303-2.445-16.232,3.538-21.888
			c10.564-9.984,28.251-13.19,50.829-11.744c41.802,4.471,75.299,18.045,94.266,38.104c1.034,1.094-0.279,2.783-1.614,2.085
			C1291.794,787.337,1245.427,782.157,1215.953,793.471z"/>
		<path d="M1261.843,821.705c-1.033-0.309-1.518-1.48-1.051-2.451c14.942-31.014,61.65-21.781,69.916,5.454
			c0.344,1.134-1.069,1.974-1.899,1.129c-4.13-4.203-9.969-7.264-18.486-8.537c-6.149-0.919-6.528,3.307-27.819,7.216
			C1276.929,825.47,1269.713,824.059,1261.843,821.705z"/>
		<path d="M1321.44,805.537c33.278,15.179,45.933,42.885,32.501,68.675c-13.13,25.209-40.918,22.585-56.815,7.627
			c-9.325-8.775-0.735-29.843,15.806-27.441c0.93,0.135,1.249,1.331,0.533,1.94c-3.18,2.701-5.47,5.215-6.751,7.519
			c-1.515,2.725-0.123,6.161,2.806,7.23c12.773,4.661,21.072,1.104,26.13-8.404c10.844-20.042,1.629-38.382-14.975-56.095
			C1320.179,806.059,1320.78,805.236,1321.44,805.537z"/>
	</g>
	<g>
		<path d="M1994.356,796.565c0,0,50.289-23.781,55.794,0.163c0,0-0.327,14.231-20.759,10.39S1994.356,796.565,1994.356,796.565z"/>
		<path d="M1983.193,786.466c0,0-14.6,1.153-6.721-8.991c7.879-10.144,14.801-8.888,23.574-5.598
			c8.773,3.291,10.736,5.825,9.59,11.673c-1.145,5.848-27.29,13.242-27.29,13.242s21.543,5.691,24.043,9.854
			s4.927,11.138-3.954,15.213c-23.951,10.989-36.068-8.168-25.525-14.942l-20.858-6.543c0,0-5.363,10.458-14.435-0.457
			l-13.822,3.077l-9.804,10.922l-7.073-9.787l-13.122-3.196c0,0-8.657,8.22-14.304,0.912c0,0-13.858,7.63-21.299,2.47
			c-7.441-5.16-232.745-3.591-232.745-3.591c-27.09,1.321-51.857,3.806-72.612,8.3c-1.476,0.162-2.821-2.743-2.568-4.206
			c0.986-5.688,2.29-11.696,0.177-20.665c-1.795-7.619,35.274,5.717,73.259,5.597c53.618-0.17,212.82,1.966,212.536,0.749
			c0,0,21.946-5.061,31.05-4.99c9.105,0.07,10.458,5.362,10.458,5.362s12.471-5.223,16.378,2.122l11.51-1.689l11.098-12.958
			l7.61,11.415l11.864,3.826c0,0,6.77-8.848,16.47,0.179L1983.193,786.466z"/>
		<path d="M1507.745,793.471c1.373,0.527,1.062,2.584-0.406,2.673c-24.358,1.473-35.214,5.095-34.124,14.135
			c1.459,12.101,7.741,16.669,19.783,16.104c20.929-0.981,34.806-8.588,42.169-22.731c3.802-7.303,2.445-16.232-3.539-21.888
			c-10.564-9.984-28.251-13.19-50.829-11.744c-41.802,4.471-75.299,18.045-94.265,38.104c-1.034,1.094,0.279,2.783,1.614,2.085
			C1431.904,787.337,1478.271,782.157,1507.745,793.471z"/>
		<path d="M1461.855,821.705c1.033-0.309,1.518-1.48,1.05-2.451c-14.942-31.014-61.65-21.781-69.916,5.454
			c-0.344,1.134,1.069,1.974,1.899,1.129c4.13-4.203,9.969-7.264,18.486-8.537c6.149-0.919,6.528,3.307,27.818,7.216
			C1446.769,825.47,1453.985,824.059,1461.855,821.705z"/>
		<path d="M1402.258,805.537c-33.278,15.179-45.933,42.885-32.501,68.675c13.13,25.209,40.918,22.585,56.815,7.627
			c9.325-8.775,0.735-29.843-15.806-27.441c-0.93,0.135-1.249,1.331-0.533,1.94c3.18,2.701,5.47,5.215,6.751,7.519
			c1.515,2.725,0.123,6.161-2.806,7.23c-12.773,4.661-21.072,1.104-26.13-8.404c-10.844-20.042-1.629-38.382,14.975-56.095
			C1403.519,806.059,1402.918,805.236,1402.258,805.537z"/>
	</g>
	<path d="M1361.963,845.973c-2.65-24.339-15.935-44.195-35.461-61.421c15.012,4.395,27.566,9.347,35.461,15.355
		c6.77-6.414,20.911-11.048,35.461-15.355C1377.276,801.954,1365.457,822.427,1361.963,845.973z"/>
	<path d="M1385.735,917.348c0-13.066-23.958-44.022-23.958-44.022s-23.359,30.956-23.359,44.022s10.592,23.658,23.658,23.658
		C1375.143,941.006,1385.735,930.414,1385.735,917.348z"/>
</g>
<g id="Red_Heart_4">
</g>
</svg>
