<?xml version="1.0" encoding="utf-8"?>

<!DOCTYPE svg PUBLIC "-//W3C//DTD SVG 1.1//EN" "http://www.w3.org/Graphics/SVG/1.1/DTD/svg11.dtd">
<svg version="1.1" id="Layer_1" xmlns="http://www.w3.org/2000/svg" xmlns:xlink="http://www.w3.org/1999/xlink" x="0px" y="0px"
	 viewBox="0 0 1770.836 1767.559" enable-background="new 0 0 1770.836 1767.559" xml:space="preserve">
<g>
	<path d="M581.339,577.203c44.942-59.167,42.215-56.099,46.471-56.441c123.901-9.935,230.483-81.742,241.81-94.921
		c-3.087,1.369-5.2,2.187-7.207,3.213c-129.752,66.308-299.555,62.547-361.954-78.95c-4.085-9.263-3.783-11.716-7.578-10.81
		c-19.053,4.548-20.912-4.169-26.85,2.614c-40.082,45.784-126.308,24.947-137.509-44.772
		c-12.43-77.368,53.514-141.431,162.087-109.046c4.33,1.292,4.391,1.328,6.326-2.864c39.507-85.613,139.834-123.431,223.317-86.321
		c37.392,16.622,37.781,31.949,46.748,28.7c45.624-16.532,96.74-1.747,113.556,50.571c6.239,19.411,1.795,23.955,6.997,23.547
		c0.119-0.009,114.077-0.006,114.196-0.006c4.172,0,5.993,0.783,7.211-3.192c17.641-57.562-11.78-112.342-12.135-114.747
		c3.443,1.772,21.983,39.836,23.666,90.662c0.908,27.445-4.043,27.066,2.533,27.266c0.367,0.011,639.538,0.017,639.906,0.017
		c3.814,0,7.271,0.237,10.243-3.505c2.777-3.496,8.56-2.555,11.588,0.906c7.609,8.697-6.286,19.623-12.229,11.579
		c-3.485-4.717,39.974-3.161-647.676-3.161c-6.368,0-6.188-0.251-6.876,4.487c-3.417,23.52-11.87,58.076-35.57,107.404
		c-88.591,184.391-331.918,285.362-343.41,280.728c-17.691-7.134-35.45-14.1-53.185-21.126
		C584.581,578.548,583.357,578.031,581.339,577.203z M631.913,190.091c-23.601,14.765-39.329,32.907-41.861,64.971
		c-0.976,12.354,0.277,24.409,4.452,36.111c1.506,4.22,1.551,4.239,5.584,3.022c21.898-6.608,45.765,1.158,54.818,22.119
		c9.277,21.479-3.17,28.458,6.11,29.896c26.184,4.059,56.961-2.668,82.131-22.12c5.477-4.232,0.383-1.697-12.615-18.92
		c-36.537-48.415-35.512-119.543,4.404-158.47c2.614-2.549,3.421-2.466-5.359-8.527c-62.56-43.189-159.113-24.698-204.584,60.753
		c-1.978,3.716-1.906,3.777,1.74,6.212c23.045,15.395,40.17,35.768,51.452,61.076c0.584,1.311,0.679,3.006,2.747,3.767
		C582.835,233.585,596.349,204.616,631.913,190.091z M938.08,320.493c-32.176,18.305-65.482,34.755-114.22,31.341
		c-20.006-1.401-38.943-6.418-56.621-15.917c-2.406-1.293-3.978-1.373-6.214,0.465c-24.683,20.291-56.966,29.39-84.444,27.819
		c-24.309-1.39-25.306-6.399-28.922-1.288c-0.911,1.288-2.061,2.726-4.675,3.412c5.391-7.012,5.669-6.672,0.711-8.386
		c-22.368-7.731-39.034-22.304-50.754-43.385c-0.684-1.23-0.939-3.444-2.806-3.036c-3.402,0.744-0.314,11.258-3.993,19.797
		c0.197-4.902,1.109-9.785,0.375-14.712c-1.923,0.134-2.321,1.347-2.925,2.288c-22.272,34.733,4.918,110.538,121.601,116.928
		c98.146,5.375,177.658-42.337,183.697-49.801c-2.304,0.649-4.461,1.503-6.524,2.543c-84.976,42.834-171.348,51.75-196.296,22.111
		c-7.609-9.039-12.348-29.646,14.1-39.017c50.03-17.728,125.734,15.205,213.639-33.718C922.593,333.049,931,327.599,938.08,320.493z
		 M843.413,312.188c-0.829-4.699,11.709-31.161,41.137-44.212c20.746-9.2,45.623-5.403,75.558-17.329
		c33.867-13.493,45.367-40.564,44.348-42.727c-1.189-0.597-118.66-0.359-117.658-0.353c-2.911-0.018-1.692,1.69-4.162,12.415
		c-7.855,34.096-41.484,53.235-74.653,42.439c-2.345-0.763-3.172-0.524-3.709,2.04c-5.444,25.949-10.818,25.159-7.115,30.5
		c29.812,43.004,124.738,35.865,178.051-23.44c2.118-2.356,4.103-4.854,5.31-7.94C942.399,301.4,895.43,313.668,843.413,312.188z
		 M393.944,312.826c-10.028-4.157-21.494-20.052-18.889-42.201c0.24-2.039,0.362-3.629-1.724-5.173
		c-35.155-26.018,11.766-100.299,115.319-69.334c1.196,0.358,2.874,1.399,3.406-0.327c0.886-2.876-46.599-16.258-86.888-6.001
		c-50.612,12.885-74.173,57.368-63.702,104.618c12.035,54.311,76.906,73.782,111.753,41.086c5.781-5.424-6.045-3.312-13.391-22.677
		c-8.253-21.758-6.256-42.356,7.666-61.388c2.429-3.32,2.56-3.373-1.128-5.355c-11.179-6.009-23.048-7.782-35.499-5.36
		c-4.094,0.796-4.069,0.924-3.496,5.173c2.665,19.751-15.011,25.646-24.396,23.628C376.271,268.071,374.657,295.402,393.944,312.826
		z M943.8,351.357c-0.18-0.172-0.359-0.344-0.539-0.516c-9.226,8.306-3.896,4.775-23.744,21.217
		c-56.717,46.985-129.558,73.428-197.025,76.511c-136.459,6.235-182.276-91.208-145.958-138.041
		c4.951-6.384,8.846-7.158,7.68-10.957c-13.144-42.838-52.027-25.525-72.581-36.339c-0.909-0.478-1.872-1.605-3.197-0.543
		c-4.475,18.01,11.5,11.088,13.647,34.539c1.92,20.97-8.606,22.575-5.799,31.782C574.368,519.53,846.717,470.437,943.8,351.357z
		 M735.745,234.632c4.688,2.176,13.478,12.658,38.321,17.02c8.608,1.511,7.767,1.063,7.922-6.562
		c0.628-30.928-10.299-60.484-27.067-82.425c-1.315-1.721-2.504-2.029-4.069-0.43c-37.536,38.343-32.088,107.977,5.764,143.531
		c2.196,2.063,2.181,3.696,6.898-3.415c1.012-1.525-0.38-2.443-1.254-3.397C741.505,276.295,735.713,244.397,735.745,234.632z
		 M868.717,200.862c-7.499-40.566-38.855-67.805-87.516-54.803c-2.524,0.674-2.444,1.746-1.26,3.515
		c9.021,13.472,15.775,28.015,20.395,43.543c1.444,4.855,2.821,0.433,11.082-0.924c7.768-1.277,14.833,0.837,17.424,7.481
		c1.042,2.671-0.679,2.091,36.21,2.031C866.041,201.703,867.073,201.862,868.717,200.862z M808.571,255.428
		c32.022,15.303,59.976-8.376,61.023-43.346c0.181-6.04,2.764-4.469-37.165-4.545c-1.6-0.003-2.64,0.414-3.637,1.941
		c-5.715,8.762-13.263,8.731-18.545-0.067c-1.199-1.997-2.379-1.858-4.125-1.149c-2.254,0.916-1.616,2.624-1.299,4.229
		C810.464,241.085,802.771,252.656,808.571,255.428z M376.153,261.612c3.73-1.317,7.729-28.02,45.006-30.11
		c12.21-0.684,23.585,2.207,34.047,8.51c1.859,1.12,3.222,1.11,4.988-0.126c15.336-10.728,25.645-6.796,23.856-14.969
		c-0.91-4.159-16.66,0.867-45.536,3.319c-34.704,2.946-36.347-34.704,24.813-30.092c19.779,1.491,26,5.922,26.682,3.366
		c2.11-7.91-115.752-21.011-121.913,39.944C367.28,249.535,369.708,256.513,376.153,261.612z M604.583,302.371
		c-4.24,1.334-4.448,1.876-2.211,5.495c11.015,17.82,26.419,29.974,46.622,35.855c4.138,1.205,4.724,0.863,5.006-3.353
		C655.955,311.067,631.296,293.968,604.583,302.371z M449.987,289.848c-0.321-17.755,5.917-26.476,8.809-31.387
		c1.248-2.119-1.083-5.304-3.46-2.575c-14.702,16.873-14.464,50.417,3.781,66.368c2.752,2.406,3.18,2.366,4.829-0.667
		c6.331-11.637,8.988-24.067,7.593-37.266c-0.575-5.444-0.95-5.49-6.292-3.755C459.77,282.345,455.11,285.483,449.987,289.848z
		 M927.206,314.612c-1.535-0.335-3.851,0.561-5.358,1.134c-33.207,12.632-70.952,20.019-105.685,12.826
		c-30.95-6.409-33.554-18.306-37.898-9.004c-2.93,6.273,66.388,35.459,143.154-1.168
		C923.494,317.409,925.617,316.484,927.206,314.612z M381.827,264.443c22.916,8.787,28.944-24.669,20.513-21.077
		C392.667,247.488,386.072,254.542,381.827,264.443z M483.512,300.816c-3.197,25.179-12.333,28.842-5.452,29.266
		c20.232,1.246,13.272,1.189,7.303-27.197C485.202,302.12,485.183,301.174,483.512,300.816z M558.424,258.015
		c-6.271-7.025-20.366-15.085-41.937-16.866c-3.646-0.301-6.115-0.348-6.198,2.895c-0.1,3.89,1.721,0.561,20.065,3.695
		C540.336,249.444,549.472,253.455,558.424,258.015z M512.208,307.608c4.142-9.577,2.272-21.835-3.877-25.76
		C509.282,290.673,509.663,299.268,512.208,307.608z M469.559,247.877c8.952-5.253,11.338-6.099,11.339-6.099
		c1.386-0.782,0.932-3.32-1.235-2.558C460.161,246.08,465.178,250.448,469.559,247.877z M479.564,268.224
		c0.343-0.034,0.685-0.067,1.028-0.101c-0.193-4.81,0.229-9.639-0.315-14.973C473.967,259.056,474.954,258.264,479.564,268.224z
		 M513.944,227.064c1.969,4.04-1.752,0.476,19.047,7.103C527.316,230.808,521.272,228.571,513.944,227.064z M512.941,236.148
		c-0.076,0.468-0.151,0.936-0.227,1.404c5.039,0.723,10.078,1.446,15.117,2.169C523.072,237.27,518.048,236.449,512.941,236.148z
		 M521.469,209.177c1.742,1.073,3.038,3.051,6.412,3.154C525.306,210.54,523.773,209.102,521.469,209.177z"/>
	<path d="M83.935,992.123c35.367,16.879,74.429,24.872,113.07,15.002c5.713-1.46,8.102-1.525,8.087-6.051
		c-0.454-131.154,1.858-118.95-4.03-119.625c-61.312-7.033-90.004-59.237-70.523-116.641c1.166-3.434,0.88-5.655-1.698-8.323
		C53.24,678.233,87.274,536.832,189.97,493.101c6.469-2.755-2.979-6.53-6.243-45.074c-4.867-57.468,17.059-106.087,72.758-120.623
		c96.57-25.202,147.083,82.706,87.924,135.999c-1.699,1.531-2.26,2.938-1.782,5.23c4.073,19.531-4.213,22.657,2.625,25.289
		c117.932,45.39,150.278,166.653,114.115,295.087c-13.066,46.402-25.929,66.824-28.941,74.296c-0.172,0.428-0.197,0.915-0.424,2.043
		c14.431-10.928,87.326-128.7,94.13-241.25c0.246-4.061-2.834-0.63,52.991-43.564c0.908-0.699,1.944-1.231,2.818-1.778
		c1.912,1.006-0.084-1.138,23.906,58.108c3.172,7.833-109.576,303.365-352.996,370.348c-41.352,11.38-40.036,4.473-40.171,12.642
		c-0.002,0.106-0.008,639.828-0.008,639.933c0,3.811-0.259,7.233,3.605,10.174c3.726,2.836,2.93,8.355-0.561,11.55
		c-8.815,8.069-19.545-6.199-11.829-12.004c4.64-3.491,3.112,40.21,3.111-646.768c0-11.9-1.347-2.125-40.614-6.099
		c-18.185-1.841-36.078-5.319-53.355-11.524C101.559,1001.714,92.35,997.781,83.935,992.123z M334.846,582.521l-0.097-0.071
		c-0.711,2.357-11.494,2.516-15.316,2.663c-1.785,0.069-4.226-0.449-4.688,1.816c-0.414,2.032,2.098,2.246,3.435,2.99
		c20.643,11.475,35.122,28.167,43.024,50.492c0.434,1.227,0.508,2.674,1.813,3.624c2.376-0.118,3.587-2.938,6.682-3.285
		c-12.229,14.205,0.178,8.533-2.267,44.639c-1.819,26.869-10.738,51.003-27.535,72.1c-1.848,2.321-2.147,3.973-0.728,6.642
		c26.97,50.732,19.015,112.934-10.608,162.181c-1.755,2.918-3.35,5.932-5.407,9.591c2.014-1.166,1.143-0.32,3.207-2.911
		c72.019-90.41,25.351-200.07,52.731-244.961c16.482-27.023,71.917-9.784,45.328,102.787
		c-12.275,51.969-32.994,87.239-35.848,96.223c15.471-17.316,65.77-113.3,46.604-216.522
		c-16.403-88.339-80.118-111.105-113.613-89.775c-0.903,0.575-2.262,0.989-1.486,3.079
		C324.917,583.396,329.881,582.959,334.846,582.521z M273.304,577.737c-0.732-1.981-2.083-1.976-3.095-2.424
		c-16.424-7.266-31.122-17.041-43.835-29.784c-19.828-19.873-17.82-27.752-23.565-24.087c-1.893,1.208-27.029,12.235-48.556,38.407
		c-47.594,57.864-43.084,128.274-9.667,170.799c5.941,7.56,2.563-2.715,28.308-16.308c48.522-25.62,113.377-13.628,149.551,26.005
		c2.186,2.395,2.658,2.389,4.645-0.103c17.15-21.508,26.846-51.935,22.353-83.031c-0.421-2.911-1.705-3.396-3.965-2.839
		c-31.059,7.654-58.459-22.336-48.218-57.139c1.305-4.433,1.315-4.495-2.857-5.946c-34.806-12.104-77.622-1.778-97.727,32.526
		c-1.109,1.893-1.202,2.616-2.714,1.776C209.974,592.323,238.036,579.366,273.304,577.737z M266.718,977.59
		c55.713-34.538,82.912-147.65,31.578-183.571c-4.146-2.901-0.93-0.969-33.154,7.94c0,4.103,6.879,11.9,1.681,34.035
		c-6.329,26.952-25.362,41.52-52.593,45.125c-4.69,0.621-3.55,1.934-3.55,19.229c-0.001,112.084-2.282,103.548,5.715,99.372
		c73.272-38.261,18.805-117.312,90.1-156.519c2.609-1.435,5.266-2.842,8.845-3.489C316.932,892.245,304.659,939.333,266.718,977.59z
		 M316.673,391.814c-11.13-12.102-23.661-18.903-41.394-15.465c-4.474,0.867-1.732,2.59-2.406,9.197
		c-1.211,11.868-9.238,20.353-23.567,18.571c-4.524-0.563-4.661-0.566-5.476,3.938c-2.258,12.481-0.398,24.346,5.734,35.479
		c1.794,3.256,1.925,3.207,5.167,0.73c26.63-20.344,63.823-14.189,79.641,6.01c1.421,1.815,2.63,1.732,4.024,0.102
		c13.011-15.212,18.942-31.594,15.43-52.591c-13.618-81.418-137.389-85.06-160.393,2.813c-10.137,38.721,1.422,82.83,4.211,87.667
		c0.948,1.644,2.655,0.645,2.362-0.962c-0.409-2.237-9.803-28.568-6.858-61.003c2.894-31.876,17.957-63.773,50.066-66.946
		c22.222-2.196,22.124,13.434,31.254,12.434C297.567,369.26,312.985,381.829,316.673,391.814z M265.805,505.309
		c-0.436,1.16-0.003,1.889,0.393,2.626c3.484,6.498,5.015,13.434,4.777,20.796c-0.817,25.174,6.484,44.131,30.393,51.736
		c2.819,0.897,4.582,0.507,6.593-1.669c30.144-32.627,98.698-20.692,128.916,48.679c35.566,81.649,6.742,210.443-66.865,295.174
		c-5.453,6.277-11.092,12.382-16.59,18.642c62.834-43.994,110.917-165.368,105.993-255.314
		c-8.012-146.375-128.436-177.388-134.545-172.247c-5.405,4.549-33.32,11.841-46.376-7.055c-0.72-1.042-1.611-1.677-2.907-1.644
		C272.283,505.117,268.952,504.667,265.805,505.309z M238,732.49c11.127,0.254,41.214,6.196,63.139,25.657
		c3.538,3.141,3.548,3.13,7.415,0.16c2.88-2.212,2.923-2.252,0.464-4.888c-35.98-38.588-108.57-42.523-143.566-5.704
		c-2.268,2.386-0.741,3.191,2.929,5.834c26.073,18.783,57.429,26.683,82.982,25.177c4.261-0.251,4.695-0.7,4.076-4.887
		c-1.961-13.275-6.296-25.649-14.352-36.551C240.122,735.982,238.692,734.985,238,732.49z M202.113,865.075
		c2.663,0.567,2.856,0.359,2.871-2.936c0.163-36.712,0.749-35.138-2.261-36.553c-8.42-3.958-8.25-12.387-6.326-21.018
		c0.497-2.231,3.228-4.289,1.837-6.397c-1.204-1.826-4.206-1.663-6.4-2.397c-39.67-13.27-40.181-25.487-42.7-17.025
		C137.115,819.124,157.209,855.508,202.113,865.075z M210.68,846.021c0.003,0,0.006,0,0.009,0c0,18.528-1.005,20.492,3.211,20.523
		c7.654,0.057,19.859-2.456,30.94-8.964c27.275-16.019,19.247-54.385,9.271-54.377c-1.845,0.001-22.425,1.707-38.964-1.73
		c-1.756-0.365-3.147-0.108-3.899,2.042c-0.93,2.66,0.853,3.073,2.493,3.967c9.048,4.931,5.005,15.159-0.256,17.788
		C209.816,827.102,210.68,827.946,210.68,846.021z M226.913,480.611c11.973-0.3,3.487-5.221,15.362-22.245
		c1.845-2.646,2.112-4.581,0.383-7.596c-15.767-27.493-8.012-64.386,19.904-75.927c2.723-1.126,2.837-1.843,0.754-3.787
		c-26.312-24.56-83.943,20.82-60.559,113.411c0.289,1.143,0.827,2.702,1.975,2.457c1.02-0.218,1.098-0.803-0.012-5.995
		c-17.205-80.508,30.929-86.069,26.642-43.584c-0.89,8.82-2.189,17.587-3.428,26.366
		C227.153,469.261,225.923,474.91,226.913,480.611z M347.399,649.722c0.313-1.686-4.551-31.477-37.55-51.239
		c-2.235-1.339-2.856-0.988-3.864,1.943C294.441,633.992,324.807,657.569,347.399,649.722z M292.847,446.917
		c-3.777,4.954-6.918,7.958-9.615,16.781c-0.984,3.221-0.689,3.589,2.741,4.327c6.046,1.301,22.847,1.488,38.778-7.277
		c3.073-1.691,3.109-2.077,0.772-4.823c-23.936-28.121-71.012-6.827-67.26-1.358c2.058,2.999,3.635,0.627,7.236-1.354
		C273.715,448.692,282.473,446.484,292.847,446.917z M316.29,926.535c7.921-7.576,39.474-78.366,13.564-141.221
		c-4.632-11.238-5.494-10.824-6.595-10.512c-3.084,0.872-4.625,4.119-3.086,6.831C346.326,827.686,332.537,880.506,316.29,926.535z
		 M264.942,379.829c-8.185,4.102-14.339,10.219-18.06,18.65c-1.205,2.73-0.722,3.526,2.258,3.902
		C270.563,405.083,273.107,375.737,264.942,379.829z M303.632,480.505c2.654,2.831,5.121,0.996,26.344,7.89
		c3.036,0.986,4.143-1.268,3.251-14.051C332.828,468.622,329.88,476.593,303.632,480.505z M260.395,553.949
		c-2.842-7.221-11.251-21.515-10.9-43.934c0.021-1.31,0.253-2.879-1.753-2.955c-1.863-0.07-3.346,0.473-3.34,2.743
		C244.438,525.314,250.137,544.629,260.395,553.949z M311.606,508.749c-8.753-2.134-17.597-3.51-27.254-3.605
		C290.037,511.947,303.005,513.61,311.606,508.749z M252.256,464.191c-0.661-2.02-2.291-2.52-3.412-0.827
		c-1.807,2.725-8.634,14.224-5.432,14.898c2.85,0.6,1.732-3.671,8.136-12.494C251.918,465.257,252.08,464.595,252.256,464.191z
		 M272.541,477.34c0.073-0.199,0.146-0.399,0.219-0.599c-9.27-4.581-11.783-7.01-16.404,0.599
		C261.89,477.34,267.215,477.34,272.541,477.34z M236.903,528.473c-4.691-18.019-4.092-17.397-5.296-17.194
		C228.472,511.807,235.169,525.827,236.903,528.473z M240.888,509.475c-0.488,0.078-0.976,0.156-1.465,0.234
		c0.232,4.678,0.867,9.285,3.301,13.586C242.112,518.688,241.5,514.081,240.888,509.475z M217.399,527.494
		c-2.853-7.291-2.931-7.399-6.104-9.129C213.554,521.744,215.476,524.619,217.399,527.494z"/>
	<path d="M645.459,486.168c-0.211,28.555-43.356,27.735-42.94-0.111C602.958,456.661,645.664,458.351,645.459,486.168z"/>
	<path d="M489.465,599.331c28.961,0.387,27.377,43.85-0.745,42.89C460.296,641.251,461.365,598.956,489.465,599.331z"/>
	<path d="M685.994,490.81c0.105,23.478-35.311,23.196-35.225,0.044C650.857,467.215,685.892,467.82,685.994,490.81z"/>
	<path d="M476.517,665.094c0.432-23.729,35.149-23.029,35.081,0.216C511.528,688.69,476.096,688.166,476.517,665.094z"/>
	<path d="M723.616,487.827c0.016,19.216-28.856,19.832-29.392,0.177C693.708,469.119,723.6,468.064,723.616,487.827z"/>
	<path d="M476.542,705.965c0.045-19.954,29.043-19.695,29.176-0.345C505.852,725.154,476.499,725.371,476.542,705.965z"/>
	<path d="M743.963,489.152c-13.001,0.245-13.61-19.558-0.405-19.707C756.829,469.296,756.701,488.913,743.963,489.152z"/>
	<path d="M459.953,580.311c-0.195-12.765,19.554-13.366,19.691-0.231C479.781,593.223,460.147,592.983,459.953,580.311z"/>
	<path d="M492.26,740.837c-0.297,12.813-19.848,12.908-19.435-0.727C473.217,727.139,492.559,727.923,492.26,740.837z"/>
	<path d="M583.48,476.4c-12.928,0.128-13.033-19.149-0.442-19.617C595.879,456.306,596.721,476.269,583.48,476.4z"/>
	<path d="M454.597,566.748c-10.2-0.288-10.001-15.633,0.198-15.682C465.208,551.016,465.382,567.052,454.597,566.748z"/>
	<path d="M476.218,775.724c-9.794,0.142-11.066-15.52-0.491-15.828C486.939,759.568,486.185,775.579,476.218,775.724z"/>
	<path d="M763.071,472.894c-0.021-10.682,15.303-10.306,15.82-0.295C779.403,482.528,763.092,484.011,763.071,472.894z"/>
	<path d="M569.917,451.795c-0.243,10.364-15.475,9.987-15.603-0.12C554.182,441.23,570.166,441.181,569.917,451.795z"/>
	<path d="M432.333,541.463c0.035-7.331,11.043-5.962,10.455,0.371C442.206,548.117,432.301,548.364,432.333,541.463z"/>
	<path d="M544.65,439.569c-6.622-0.13-6.782-10.909,0.418-10.503C551.906,429.452,550.792,439.69,544.65,439.569z"/>
	<path d="M788.051,463.284c0.103-7.053,10.519-6.542,10.1,0.379C797.774,469.886,787.949,470.269,788.051,463.284z"/>
	<path d="M471.667,789.755c0.144,7.093-10.453,6.779-10.251-0.022C461.602,783.487,471.528,782.949,471.667,789.755z"/>
	<path d="M424.25,525.992c3.566,0.215,3.8,5.345,0.125,5.978C420.431,532.65,419.618,525.713,424.25,525.992z"/>
	<path d="M532.613,423.831c-3.656,0.543-4.905-5.085-0.81-5.953C535.224,417.154,536.78,423.213,532.613,423.831z"/>
	<path d="M462.717,808.436c-0.363,3.943-6.073,3.617-5.823-0.328C457.165,803.842,463.05,804.818,462.717,808.436z"/>
	<path d="M811.432,459.43c-3.84,0.046-4.153-5.743-0.042-5.754C814.736,453.667,815.983,459.375,811.432,459.43z"/>
	<path d="M830.087,448.685c-0.315,3.024-4.487,2.669-4.407,0.032C825.745,446.567,829.374,445.987,830.087,448.685z"/>
	<path d="M454.057,824.646c-0.678,3.451-4.188,2.629-3.997-0.172C450.221,822.126,453.485,821.431,454.057,824.646z"/>
	<path d="M407.777,518.303c-0.099-2.854,3.921-3.198,4.314-0.719C412.448,519.829,408.865,520.751,407.777,518.303z"/>
	<path d="M523.013,406.786c-0.515,3.097-3.925,2.523-3.757-0.121C519.427,403.976,522.706,403.9,523.013,406.786z"/>
	<path d="M334.846,582.521c1.135-0.135,2.27-0.27,3.406-0.406c-1.123,0.615-2.279,0.817-3.487,0.348
		C334.749,582.451,334.846,582.521,334.846,582.521z"/>
</g>
</svg>
