<?xml version="1.0" encoding="UTF-8" standalone="no"?>
<svg xmlns:rdf="http://www.w3.org/1999/02/22-rdf-syntax-ns#" xmlns="http://www.w3.org/2000/svg" height="296pt" width="1258pt" version="1.1" xmlns:cc="http://creativecommons.org/ns#" xmlns:dc="http://purl.org/dc/elements/1.1/" viewBox="0 0 1258 296">
<path d="m983.27 272.18-6-11.941c-15.51 2.6152-24.962 7.1959-40.297 9.4199-25.175 0.325-56.987 1.1996-74.449-20.463-4.275-7.0375 6.3371-4.9121 4.7246-10.162-9.5125-8.5625-24.074 6.5629-16.137 15.838 0.6 2.2375 8.1988 9.0117 2.9238 9.5742-4.3-8.6125-12.286-14.486-18.924-20.523-2.2375 5.625-8.3996 2.2859-5.7246-2.9141-9.825-1.2625-27.327-6.4367-37.727-11.824-0.1527 0.14376-0.30883 0.27491-0.46289 0.41406-0.15406-0.13915-0.3102-0.2703-0.46289-0.41406-10.4 5.3875-27.902 10.562-37.727 11.824 2.675 5.2-3.4871 8.5391-5.7246 2.9141-6.6375 6.0375-14.624 11.911-18.924 20.523-5.275-0.5625 2.3238-7.3367 2.9238-9.5742 7.9375-9.275-6.6242-24.4-16.137-15.838-1.6125 5.25 8.9996 3.1246 4.7246 10.162-17.462 21.662-49.274 20.788-74.449 20.463-54.212-7.8625-109.85-23.274-164.6-10.137-17.462 4.725-37.324 12.738-47.949 26.275-1.1-10.038-18.875-10.738-12.1 0.51172-9.2125 0.5375-10.038-13.401-18.863-14.488-15.625-6.475-34.8-2.7113-45.812 10.326-2.875 3.725-4.6879-3.5508-8.2129-2.1133-6.45 2.3-1.2863 15.512-7.7363 17.125-7.8-3.2 5.2246-8-0.96289-12.562-26.862-35.362-74.487-44.537-116.2-48.949-47.575-2.7125-95.626 11.724-136.01 36.549 0.7875-7.5375-8.5742-14.612-0.94922-21.225 37.062-11.712 38.9-66.713 11.912-90.088-0.1625-9.925 14.2-7.2359 17-15.711 0.0875-10.938-4.9629-28.638-19.275-24.9-5.5375 0.3625-7.6754 11.7-3.4629 13.35 6.5625-7.2 11.488 7.55 3.4258 9.8125-16.325 7.425-24.825-14.85-24.338-27.5-4.725-47.662 43.926-92.563 91.301-78.488 8.1125 2.4375 20.874 6.7012 19.674 17.076-2.775 5.9125-9.6871-4.8012-10.975 1.7988 0.5375 11.875 19.539 15.851 24.826 5.2383 5.525-8.2625-11.05-8.0133-0.33789-11.988-6.825-13.525 24.125-13.473 13.963-2.3359-10.125-3.8625-2.3266 13.737 5.0859 9.0742 7.675 0.25 5.7254-8.6754 7.7754-13.713 58.938 23.562 126.18 28.425 187.45 15.1 7.8625-0.6625 12.237 4.7625 13.287 12.75 3.5875 10.838 31.325-2.9859 19.162-7.4609-11.575 3.8875-1.9004-10.162 2.9746-12.562 38.175-22.612 87.476-26.9 129.36-13 7.2125-0.125 16.074 16.598 5.5742 16.023 0.275-9.4625-8.6617-4.9859-5.1992 3.4141 1.95 10.912 16.625-0.06406 19.812 9.3359 9 17.95 34.274 21.175 49.924 10.188-1.25 11.575 19.277 15.25 15.664 1.75-16.838-6.4375 8.6246-19.525 13.662-7.1875 3.5 5.2125-7.2758 2.2516-5.4258 7.3516 3.825 6.3 10.776 3.275 15.926 0.8125 2.6125 6.475 8.1863 12.686 16.049 10.898 6.5875-0.075 0.4125-12.538 9.1875-7.625 17.475 4.3625 17.701-30.449 0.63867-20.736-4.9 1.575 2.2625 3.7879 3.625 5.5879 4.9125 7.2875-16.45 9.2242-9.875 1.6992 5.65-11.062-10.576-0.625-5.4258-13.562 12.425-32.112 50.401-47.287 82.613-49.512 31.762-1.35 66.038 9.4496 87.375 33.912 5.975 7.975 11.562 21.087 3.8496 29.537-3.45 4.9125-15.599 2.0879-10.324-4.4121 11.212 7.3875 1.0859-14.5-7.1641-4.6504-14.338 18.012 19.339 33.537 26.727 14.287 9.3375-9.3375 14.461 13.526 22.986 0.32617-10.688-12.888 18.538-18.251 18.4-3.7637-0.1625 7.125-11.9-0.53672-8.7754 6.6133 1.25 10.138 17.787 7.55 17.037-2.3125 18.288 6.2125 39.925-8.1137 41.5-27.764 1.4625 1.1375 8.2133-2.0734 7.9883 2.1641 1 8.4125 17.637 11.625 19.824 2.875-12.65-6.8 4.6379-20.975 13.525-21.938 38.688-11.65 85.026-6.5141 117.43 18.586 7.725 5.9875-6.1512 14.426 3.9863 17.514 11.612 2.05 18.239-12.562 28.914-14.1 60 16.288 127.76 10.6 182.64-18.775-0.75 8.6 6.5 17.663 16.375 13.838 7-1.0625 4.375-14.288-1.75-8.0254 0.75-10.112 19.5-7.2125 18.875 2.5-14 6.6625 6.375 26.525 16.375 16.588 7.625-1.6375 1.25-16.025-2.625-6.5879-8.75-5.325 4.875-19.451 11.875-20.676 51.75-22.237 112.88 38.562 91.75 90.563-2.875 9.55-17.375 22.6-26.375 11.912-7.5-4.7 6.625-8.025 0.125-12.625-13.25-2.5875-22.375 20.225-8.5 25.15 4.375 3.25 11.875-5.0617 13.875 1.0508-21.75 21.6-28.125 79.6 10.875 92.75 11.125 2.7875-5.625 13.613-0.75 20.463-0.5 5.975 11.25 7.1734 6.875 12.648-67.75-65.512-198.5-66.175-255.89 13.525-6.9625-3.825-10.025 3.3633-12.525 6.3008-1.2375-11.538-10.025-24.975-22.912-27.875-11.25-4.5-23.589 4.4238-34.352-1.7012-10.662-1.8375-0.6 26.513-13.562 15.738 3.05-5.7125-5.3867-11.325-7.9492-4.5625-35.412-25.525-82.563-28.162-124.59-22.199-13.075 1.56-26.242 4.0441-39.449 6.4961l2 12.238c14.719-3.8576 27.645-7.0393 42.662-9.2852-0.3 5.3875-1.5379 14.25 6.4746 12.875-2.2375-8.675 7.6496-12.075 14.162-14.025 31.425-6.7 71.026-1.9488 92.639 24.076 5.1125 5.2875 2.65 25.086-5.3125 15.986-0.275-10.862-12.163 1.6637-5.0879 6.6387 4.925 7.9625 15.425 4.1867 19.25-2.7383 3 7.4375 8.2875 2.7633 12.375-0.82422 2.825 15.2 22.737 20.137 34.287 11.387 5.475-10.025 2.4387-22.763-9.4238-26.801-4.5125 6.0625 8.3617 7.175 3.6992 14.188-5.7375 9.6-21.513 3.2887-21.838-7.2363-2.025-27.6 47.025-32.875 50.588-5.5996 0.3 6.975-7.1121 8.6867-11.1 3.8242-4.7 10.225 8.4488 19.776 17.486 13.926 0.8125 7.7875 10.064 14.136 16.414 7.5234-8.35-3.2625-3.45-17.174 4.5-12.637-4.5 15.5 25.574 8.5375 19.699-4.25-2.25-6.375-6.25 5.275-9.375 0.375-3.5-12.65 5.875-23.976 14.875-31.676 55.5-47.938 146.12-45.724 202.5-0.73633 13.125 5.1375 10 36.686-3.375 20.924-10.625 13.075 10 20.577 18.375 10.852 14.375 3.825 3.5-20.35 16.25-13.275 5 11 10.875-9.325 0-8.5-9.875-6.0125 10-4.5012 8.375-10.576-2.125-4.5-7 3.1625-9.125-1.25-5.625-7.0875 2.5-22.9 11.5-15.062 4.5 7.0625-7.625 2.1508-3.5 8.5508 14.375 4.0375 10.75-20.013-1.5-19.551 5.875-5.1125 8.375-15.361 1.75-20.861-5.5-7.7125-22.625 7.4738-7.75 5.6113-3.875 19.838-40.625-3.0488-36.375-16.236 6.625 3.0875 16.125 1.4496 16.375-7.1504-25.375-5.4875-13-45.113 7.625-51.525 14.125-6.925 39.625 1.025 37.375 19.5-5.125 10.1-15.5-11.962-22.875-1.3125-6 7.4375 9.375 1.275 7.125 10.938 0.125 15.212 20.75-2.8746 18.625 12.463 7.625 13.25 27.5 12.763 38.875 4.5254v-1.0879c-3.625-3.1625-4.75-7.0867 0-9.7617v-6.8887c-1.625-18.188-19.5-3.3379-24.75-14.588-4.75 1.2125 0 9.4879-8.5 4.8379-7.75-12.55 7-27.474 20.125-20.486 9.125-1.375 6 15.937 13.125 12.725v-4.7383c-2.75-7.3375-7.5-15.887-16.375-15.412-13.875 2.8625 4.625-13.113-5.5-13.775-1.875 11.638-25.25 14.587-24 1.0371-13.25-1.95-3.625 21.538-16 11.176 3.125-7.8625-8.25-10.087-4.125-17.287 16-55.15-40.5-113.62-96-100.5-1.5-6.75-5-7.8246-10.5-3.9121-3.5-5.625-15.25-1.6141-9.75 4.4609-0.875-2.45 3.75-4.8859 3.25-1.4609 2.25 12.338-19.5 10.375-19.75-0.33789 1.75-5.3-5.625-10.601-9.375-6.5508-45.625 40.912-112.13 42.938-169.53 35.65-9.425-2.55-29.999-3.5246-25.236-18.662-6.8-5.4625-13.288 14.075-19.4 4.9121 7.4-12.525-10.975-9.4996-13.812-0.34961-2.775-4.0625-8.8629-3.8246-10.15 1.2754-39.862-19.612-89.488-23.314-130-3.7012-5.075-8.2875-21.087-9.9613-18.637 4.2012-3.0375-19.312-34.514-8.5129-23.664 9.1621 3.9625 9.3125 8.5875-7.2625 12.75 0.375 4.2375 12.425-11.187 23.462-22.1 17.062-6.8375-2.3875-0.82422 10.662-6.7617 7.8242-9.4125 1.125-11.212-14.049-2.25-14.262 10.438 3 3.4617-12.8-3.4883-7.4746 5.25-7.575-6.4117-12.277-12.824-13.227 9.2875 16.312-25.551 18.775-23.764 2.3125-6.95-3.55-7.9875 6.1629-10.25 10.4-16.51-29.56-51.62-42.585-83.49-47.46h-27.363c-32.1 3.8875-65.675 17.624-83.85 45.637-4.125 1.9125-6.8383-13.249-9.9258-7.1367 2.125 17.6-34.012 15.638-24.537-1.0117-7.0125-4.7125-10.7 4.9734-11.562 10.398-4.475-0.0875-10.786 1.6379-9.2988 7.4629 3.7625-0.375 8.4496 0.000782 8.3496 4.9258-0.1 17.35-34.288 18.587-31.438-1.0254-5.625-2.05-8.0137 4.2746-6.1387 8.6621-8.775-6.8 0.0891-19.662 1.1016-23.725 7.7-4.3875 6.6367 6.475 11.512 8.3125 4.175-5.825 1.2879-14.288 1.2129-20.812-8.5375-7.325-21.75-3.4367-32.037-2.0742-3.875-2.05-9.6008-5.6879-10.738 1.0371-45.1-14.762-95.288-9.9125-137.9 10.312-2.9875-5.7-9.2242-7.3633-15.137-8.2383 3.6875 4.2375 1.1496 15.088-3.9004 8.375-9.3-14.425-16.225 10-28.963 8.875-47.612 9.1-98.411 7.7746-145.42-4.4629-12.788-4.6375-34.925-11.136-32.438-28.611-2.3-6-20.463-7.3996-14.525 1.7129 9.8875 12.85-24.713 18.574-19.713 2.3613 12.73 7.575-0.38-10.163-5.98-2.975-1.5625 8.3875-12.5-1.6375-10.662 8.625-8.2125 5.2625-22.938-2.2242-33.426 1.9883-44.15 7.2375-74.888 56.224-63.051 99.174 4.1375 8.5-6.2625 11.562-2.8125 20.938-13.312 8.6-7.6375-15.662-19.625-10.35-1.4625 20.875-27.948 4.9742-14.961-8.5508-10.925-1.05-8.2016 12.963-7.3516 18.65-12.938-3.2125-25.111 20.3-11.611 24.1-7.4875-26.212 39.05-16.698 23.963 4.8516-11-7.275-12.126 8.7363-2.5762 11.861 1.0875 12.762-25.799 10.6-19.574-3.6875 3.1625-5.95 7.625 5.9887 8.5625-0.86133 0.4875-8.5375-12.001-8.8141-15.451-2.4766-6.0108 6.46 3.6025 17.04-4.51 21.75v1.0879c12.762 12.512 46.075 9.2883 39.275-13.762 1.7625-7.3625 7.1754 4.7113 11.9 3.0488 10.525 0.5 10.274-13.012 18.486-15.812-2.1-10.288-15.661-4.8621-20.236 1.2129-9.0125-0.2625-4.3254-17.174 2.4746-19.799 27.912-20.112 69.824 21.423 48.049 47.836-11.425 8.475-2.6371-12.773-10.662-6.0859-9.25 10.75 3.7387 23.712 15.639 17.324-2.1875 15.788-21 27.212-36 20.662-2.4375-8.8625 15.148-5.975 10.711-16.375-4.825 0.2625-10.198 4.3246-16.148 2.0996-10.4 4.8875-5.0637 20.175 3.7988 23.9-12.338-3.225-17.961 20.076-4.2988 18.113-0.9875-3.225-5.4141-7.9 1.2734-9.6875 14.475-4 11.05 26.237-1.25 17.975-7.55-6.575-2.9875 8.7742 2.5625 8.6367 7.5625 3.3-5.8867 0.775-7.9492 4.5625-6.3875 5 8.8746 18.838 5.3496 7.3379 12.338-3.1375 3.2262 16.589 15.951 16.264 11.3 9.325 25.573-11.177 10.148-15.352 3.05 4.05 1.2637 7.7016-3.8613 7.7891-6.75-9.2375 3.8492-20.827 10.137-27.227 50.5-39.025 120.98-43.049 180.06-23.174 19.038 7.5 38.889 17.124 49.264 35.824 2.925 3.85 0.56094 10.437-4.1641 11.412-9.6625 2.725 6.3141 6.9766 8.2266 11.914 1.725-10.825 20.65-10.526 16.725 1.4492-2.6375 9.575-14.363-6.2883-12.588 4.1367 0.9875 14.088 27.338 8.6141 20.025-5.5234 15.238 9.7375 28.661-14.463 10.986-18.963 5.65 5.0375-3.5863 11.638-5.6738 4.25-3.0875-20.85 25.449-28.687 40.387-19.037 15.312 3.95 15.676 32.012-1.6738 31.787-19.438 5.0875 2.8359-20.725-11.414-21.838 3.6 8.8125-11.586 12.187-6.7363 20.762-4.25 16.412 26.524 17.576 33.199 7.2383 0.3875-9.7875 12.85-3.8617 8.625 4.0508 19.975-1.075 4.8258-7.9379 4.6133-18.463 6.025 3.525 7.9988 16.237 18.361 13.824 12.312 1.9625 9.7875-17.212-0.5625-17.412 3.55 10.65-14.136 7.9383-7.2363-2.6992 15.625-25.625 49.012-35.263 77.6-34.9 9.675 0.35 29.412 1.7 24.699 16.25 11.175 2.05 10.902-11.413 4.6016-16.488 39.538 4.425 78.012 19.312 115.82 27.625-10.888-2.1625-11.113 17.075 4.1621 15.375-2.7625 13.912 18.737 13.676 25.225 6.3008-0.975 5.975-4.0738 13.862 1.0137 18.725 6.875 0.65 0.54961-11.112 7.3496-10.062 4.65 0.6625 1.65 5.9633-0.8125 7.6133 4.1 9.425 19.662 13.549 24.449 2.1113 0.525-9.4375-11.561 6.6871-12.023-3.0254-7.0625-32.438 40.362-41.487 59.287-22.699 13.225 8.625 20.512 39.038 2.0625 44.625 5.8875-13.275-16.076-15.662-18.051-3.5-5.2625 15.312 11.5 24.312 24.25 24.75h12.301c1.2308-0.28866 2.3865-0.68717 3.4883-1.1641 1.1018 0.47689 2.2575 0.8754 3.4883 1.1641h12.301c12.75-0.4375 29.512-9.4375 24.25-24.75-1.975-12.162-23.938-9.775-18.051 3.5-18.45-5.5875-11.162-36 2.0625-44.625 18.925-18.788 66.35-9.7383 59.287 22.699-0.4625 9.7125-12.548-6.4121-12.023 3.0254 4.7875 11.438 20.349 7.3137 24.449-2.1113-2.4625-1.65-5.4625-6.9508-0.8125-7.6133 6.8-1.05 0.47461 10.712 7.3496 10.062 5.0875-4.8625 1.9887-12.75 1.0137-18.725 6.4875 7.375 27.987 7.6117 25.225-6.3008 15.275 1.7 15.05-17.538 4.1621-15.375 19.593-4.3073 39.366-12.136 59.371-17.604m-289.82-195.58c10.938 2.1 2.0375 10.1 0 0zm865.33 93.577c14.375 7.3625-8.25 22.649-15.25 8.2617 6-5.8125 14.75 2.4258 15.25-8.2617zm-776.72 71.23c2.3058 0.10246 4.5879 0.78515 6.6856 2.1953 0.91508 0.7692 1.7223 0.86341 2.4883 0.61133 0.76595 0.25207 1.5732 0.15787 2.4883-0.61133 13.425-9.025 34.412 11.738 20.725 23.812-7.725 0.9875-4.8871-5.05-2.0996-8.8125-7.4-3.3-21.4 13.488-10.35 19.438 6.8 8.175 20.487-2.975 20.324 8-5.4625-2.7375-9.5238 1.9871-4.9863 6.4746-21.775 11.388-33.125 55.112-3.4375 62.287-6.15 4.8375-23.976 6.9375-22.076-3.125-0.19686-0.0102-0.39188-0.033-0.58789-0.0488-0.19601 0.0159-0.39103 0.0386-0.58789 0.0488 1.9 10.062-15.926 7.9625-22.076 3.125 29.688-7.175 18.338-50.9-3.4375-62.287 4.5375-4.4875 0.47617-9.2121-4.9863-6.4746-0.1625-10.975 13.524 0.175 20.324-8 11.05-5.95-2.9496-22.738-10.35-19.438 2.7875 3.7625 5.6254 9.8-2.0996 8.8125-11.549-10.188 1.5878-26.561 14.039-26.008zm-52.752 25.32c12.075-0.1-5.5371 15.636-8.6621 11.424 4.8625-2.1375 8.1496-5.9988 8.6621-11.424zm123.85 0c0.5125 5.425 3.7996 9.2863 8.6621 11.424-3.125 4.2125-20.737-11.524-8.6621-11.424zm-105.18 14.773c7.55 6.5625-11.5 4.9625 0 0zm86.504 0c11.5 4.9625-7.55 6.5625 0 0zm-140.89 10.422c6.4064 0.035 10.604 1.8348 1.0644 7.8418-3.6625 11.188-8.9879-4.6504-10.088-7.0254 2.7422-0.48438 6.1114-0.83229 9.0234-0.81641zm195.28 0c2.912-0.0159 6.2812 0.33203 9.0234 0.81641-1.1 2.375-6.4254 18.213-10.088 7.0254-9.5391-6.007-5.342-7.8068 1.0645-7.8418zm-220.46 0.44727c2.9326 0.0188 5.8555 0.62695 7.2305 3.3691-2.525-0.7875-8.2141 0.56172-6.3516 3.9492 10.538-3.725 7.7766 13.727 0.10156 9.7891-0.2375-10.262-18.762-8.2254-5.9375-16.838 1.4344-0.0797 3.1975-0.28081 4.957-0.26953zm245.64 0c1.7596-0.0113 3.5226 0.18991 4.957 0.26953 12.825 8.6125-5.7 6.5754-5.9375 16.838-7.675 3.9375-10.436-13.514 0.10156-9.7891 1.8625-3.3875-3.8266-4.7367-6.3516-3.9492 1.375-2.7422 4.2979-3.3504 7.2305-3.3691z" transform="scale(.8)"/>
</svg>
